<svg width="20" height="20" viewBox="0 0 20 20" fill="none" xmlns="http://www.w3.org/2000/svg">
<path d="M19.6687 18.0995L15.907 14.3379C17.2937 12.5522 17.9476 10.3052 17.7358 8.05425C17.524 5.80334 16.4623 3.71777 14.7668 2.22213C13.0714 0.726496 10.8696 -0.0667624 8.60987 0.0038519C6.35011 0.0744662 4.20221 1.00364 2.60345 2.60222C1.00469 4.2008 0.0752536 6.34859 0.00437298 8.60834C-0.0665076 10.8681 0.726492 13.0699 2.22193 14.7655C3.71736 16.4612 5.80281 17.5231 8.0537 17.7352C10.3046 17.9473 12.5517 17.2936 14.3376 15.9072L18.0993 19.6688C18.202 19.7732 18.3244 19.8563 18.4594 19.9132C18.5944 19.97 18.7393 19.9996 18.8858 20.0002C19.0323 20.0008 19.1774 19.9724 19.3129 19.9166C19.4483 19.8609 19.5714 19.7788 19.675 19.6752C19.7786 19.5716 19.8606 19.4486 19.9164 19.3131C19.9722 19.1777 20.0006 19.0325 20 18.886C19.9994 18.7396 19.9698 18.5946 19.9129 18.4597C19.856 18.3247 19.773 18.2023 19.6686 18.0995H19.6687ZM2.23923 8.89693C2.23923 7.58009 2.62972 6.29281 3.36133 5.19789C4.09293 4.10297 5.13278 3.24959 6.34939 2.74565C7.566 2.24172 8.90472 2.10986 10.1963 2.36677C11.4878 2.62367 12.6742 3.25779 13.6053 4.18895C14.5365 5.1201 15.1706 6.30646 15.4275 7.598C15.6844 8.88955 15.5526 10.2283 15.0486 11.4449C14.5447 12.6615 13.6913 13.7013 12.5964 14.4329C11.5015 15.1645 10.2142 15.555 8.89733 15.555C7.1321 15.553 5.43974 14.8509 4.19154 13.6027C2.94333 12.3545 2.24122 10.6622 2.23923 8.89693Z" fill="#817268" fill-opacity="0.5"/>
</svg>
