<svg width="25" height="28" viewBox="0 0 25 28" fill="none" xmlns="http://www.w3.org/2000/svg">
<path d="M3.04192 11.1201L3.04191 11.1202L1.93007 24.9663C1.93007 24.9663 1.93007 24.9663 1.93006 24.9663C1.91478 25.1568 1.9391 25.3484 2.0015 25.5291C2.06389 25.7097 2.16302 25.8755 2.29263 26.016C2.42224 26.1565 2.57953 26.2686 2.75459 26.3453C2.92954 26.4219 3.11844 26.4616 3.30943 26.4617L3.04192 11.1201ZM3.04192 11.1201C3.06976 10.7732 3.22728 10.4494 3.48311 10.2133C3.73893 9.97726 4.07428 9.84621 4.42238 9.84629H4.42266L21.1184 9.84629L21.1186 9.84629C21.4667 9.84621 21.8021 9.97726 22.0579 10.2133C22.3137 10.4494 22.4713 10.7732 22.4991 11.1201L22.4991 11.1202L23.6109 24.9663C23.6109 24.9663 23.611 24.9663 23.611 24.9663C23.6262 25.1568 23.6019 25.3484 23.5395 25.5291C23.4771 25.7097 23.378 25.8755 23.2484 26.016C23.1188 26.1565 22.9615 26.2686 22.7864 26.3453C22.6115 26.4219 22.4226 26.4616 22.2316 26.4617C22.2314 26.4617 22.2313 26.4617 22.2312 26.4617H3.30984L3.04192 11.1201Z" stroke="#846E60" stroke-opacity="0.9" stroke-width="2.76923" stroke-linecap="round" stroke-linejoin="round"/>
<mask id="path-2-inside-1_0_1" fill="white">
<path d="M18.3089 12.6153V5.69227C18.3089 4.22338 17.7253 2.81465 16.6867 1.77599C15.648 0.737324 14.2393 0.153809 12.7704 0.153809C11.3015 0.153809 9.89277 0.737324 8.85411 1.77599C7.81545 2.81465 7.23193 4.22338 7.23193 5.69227V12.6153"/>
</mask>
<path d="M15.5396 12.6153C15.5396 14.1448 16.7795 15.3846 18.3089 15.3846C19.8383 15.3846 21.0781 14.1448 21.0781 12.6153H15.5396ZM18.3089 5.69227H21.0781H18.3089ZM12.7704 0.153809V-2.61542V0.153809ZM7.23193 5.69227H4.4627H7.23193ZM4.4627 12.6153C4.4627 14.1448 5.70253 15.3846 7.23193 15.3846C8.76134 15.3846 10.0012 14.1448 10.0012 12.6153H4.4627ZM21.0781 12.6153V5.69227H15.5396V12.6153H21.0781ZM21.0781 5.69227C21.0781 3.48893 20.2028 1.37584 18.6448 -0.182155L14.7285 3.73413C15.2479 4.25346 15.5396 4.95782 15.5396 5.69227H21.0781ZM18.6448 -0.182155C17.0868 -1.74015 14.9737 -2.61542 12.7704 -2.61542V2.92304C13.5048 2.92304 14.2092 3.2148 14.7285 3.73413L18.6448 -0.182155ZM12.7704 -2.61542C10.5671 -2.61542 8.45396 -1.74015 6.89597 -0.182155L10.8123 3.73413C11.3316 3.2148 12.0359 2.92304 12.7704 2.92304V-2.61542ZM6.89597 -0.182155C5.33797 1.37584 4.4627 3.48893 4.4627 5.69227H10.0012C10.0012 4.95782 10.2929 4.25346 10.8123 3.73413L6.89597 -0.182155ZM4.4627 5.69227V12.6153H10.0012V5.69227H4.4627Z" fill="#846E60" fill-opacity="0.9" mask="url(#path-2-inside-1_0_1)"/>
</svg>
