<svg width="66" height="25" viewBox="0 0 66 25" fill="none" xmlns="http://www.w3.org/2000/svg">
<path d="M10.2315 6.20535C10.9288 5.9695 11.6774 5.84645 12.4567 5.84645C15.8612 5.84645 18.7017 8.2665 19.3477 11.4761L24.1673 10.4917C23.0598 5.03635 18.2402 0.924316 12.4567 0.924316C11.1339 0.924316 9.86237 1.13966 8.67285 1.53958L10.2315 6.20535Z" fill="#FFF100"/>
<path d="M4.54025 21.8335L7.80116 18.1419C6.34503 16.8498 5.43239 14.9732 5.43239 12.8711C5.43239 10.7792 6.34503 8.89235 7.80116 7.61054L4.54025 3.9292C2.06893 6.12365 0.510254 9.31278 0.510254 12.8813C0.510254 16.4396 2.06893 19.639 4.54025 21.8335Z" fill="#00A3DF"/>
<path d="M19.3477 14.2861C18.6914 17.4958 15.8612 19.9056 12.4567 19.9056C11.6774 19.9056 10.9288 19.7825 10.2213 19.5467L8.6626 24.2124C9.85211 24.6124 11.1339 24.8277 12.4567 24.8277C18.2402 24.8277 23.0598 20.7259 24.1673 15.2706L19.3477 14.2861Z" fill="#EE4023"/>
<path d="M40.2258 17.5881C39.426 18.3675 38.3493 18.8392 37.1598 18.8187C36.3394 18.8084 35.5806 18.5623 34.9448 18.1521L33.3451 20.6952C34.4423 21.3823 35.7241 21.7924 37.1188 21.8129C39.1389 21.8437 40.9847 21.0439 42.328 19.7415L40.2258 17.5881ZM37.3341 7.22087C33.3144 7.15935 29.9919 10.3792 29.9304 14.399C29.9099 15.9064 30.3406 17.3215 31.1096 18.4905L44.3174 12.8403C43.5791 9.67169 40.7488 7.2824 37.3341 7.22087ZM32.9554 14.9732C32.9349 14.8092 32.9247 14.6348 32.9247 14.4605C32.9657 12.0917 34.914 10.1947 37.2828 10.2357C38.5749 10.2562 39.7234 10.8407 40.4925 11.7636L32.9554 14.9732ZM48.4704 3.93945V18.0188L50.911 19.034L49.7522 21.8129L47.3322 20.808C46.7887 20.5722 46.4195 20.2133 46.1427 19.8031C45.876 19.3929 45.671 18.8186 45.671 18.0598V3.93945H48.4704Z" fill="black"/>
<path d="M57.2791 10.4509C57.7098 10.3073 58.161 10.2355 58.643 10.2355C60.7246 10.2355 62.4474 11.7121 62.8473 13.6707L65.7903 13.0657C65.1135 9.73304 62.1705 7.23096 58.643 7.23096C57.8329 7.23096 57.0535 7.36427 56.3357 7.60012L57.2791 10.4509ZM53.8029 19.9772L55.7922 17.7315C54.9001 16.9419 54.3463 15.7934 54.3463 14.5116C54.3463 13.2298 54.9103 12.0813 55.7922 11.302L53.8029 9.05625C52.2955 10.3893 51.3418 12.3479 51.3418 14.5219C51.3418 16.6958 52.2955 18.6441 53.8029 19.9772ZM62.8473 15.3832C62.4474 17.3418 60.7144 18.8185 58.643 18.8185C58.1713 18.8185 57.7098 18.7364 57.2791 18.5929L56.3255 21.4436C57.0535 21.6897 57.8329 21.823 58.643 21.823C62.1705 21.823 65.1135 19.3209 65.7903 15.9882L62.8473 15.3832Z" fill="black"/>
</svg>
