<svg width="30" height="27" viewBox="0 0 30 27" fill="none" xmlns="http://www.w3.org/2000/svg">
<path d="M15.0007 2.33778C13.3618 0.834434 11.2166 6.98536e-05 8.99024 0C7.81183 0.00122396 6.6453 0.234918 5.55777 0.687632C4.47025 1.14035 3.4832 1.80314 2.65343 2.63788C-0.885731 6.18356 -0.884227 11.7294 2.65644 15.2601L13.6846 26.2618C13.9403 26.7104 14.4336 27 15.0007 27C15.2335 26.9977 15.4626 26.941 15.6694 26.8345C15.8763 26.7279 16.0553 26.5744 16.1919 26.3863L27.3449 15.2601C30.8855 11.7279 30.8855 6.18356 27.3419 2.63188C26.5125 1.79867 25.5263 1.13722 24.4398 0.685553C23.3533 0.233882 22.1881 0.00089971 21.0111 0C18.7847 0.00036306 16.6397 0.834687 15.0007 2.33778ZM25.2151 4.75358C27.566 7.11087 27.5675 10.7931 25.2181 13.1384L15.0007 23.3313L4.78325 13.1384C2.43383 10.7931 2.43534 7.11087 4.78024 4.75959C5.92337 3.62521 7.41845 3.001 8.99024 3.001C10.562 3.001 12.0511 3.62521 13.1852 4.75659L13.9373 5.50684C14.0768 5.6463 14.2426 5.75694 14.425 5.83244C14.6075 5.90793 14.8031 5.94678 15.0007 5.94678C15.1982 5.94678 15.3938 5.90793 15.5763 5.83244C15.7587 5.75694 15.9245 5.6463 16.0641 5.50684L16.8161 4.75659C19.0903 2.49233 22.9439 2.49833 25.2151 4.75358Z" fill="black"/>
</svg>
