<svg width="61" height="27" viewBox="0 0 61 27" fill="none" xmlns="http://www.w3.org/2000/svg">
<path d="M25.8325 26.6677L0.603516 26.6767V26.616C0.603516 26.5826 0.643754 26.3661 0.692885 26.1348C0.742104 25.9036 0.81853 25.5357 0.862907 25.3174C0.907107 25.0991 0.982829 24.7281 1.03099 24.4929C1.07924 24.2579 1.15946 23.8663 1.2092 23.6228C1.25886 23.3793 1.3367 22.9945 1.38222 22.7679C1.42774 22.5411 1.50355 22.17 1.55092 21.9434C1.5982 21.7167 1.67894 21.3251 1.73027 21.0732C1.78152 20.8213 1.85944 20.4365 1.90347 20.2182C1.94749 19.9998 2.0174 19.6632 2.05887 19.4702C2.10026 19.277 2.15317 19.016 2.17624 18.89C2.1994 18.7641 2.27433 18.393 2.34274 18.0656C2.41115 17.7381 2.48652 17.3671 2.51047 17.2412C2.53433 17.1152 2.61015 16.7441 2.679 16.4167C2.74777 16.0893 2.82331 15.7183 2.84691 15.5923C2.87051 15.4664 2.94649 15.0953 3.0157 14.7679C3.08508 14.4403 3.15992 14.0763 3.18193 13.9587C3.20412 13.8412 3.2647 13.5389 3.31665 13.287C3.36851 13.0351 3.46677 12.561 3.53492 12.2336C3.60316 11.906 3.71973 11.3358 3.79396 10.9663C3.86836 10.5968 3.9572 10.1572 3.99145 9.9893C4.02562 9.82139 4.08751 9.51903 4.12898 9.31749C4.17046 9.11595 4.24565 8.75186 4.29619 8.50841C4.34673 8.26478 4.42888 7.86636 4.4788 7.62282C4.52881 7.37936 4.60577 7.00146 4.64988 6.78318C4.69399 6.56482 4.76928 6.20074 4.81717 5.97402C4.86507 5.74729 4.94748 5.34878 5.00031 5.08851C5.05314 4.82815 5.14163 4.42973 5.19693 4.20301C5.25222 3.97628 5.33041 3.70148 5.37074 3.59239C5.41097 3.48312 5.52218 3.24662 5.6178 3.06647L5.7917 2.7392L5.94974 2.53211C6.03656 2.41835 6.19179 2.23846 6.29454 2.13245C6.39729 2.02644 6.57057 1.8669 6.67984 1.77797C6.78894 1.68895 6.94698 1.56885 7.03089 1.51109C7.11489 1.45333 7.27981 1.35216 7.39735 1.2863C7.5149 1.22044 7.6799 1.13424 7.76381 1.09471C7.84781 1.05518 8.01959 0.982889 8.1455 0.934198C8.27141 0.885595 8.51187 0.803973 8.67978 0.752993C8.84769 0.701925 9.16299 0.624971 9.38038 0.582091C9.59778 0.539123 9.94117 0.481715 10.1438 0.454508L10.5119 0.405025L35.7561 0.395516L61.0002 0.385742V0.446496C61.0002 0.479866 60.9597 0.696378 60.9103 0.927594C60.8607 1.15881 60.778 1.55415 60.7264 1.80606C60.6747 2.05796 60.5995 2.42213 60.559 2.61522C60.5186 2.8084 60.442 3.17935 60.3888 3.43962C60.3357 3.69998 60.2539 4.09849 60.2072 4.32513C60.1604 4.55185 60.0846 4.92289 60.0388 5.14953C59.9931 5.37634 59.9168 5.74729 59.8695 5.97402C59.8221 6.20074 59.7488 6.55804 59.7064 6.76795C59.6639 6.97786 59.5872 7.35568 59.5359 7.60758C59.4845 7.85949 59.402 8.258 59.3525 8.49309C59.3029 8.72818 59.2276 9.09235 59.185 9.30226C59.1422 9.51217 59.0655 9.88998 59.0144 10.1419C58.9632 10.3938 58.8808 10.7923 58.8313 11.0275C58.7819 11.2626 58.7082 11.6198 58.6675 11.8213C58.6269 12.0228 58.5504 12.4007 58.4976 12.661C58.4446 12.9212 58.3678 13.2991 58.3264 13.5008C58.285 13.7022 58.2113 14.0595 58.1625 14.2945C58.1136 14.5297 58.03 14.9351 57.9769 15.1954C57.9236 15.4557 57.8474 15.8266 57.8076 16.0198C57.7676 16.2128 57.693 16.577 57.6416 16.8288C57.5903 17.0809 57.5086 17.4793 57.46 17.7144C57.4115 17.9495 57.3354 18.3206 57.2908 18.5389C57.2465 18.7572 57.1691 19.1351 57.1191 19.3785C57.069 19.622 56.9873 20.0205 56.9375 20.264C56.8877 20.5075 56.813 20.8717 56.7715 21.0732C56.7301 21.2747 56.6543 21.6457 56.6032 21.8976C56.552 22.1495 56.4687 22.5465 56.4182 22.7798L56.3263 23.2039L56.2167 23.4973C56.1565 23.6587 56.0659 23.8732 56.0154 23.974C55.965 24.0746 55.8623 24.2525 55.7871 24.3691C55.712 24.4855 55.6072 24.6348 55.5543 24.7007C55.5015 24.7667 55.3424 24.937 55.2007 25.0793L54.9433 25.3377L54.6954 25.5138C54.5591 25.6106 54.4123 25.7092 54.3692 25.7327C54.3261 25.7562 54.1619 25.8401 54.0042 25.9189C53.8467 25.9979 53.6241 26.0982 53.5097 26.142C53.3952 26.1859 53.1685 26.2605 53.0059 26.3078C52.8432 26.3553 52.6689 26.4019 52.6185 26.4115C52.5681 26.4212 52.3933 26.4573 52.2299 26.492C52.0666 26.5266 51.7368 26.5783 51.4971 26.6068L51.0613 26.6587L25.8325 26.6677ZM16.8564 20.1419H17.5129L17.5314 20.0936C17.5417 20.067 17.55 20.0046 17.55 19.9548C17.55 19.905 17.5716 19.7241 17.5981 19.5528C17.6246 19.3813 17.6865 18.9869 17.736 18.6763C17.7854 18.3655 17.8594 17.8984 17.9004 17.6381C17.9414 17.3777 17.9915 17.0446 18.0118 16.8976C18.032 16.7506 18.0565 16.6305 18.0665 16.6305C18.0763 16.6305 18.1188 16.6954 18.1608 16.7748L18.237 16.919L18.4063 17.0896L18.5756 17.2601L18.7839 17.3436L18.9923 17.427L19.2406 17.4592L19.489 17.4913L19.8041 17.472L20.1193 17.4527L20.4606 17.3643L20.802 17.2759L20.9851 17.1925C21.0859 17.1464 21.2645 17.0461 21.382 16.9695L21.5958 16.8303L21.7951 16.6311C21.9047 16.5217 22.0593 16.346 22.1385 16.2408C22.218 16.1356 22.2829 16.0419 22.2829 16.0326C22.2829 16.0232 22.3219 15.9581 22.3695 15.8879C22.4171 15.8177 22.5145 15.6227 22.586 15.4548C22.6576 15.2869 22.7692 14.9847 22.8344 14.7831L22.9527 14.4167L23.0139 14.0993C23.0476 13.9248 23.0909 13.6363 23.1102 13.4581L23.1451 13.1343L23.1249 12.8595L23.1047 12.5847L23.041 12.3098L22.9773 12.035L22.8741 11.8293L22.771 11.6236L22.5718 11.4123L22.3726 11.2011L22.1369 11.0793L21.9012 10.9576L21.6416 10.8953L21.382 10.8332L21.1225 10.8142L20.863 10.7952L20.5739 10.8284L20.2847 10.8616L20.0488 10.9219L19.8128 10.982L19.6078 11.0771C19.4951 11.1291 19.3309 11.2178 19.2432 11.2739C19.1555 11.3301 19.0649 11.3946 19.042 11.4174C19.0192 11.4403 18.9643 11.4826 18.9203 11.5113L18.8401 11.5639L18.8961 11.2956C18.927 11.1481 18.9527 11.0103 18.9534 10.9892L18.9546 10.9511H18.3947H17.835L17.7369 11.5694C17.6828 11.9096 17.5976 12.435 17.5474 12.7374C17.4972 13.0397 17.4214 13.493 17.3792 13.7449C17.3369 13.9968 17.2614 14.4434 17.2114 14.7373C17.1615 15.0311 17.079 15.4984 17.028 15.7755C16.977 16.0526 16.9025 16.458 16.8621 16.6763C16.8219 16.8946 16.746 17.3068 16.6937 17.5922C16.6414 17.8778 16.5572 18.3312 16.5067 18.5999C16.4562 18.8686 16.374 19.2946 16.3241 19.5465C16.2741 19.7984 16.2258 20.0355 16.2166 20.0732L16.1999 20.1419H16.8564ZM19.6828 16.6116L19.4279 16.6269L19.2613 16.5974L19.0946 16.568L18.9254 16.4908L18.7561 16.4135L18.6379 16.3005L18.5197 16.1878L18.4514 16.0351C18.4138 15.9511 18.3657 15.8084 18.3443 15.718L18.3053 15.5537L18.3209 15.2905L18.3366 15.0274L18.4152 14.6152C18.4585 14.3885 18.5361 13.9625 18.5878 13.6687C18.6395 13.3748 18.7179 12.944 18.7618 12.7117L18.8417 12.289L19.0167 12.1434C19.113 12.0634 19.2655 11.956 19.3557 11.9049L19.5195 11.8119L19.7331 11.7458L19.9469 11.6796L20.2217 11.6635L20.4965 11.6473L20.7204 11.6951L20.9441 11.7427L21.102 11.8154L21.2599 11.8882L21.3923 12.0213L21.5249 12.1544L21.5962 12.2954C21.6355 12.373 21.6907 12.5247 21.7188 12.6326L21.77 12.8289L21.7543 13.4091L21.7386 13.9893L21.6603 14.3322C21.6171 14.5208 21.5351 14.8094 21.4778 14.9734L21.3738 15.2717L21.2464 15.5131C21.1763 15.646 21.0682 15.8254 21.0062 15.912C20.9443 15.9984 20.8454 16.1107 20.7866 16.1611C20.7279 16.2116 20.6294 16.2906 20.5679 16.3365L20.4559 16.42L20.1968 16.5082L19.9377 16.5963L19.6828 16.6116ZM26.0233 17.451L26.3592 17.4549L26.695 17.4242C26.8798 17.4074 27.1821 17.3723 27.3667 17.3462C27.5515 17.3202 27.8706 17.2619 28.0759 17.2169L28.4492 17.1347L28.4678 16.997C28.4781 16.9214 28.52 16.6961 28.561 16.4965L28.6356 16.1332L28.619 16.1169L28.6026 16.1005L28.4885 16.1555C28.4258 16.1858 28.2302 16.2582 28.0541 16.3162L27.7338 16.4217L27.3976 16.4869L27.0614 16.552L26.5271 16.5532L25.9927 16.554L25.8095 16.4956C25.7087 16.4634 25.5606 16.4046 25.4802 16.3647L25.3341 16.2924L25.2135 16.1834L25.0928 16.0744L24.9987 15.91L24.9046 15.7455L24.8456 15.5393L24.7866 15.333L24.7863 14.9512L24.7858 14.5693L24.8381 14.2288L24.8906 13.8882L25.35 13.8667L25.8095 13.8452L27.508 13.8562L29.2065 13.8671L29.2577 13.6496C29.286 13.5299 29.3291 13.2826 29.3536 13.1L29.3982 12.7679L29.3991 12.4886L29.4001 12.2092L29.3518 12.0006L29.3033 11.7921L29.2233 11.654C29.1795 11.5781 29.1019 11.4681 29.0512 11.4094C29.0004 11.3509 28.9098 11.2683 28.8499 11.2259C28.7898 11.1836 28.6721 11.1124 28.5881 11.0677L28.4354 10.9865L28.1687 10.9223L27.902 10.8581L27.5734 10.8266L27.2446 10.7952L26.9393 10.8151L26.634 10.8349L26.2675 10.9053L25.9011 10.9757L25.672 11.0672C25.5461 11.1175 25.3537 11.2094 25.2446 11.2713C25.1355 11.3332 24.9844 11.4339 24.9088 11.4951C24.8331 11.5564 24.7023 11.6754 24.618 11.7597C24.5336 11.844 24.4088 11.9953 24.3407 12.0961C24.2726 12.1969 24.1682 12.3755 24.1086 12.4931C24.049 12.6107 23.9715 12.7755 23.9362 12.8595C23.9009 12.9434 23.8367 13.1152 23.7937 13.2411C23.7505 13.3671 23.6828 13.6076 23.6432 13.7756C23.6035 13.9435 23.5492 14.2199 23.5223 14.3898L23.4736 14.6988L23.4742 15.1532L23.4746 15.6075L23.521 15.8061C23.5464 15.9152 23.5953 16.0802 23.6294 16.1724C23.6635 16.2648 23.7267 16.4022 23.7696 16.4778C23.8126 16.5533 23.9045 16.675 23.9737 16.7482C24.043 16.8214 24.1683 16.9324 24.2523 16.9948C24.3362 17.0573 24.4858 17.1453 24.5845 17.1902L24.764 17.2719L25.0143 17.3325C25.1519 17.3657 25.3597 17.4051 25.476 17.4201C25.5923 17.435 25.8385 17.449 26.0233 17.451ZM26.5983 13.1495C25.753 13.1495 25.0614 13.1436 25.0614 13.1361C25.0614 13.1288 25.0975 13.0222 25.1416 12.8994C25.1857 12.7767 25.2631 12.594 25.3136 12.4935L25.4056 12.3106L25.6075 12.1098L25.8095 11.9088L26.008 11.8139C26.1171 11.7617 26.2614 11.7048 26.3285 11.6876C26.3958 11.6703 26.5881 11.6474 26.756 11.6368L27.0614 11.6171L27.296 11.6473L27.5304 11.6775L27.7008 11.7555L27.8712 11.8335L27.9647 11.9343C28.0161 11.9897 28.0773 12.0713 28.1009 12.1156L28.1435 12.1962L28.1716 12.3752L28.1999 12.5541L28.1676 12.8518L28.1354 13.1495H26.5983ZM35.7334 17.4512L36.0694 17.4549L36.4509 17.4097C36.6607 17.3848 36.94 17.3437 37.0716 17.318C37.2031 17.2926 37.4161 17.242 37.5449 17.2057C37.6736 17.1692 37.7901 17.1299 37.8037 17.1183C37.8174 17.1065 37.8537 16.968 37.8846 16.8103C37.9154 16.6526 37.9543 16.4412 37.9709 16.3404C37.9875 16.2396 37.9961 16.1518 37.99 16.1452C37.9839 16.1386 37.9614 16.1472 37.94 16.1641C37.9185 16.1811 37.7688 16.2442 37.607 16.3042L37.313 16.4134L36.8944 16.4945L36.4756 16.5756L36.1197 16.5635L35.7637 16.5514L35.5615 16.4812L35.3592 16.411L35.203 16.2745L35.0468 16.1377L34.9431 15.949L34.8396 15.7603L34.7901 15.5077L34.7408 15.2551L34.7411 14.9276L34.7414 14.6L34.8014 14.203L34.8614 13.806L34.9248 13.5923C34.9598 13.4747 34.9993 13.3374 35.0126 13.287C35.0261 13.2365 35.082 13.0923 35.1371 12.9663C35.1921 12.8404 35.2904 12.6457 35.3554 12.5337L35.4735 12.3303L35.6187 12.1798L35.7639 12.0293L35.9176 11.934L36.0714 11.8387L36.2688 11.7778C36.3773 11.7444 36.5693 11.701 36.6952 11.6814L36.9242 11.6457L37.26 11.6626L37.5959 11.6794L37.9929 11.7589L38.3899 11.8382L38.5513 11.8985C38.64 11.9316 38.7165 11.9588 38.7214 11.9588C38.726 11.9588 38.7473 11.8454 38.7687 11.7068C38.79 11.5683 38.8278 11.3403 38.8528 11.2003C38.8779 11.0601 38.8924 10.9395 38.8849 10.9322C38.8776 10.9248 38.7583 10.9059 38.6199 10.8901C38.4814 10.8744 38.105 10.8464 37.7836 10.8278L37.199 10.7942L36.7868 10.8259L36.3746 10.8575L36.0692 10.9216L35.7639 10.9858L35.5672 11.0645C35.4591 11.1077 35.3007 11.1858 35.2152 11.2379C35.1297 11.2901 35.021 11.3602 34.9735 11.3938C34.9259 11.4274 34.7819 11.5584 34.6532 11.685L34.4194 11.9152L34.2887 12.1064C34.217 12.2116 34.0928 12.4309 34.0128 12.5939L33.8673 12.8901L33.7558 13.2106C33.6945 13.3869 33.6088 13.6755 33.5656 13.8518L33.4868 14.1725L33.4582 14.4625L33.4296 14.7526L33.4299 15.1343L33.4303 15.5159L33.4591 15.738L33.4879 15.9601L33.5793 16.1885L33.6707 16.4169L33.7765 16.5819L33.882 16.747L34.0499 16.9124L34.218 17.0777L34.3956 17.1717L34.5734 17.2656L34.8068 17.3304C34.9351 17.366 35.1206 17.407 35.219 17.4213C35.3173 17.4357 35.549 17.4491 35.7339 17.4512H35.7334ZM40.756 17.4399L41.1682 17.428L41.4277 17.3616L41.6873 17.2951L41.8553 17.2158C41.9477 17.1722 42.0987 17.086 42.1911 17.0243C42.2835 16.9626 42.4266 16.8453 42.5089 16.7637C42.5912 16.682 42.7133 16.5427 42.7802 16.4541C42.8472 16.3654 42.906 16.2969 42.9109 16.302C42.9159 16.3069 42.9004 16.448 42.8767 16.6157C42.853 16.7834 42.8332 17.0064 42.8329 17.1114L42.8324 17.3022H43.3927H43.9531L43.9703 16.8671L43.9874 16.432L44.0673 15.8671C44.1114 15.5564 44.1824 15.096 44.2253 14.8442C44.2681 14.5923 44.3425 14.1664 44.3907 13.8976C44.4389 13.6289 44.5152 13.2099 44.5602 12.9663L44.6423 12.5236L44.6451 12.1412L44.6478 11.7587L44.5614 11.582L44.4748 11.4052L44.3576 11.2927L44.2403 11.1801L44.0479 11.0826L43.8553 10.985L43.5684 10.9211L43.2814 10.8573L42.8864 10.8273L42.4914 10.7972L41.9825 10.8288C41.7025 10.846 41.3088 10.8802 41.1072 10.9047L40.7408 10.9491L40.4911 10.9501L40.2414 10.9511L40.205 11.1267C40.185 11.2232 40.1294 11.4526 40.0816 11.6365C40.0337 11.8204 39.999 11.9752 40.0044 11.9806C40.0098 11.9861 40.1434 11.9557 40.3011 11.9133C40.4589 11.8707 40.7942 11.801 41.0462 11.758L41.5042 11.68L41.9163 11.6631L42.3286 11.646L42.5941 11.6926L42.8597 11.7392L43.0368 11.8266L43.2141 11.9141L43.3133 12.0621L43.4126 12.2099L43.4112 12.443L43.4097 12.6763L43.3571 12.9322L43.3045 13.1881L42.2058 13.1921L41.1071 13.1959L40.7476 13.2946C40.5499 13.3488 40.3309 13.4208 40.261 13.4545C40.1911 13.4884 40.1212 13.516 40.1056 13.516C40.0901 13.516 39.9725 13.5812 39.8442 13.661L39.611 13.8059L39.4274 13.9892C39.3264 14.09 39.1974 14.2412 39.1407 14.3252C39.084 14.4091 38.9918 14.5845 38.9359 14.715L38.8343 14.9521L38.7877 15.2187L38.741 15.4854V15.7651V16.0449L38.7855 16.2779L38.8301 16.5108L38.9127 16.6627C38.9582 16.7462 39.0418 16.8686 39.0982 16.9347L39.2011 17.0548L39.3836 17.1657L39.5662 17.2767L39.7753 17.3357C39.8903 17.3682 40.0653 17.4077 40.1642 17.4233L40.344 17.4517L40.7563 17.4399H40.756ZM41.1377 16.586L40.8934 16.5989L40.7316 16.5576C40.6427 16.5349 40.5076 16.4844 40.4315 16.4453L40.2934 16.3742L40.2178 16.2845C40.1764 16.2351 40.113 16.1383 40.077 16.0691L40.0116 15.9434L39.9988 15.65L39.9858 15.3564L40.0376 15.1784C40.0661 15.0805 40.1329 14.9104 40.1861 14.8007L40.2827 14.6011L40.4679 14.4174L40.653 14.2335L40.8495 14.1389L41.046 14.0443L41.2903 13.9862L41.5346 13.9282H42.298H43.0614L43.1096 13.9481L43.1579 13.968L43.1173 14.2077C43.0949 14.3394 43.0417 14.5778 42.9988 14.7373C42.956 14.897 42.8804 15.1314 42.8309 15.2585C42.7813 15.3856 42.7407 15.498 42.7407 15.5082C42.7407 15.5185 42.6905 15.611 42.6292 15.714L42.5177 15.9012L42.3346 16.0827C42.234 16.1824 42.1404 16.264 42.1268 16.264C42.1134 16.264 42.0516 16.2984 41.9897 16.3404L41.8772 16.4167L41.6295 16.495L41.3819 16.5733L41.1377 16.586ZM51.0765 17.4507L51.3666 17.4544L51.6415 17.4098C51.7926 17.3853 51.9849 17.3458 52.0689 17.322C52.1528 17.2982 52.3041 17.2366 52.4048 17.185L52.5881 17.0911L52.7457 16.9524L52.9032 16.8136L53.0693 16.5923C53.1606 16.4706 53.2432 16.3504 53.2529 16.3251L53.2706 16.2792L53.2552 16.432C53.2468 16.5159 53.2278 16.6534 53.213 16.7374C53.1982 16.8214 53.1771 16.9827 53.166 17.0962L53.1458 17.3022H53.7449H54.3438V17.0962V16.89L54.435 16.1113C54.4852 15.6831 54.5594 15.1129 54.5999 14.8442C54.6404 14.5754 54.703 14.1908 54.739 13.9893C54.7748 13.7877 54.8385 13.4236 54.8802 13.1801C54.9222 12.9366 54.9977 12.5106 55.0482 12.2336C55.0987 11.9564 55.1796 11.5168 55.2279 11.2565C55.2762 10.9961 55.3514 10.5908 55.3948 10.3557C55.4382 10.1206 55.516 9.70834 55.5677 9.4397C55.6196 9.17098 55.695 8.79307 55.7355 8.59989C55.7762 8.40689 55.8094 8.23845 55.8093 8.22595V8.20297H55.1558H54.5023L54.4831 8.39386C54.4725 8.49881 54.4224 8.84573 54.3719 9.1649C54.3214 9.4839 54.239 9.9923 54.1888 10.2946C54.1386 10.5968 54.0904 10.89 54.0815 10.946L54.0651 11.0478L54.0136 11.0259C53.9852 11.0138 53.8314 10.9711 53.6719 10.9311L53.3819 10.8583L52.985 10.8273L52.588 10.7964L52.2521 10.8277L51.9163 10.859L51.6109 10.9363L51.3056 11.0134L51.0155 11.1549L50.7253 11.2964L50.5116 11.4545L50.2979 11.6127L50.1133 11.8108C50.0118 11.9196 49.8652 12.0997 49.7873 12.2109L49.6461 12.413L49.48 12.7583C49.3888 12.9484 49.2777 13.1999 49.2332 13.3175C49.1887 13.4351 49.1103 13.6956 49.0588 13.8965L48.9654 14.262L48.9193 14.7364L48.8733 15.2106L48.9078 15.5923L48.9425 15.974L48.9833 16.1113C49.0059 16.187 49.0532 16.3216 49.0887 16.4105L49.1531 16.5724L49.2707 16.7315L49.3883 16.8906L49.5225 17.0005L49.6567 17.1105L49.8399 17.2015C49.9407 17.2515 50.1097 17.3162 50.2155 17.3452C50.3213 17.3741 50.493 17.409 50.5972 17.4225C50.7013 17.436 50.9169 17.4488 51.0765 17.4507ZM51.5972 16.5846L51.3666 16.5967L51.2111 16.5686C51.1255 16.5533 50.9886 16.5119 50.9067 16.4769L50.758 16.4132L50.6328 16.3106L50.5077 16.2081L50.4147 16.03L50.3217 15.8518L50.2792 15.6534L50.2369 15.4548L50.2405 15.0579L50.244 14.661L50.2933 14.3098L50.3425 13.9587L50.419 13.7145C50.4611 13.5801 50.4958 13.4533 50.4959 13.4327C50.4963 13.4122 50.5377 13.3023 50.5883 13.1885C50.6389 13.0747 50.7232 12.8992 50.7759 12.7984C50.8285 12.6976 50.9269 12.5406 50.9945 12.4494C51.0622 12.3582 51.1827 12.2207 51.2623 12.1439C51.3419 12.0673 51.4684 11.9666 51.5437 11.9204L51.6804 11.8363L51.9205 11.7532L52.1605 11.6701L52.6643 11.6698H53.1681L53.4582 11.7504C53.6178 11.7946 53.7872 11.8459 53.8347 11.8644L53.921 11.8979L53.9042 11.9818C53.895 12.0279 53.8586 12.2305 53.8236 12.4319C53.7885 12.6335 53.7193 13.0183 53.6699 13.287C53.6205 13.5557 53.5446 13.9611 53.5012 14.1877C53.4579 14.4145 53.3951 14.703 53.3617 14.8289C53.3283 14.9549 53.2811 15.1293 53.2569 15.2166C53.2327 15.3038 53.1751 15.4551 53.1289 15.5525C53.0826 15.65 53.0017 15.7915 52.9491 15.8671C52.8964 15.9426 52.8075 16.0474 52.7513 16.0997C52.6951 16.1522 52.5735 16.2452 52.4812 16.3065L52.3133 16.4182L52.0705 16.4952L51.8278 16.5723L51.5972 16.5846ZM6.65845 17.3022H7.40026L7.45353 16.974C7.48276 16.7934 7.53999 16.4464 7.58058 16.203C7.62117 15.9595 7.69681 15.506 7.74849 15.1954C7.80026 14.8846 7.87792 14.4243 7.92098 14.1725C7.96403 13.9206 8.03254 13.5298 8.07304 13.3042C8.11363 13.0783 8.15457 12.886 8.1639 12.8766L8.18107 12.8595H10.176H12.1708L12.193 12.8816L12.2152 12.9038L12.1805 13.0801C12.1616 13.1771 12.1053 13.4762 12.0556 13.7449C12.0058 14.0137 11.9222 14.4671 11.8696 14.7526C11.8172 15.0381 11.7413 15.4435 11.7011 15.6534C11.6608 15.8633 11.5792 16.3029 11.5199 16.6305C11.4606 16.9579 11.4122 17.243 11.4124 17.2641L11.4127 17.3022H12.1576H12.9026L12.9355 17.1114C12.9538 17.0064 12.9828 16.8175 13.0004 16.6916C13.0179 16.5656 13.0602 16.2975 13.0943 16.0961C13.1284 15.8946 13.1964 15.496 13.2456 15.2106C13.2948 14.9251 13.3772 14.4373 13.4286 14.1266C13.48 13.8159 13.5563 13.3625 13.5982 13.1191C13.6399 12.8754 13.7145 12.4633 13.7637 12.203C13.8129 11.9427 13.895 11.503 13.9461 11.2259C13.9971 10.9489 14.0735 10.5297 14.1159 10.2946C14.1583 10.0595 14.2357 9.6335 14.2878 9.34804C14.3399 9.06259 14.4057 8.72941 14.4339 8.60755L14.4854 8.3862H13.7311H12.9768L12.9563 8.5313C12.9451 8.61099 12.9087 8.83437 12.8754 9.02746C12.842 9.22064 12.7816 9.56403 12.7409 9.79075C12.7003 10.0176 12.6259 10.4503 12.5758 10.7527C12.5256 11.0549 12.4616 11.455 12.4336 11.6419L12.3828 11.9815L11.2755 12.0039L10.1682 12.0263L9.24092 12.0043C8.73085 11.9922 8.31068 11.9798 8.30716 11.977C8.30373 11.974 8.32107 11.8554 8.34572 11.7133C8.37047 11.5712 8.41713 11.3243 8.44953 11.1648C8.48194 11.0053 8.54339 10.6893 8.58601 10.4625C8.62871 10.2358 8.67696 9.95417 8.69343 9.83662C8.70981 9.71908 8.74423 9.52326 8.76985 9.4014C8.79548 9.27972 8.84408 9.02323 8.87789 8.83155C8.91161 8.63987 8.94763 8.46122 8.95793 8.43462L8.97642 8.3862H8.22827H7.48003L7.43222 8.65343C7.4058 8.80038 7.37067 9.00985 7.35412 9.11903C7.33748 9.22821 7.28174 9.57855 7.23024 9.89764C7.17873 10.2167 7.10265 10.6908 7.06118 10.9511C7.01971 11.2114 6.94434 11.6855 6.89363 12.0045C6.84273 12.3236 6.759 12.8182 6.70731 13.1037C6.65572 13.3893 6.58096 13.7946 6.54117 14.0045C6.50146 14.2144 6.42582 14.6129 6.37299 14.89C6.32025 15.1672 6.24303 15.5587 6.20174 15.7603C6.16036 15.9617 6.11466 16.1953 6.10022 16.2792C6.0856 16.3632 6.03841 16.6055 5.99509 16.8175C5.95186 17.0295 5.91646 17.2252 5.91646 17.2526V17.3022H6.65845ZM14.8715 17.3022H15.5282L15.5467 17.2539C15.557 17.2273 15.5653 17.1576 15.5653 17.0991C15.5653 17.0405 15.6067 16.7359 15.657 16.4221C15.7076 16.1084 15.7909 15.5976 15.8425 15.2869C15.8939 14.9763 15.9699 14.5228 16.0113 14.2793C16.0528 14.0358 16.1264 13.6306 16.175 13.3785C16.2236 13.1267 16.2983 12.735 16.3409 12.5084C16.3834 12.2816 16.4672 11.8503 16.527 11.5498C16.5868 11.2493 16.6432 10.9915 16.6522 10.9768L16.6689 10.9499L16.0047 10.9581L15.3406 10.9663L15.2851 11.3633C15.2548 11.5817 15.1883 12.0145 15.1374 12.3251C15.0866 12.6358 15.0096 13.1099 14.9664 13.3785C14.9231 13.6473 14.8479 14.08 14.7991 14.3404C14.7502 14.6007 14.6754 14.9991 14.6327 15.2258C14.59 15.4526 14.5135 15.8511 14.4626 16.1113C14.4117 16.3717 14.3435 16.7152 14.3109 16.8747C14.2783 17.0343 14.2433 17.1957 14.2331 17.2335L14.2147 17.3022H14.8715ZM30.2324 17.3022H30.8843L30.9039 17.0263C30.9147 16.8747 30.9515 16.5689 30.9859 16.3469C31.0202 16.125 31.0905 15.6824 31.1421 15.3634C31.1937 15.0442 31.2894 14.5131 31.355 14.183C31.4206 13.853 31.4947 13.5249 31.5197 13.454C31.5448 13.383 31.5652 13.3063 31.5652 13.2833C31.5652 13.2602 31.6143 13.1348 31.6741 13.0046C31.734 12.8744 31.8457 12.675 31.9223 12.5616L32.0615 12.3552L32.2477 12.1826L32.434 12.0102L32.6637 11.9005L32.8934 11.7907L33.2447 11.7926L33.5957 11.7945L33.7684 11.846C33.8633 11.8743 33.9491 11.8976 33.9592 11.8976C33.9692 11.8976 33.9774 11.8652 33.9774 11.8255C33.9774 11.7858 34.0117 11.5847 34.0537 11.3785C34.0956 11.1724 34.1301 10.9951 34.1301 10.9844C34.1301 10.9738 34.0305 10.9348 33.9087 10.8978C33.7869 10.8608 33.6186 10.8221 33.5347 10.8116L33.382 10.7927L33.1836 10.8279C33.0744 10.8472 32.9121 10.8898 32.8229 10.9226C32.7336 10.9554 32.5863 11.0297 32.4955 11.0878C32.4047 11.146 32.2634 11.2592 32.1816 11.3394C32.0996 11.4197 31.9619 11.5817 31.8755 11.6992C31.789 11.8168 31.6987 11.9405 31.6747 11.974L31.631 12.035L31.6575 11.913C31.6721 11.8457 31.7128 11.6259 31.7478 11.4244C31.7829 11.2229 31.8191 11.0338 31.8279 11.0046L31.8442 10.9511H31.262H30.6797V11.0247C30.6797 11.0652 30.6453 11.309 30.6034 11.5666C30.5614 11.8243 30.4921 12.2549 30.4495 12.5236C30.4068 12.7923 30.3311 13.2595 30.2813 13.5618C30.2315 13.8641 30.1557 14.2969 30.113 14.5235C30.0703 14.7503 29.9946 15.1488 29.9446 15.4091C29.8948 15.6693 29.8117 16.0954 29.7604 16.3557C29.709 16.616 29.6474 16.9233 29.6237 17.0388C29.5999 17.1542 29.5805 17.2606 29.5805 17.2753V17.3022H30.2324ZM45.7078 17.3022H46.3743V17.0983V16.8942L46.4511 16.3882C46.4934 16.1101 46.5631 15.6693 46.606 15.4091C46.649 15.1488 46.7025 14.819 46.7249 14.6762C46.7475 14.5335 46.807 14.2244 46.8572 13.9893C46.9077 13.7541 46.9705 13.5 46.997 13.4243C47.0235 13.3488 47.0453 13.2695 47.0456 13.2482C47.0459 13.2269 47.1027 13.0897 47.1718 12.9433L47.2977 12.6772L47.4637 12.4566L47.6297 12.2361L47.8113 12.0996C47.9112 12.0244 48.0719 11.9248 48.1684 11.878L48.3438 11.7931L48.7254 11.7957L49.1071 11.7984L49.2574 11.8466L49.4076 11.8949L49.4329 11.8792L49.4582 11.8635L49.4596 11.7661C49.4602 11.7125 49.4929 11.5132 49.5322 11.323L49.6036 10.9773L49.5233 10.9459C49.4792 10.9286 49.3744 10.8929 49.2904 10.8664L49.1377 10.8183L48.8629 10.8191L48.5881 10.8197L48.3641 10.8986L48.1401 10.9773L47.9719 11.0787L47.8039 11.1802L47.5851 11.4092L47.3665 11.6381L47.2491 11.8158C47.1845 11.9135 47.1276 11.9891 47.1227 11.9837C47.1178 11.9784 47.1529 11.7748 47.2007 11.5313C47.2485 11.2878 47.2883 11.0576 47.289 11.0198L47.2904 10.9511H46.7254H46.1606V10.9706C46.1606 10.9813 46.1324 11.1771 46.098 11.4057C46.0636 11.6343 45.9944 12.0755 45.9445 12.3863C45.8943 12.6969 45.8123 13.1984 45.7619 13.5008C45.7116 13.803 45.6357 14.2359 45.5933 14.4626C45.551 14.6893 45.4757 15.0878 45.426 15.348C45.3764 15.6084 45.2948 16.0275 45.2448 16.2794C45.1948 16.5312 45.1284 16.8645 45.0975 17.0198L45.0412 17.3022H45.7078ZM16.1629 9.85124L16.3482 9.85186L16.4956 9.80167L16.6431 9.75148L16.7735 9.61914L16.904 9.48689L16.9726 9.31053L17.0413 9.13426L17.0437 8.87469L17.0462 8.6153L16.9851 8.51387L16.924 8.41252L16.8178 8.34675L16.7114 8.28089H16.4819H16.2523L16.096 8.35089L15.9397 8.4208L15.8491 8.51801L15.7584 8.6153L15.687 8.78321L15.6158 8.95112L15.6023 9.21271L15.589 9.4743L15.6552 9.60435L15.7216 9.73431L15.8496 9.79242L15.9775 9.85045L16.1629 9.85124Z" fill="#B3131B"/>
</svg>
