<svg width="14" height="18" viewBox="0 0 14 18" fill="none" xmlns="http://www.w3.org/2000/svg">
<path d="M7 10.25C6.38193 10.25 5.77775 10.0667 5.26384 9.72334C4.74994 9.37996 4.3494 8.89191 4.11288 8.32089C3.87635 7.74987 3.81447 7.12154 3.93505 6.51534C4.05563 5.90915 4.35325 5.35233 4.79029 4.91529C5.22733 4.47825 5.78415 4.18063 6.39034 4.06005C6.99654 3.93947 7.62487 4.00135 8.19589 4.23788C8.76691 4.4744 9.25496 4.87494 9.59834 5.38884C9.94172 5.90275 10.125 6.50693 10.125 7.125C10.124 7.9535 9.79445 8.74778 9.20861 9.33361C8.62278 9.91945 7.8285 10.249 7 10.25ZM7 5.25C6.62916 5.25 6.26665 5.35997 5.95831 5.566C5.64997 5.77202 5.40964 6.06486 5.26773 6.40747C5.12581 6.75008 5.08868 7.12708 5.16103 7.4908C5.23338 7.85451 5.41195 8.1886 5.67418 8.45083C5.9364 8.71305 6.27049 8.89163 6.63421 8.96397C6.99792 9.03632 7.37492 8.99919 7.71753 8.85728C8.06014 8.71536 8.35298 8.47504 8.55901 8.1667C8.76504 7.85835 8.875 7.49584 8.875 7.125C8.87451 6.62787 8.6768 6.15125 8.32528 5.79972C7.97376 5.4482 7.49713 5.2505 7 5.25Z" fill="black"/>
<path d="M7.00001 17.75L1.72751 11.5319C1.65425 11.4385 1.58174 11.3445 1.51001 11.25C0.60937 10.0636 0.122824 8.61452 0.125007 7.125C0.125007 5.30164 0.849336 3.55295 2.13865 2.26364C3.42796 0.974328 5.17664 0.25 7.00001 0.25C8.82337 0.25 10.5721 0.974328 11.8614 2.26364C13.1507 3.55295 13.875 5.30164 13.875 7.125C13.8772 8.61384 13.3909 10.0623 12.4906 11.2481L12.49 11.25C12.49 11.25 12.3025 11.4963 12.2744 11.5294L7.00001 17.75ZM2.50751 10.4969C2.50876 10.4969 2.65376 10.6894 2.68688 10.7306L7.00001 15.8175L11.3188 10.7237C11.3463 10.6894 11.4925 10.4956 11.4931 10.495C12.2289 9.5257 12.6265 8.34189 12.625 7.125C12.625 5.63316 12.0324 4.20242 10.9775 3.14752C9.92259 2.09263 8.49185 1.5 7.00001 1.5C5.50816 1.5 4.07742 2.09263 3.02253 3.14752C1.96764 4.20242 1.37501 5.63316 1.37501 7.125C1.3737 8.34265 1.77174 9.52713 2.50813 10.4969H2.50751Z" fill="black"/>
</svg>
