<svg width="29" height="28" viewBox="0 0 29 28" fill="none" xmlns="http://www.w3.org/2000/svg">
<path d="M14.7719 0.15332C11.1142 0.199967 7.61942 1.67373 5.03281 4.26034C2.44619 6.84696 0.972428 10.3417 0.925781 13.9995C0.94288 16.1303 1.45155 18.2284 2.41218 20.1304C3.37282 22.0325 4.75949 23.6872 6.46424 24.9656V25.0764H6.6027C8.94711 26.8729 11.8183 27.8465 14.7719 27.8465C17.7255 27.8465 20.5968 26.8729 22.9412 25.0764H23.0796V24.9656C24.7844 23.6872 26.1711 22.0325 27.1317 20.1304C28.0923 18.2284 28.601 16.1303 28.6181 13.9995C28.5714 10.3417 27.0977 6.84696 24.5111 4.26034C21.9244 1.67373 18.4297 0.199967 14.7719 0.15332V0.15332ZM9.3304 23.5949C9.53253 22.6692 10.0451 21.8404 10.783 21.246C11.5209 20.6517 12.4398 20.3275 13.3873 20.3272H16.1566C17.1041 20.3275 18.023 20.6517 18.7609 21.246C19.4988 21.8404 20.0113 22.6692 20.2135 23.5949C18.5642 24.5652 16.6855 25.0769 14.7719 25.0769C12.8584 25.0769 10.9797 24.5652 9.3304 23.5949V23.5949ZM22.5396 21.8087C22.013 20.55 21.1261 19.475 19.9904 18.7187C18.8548 17.9625 17.521 17.5586 16.1566 17.5579H13.3873C12.0229 17.5586 10.6891 17.9625 9.55343 18.7187C8.41777 19.475 7.53091 20.55 7.00424 21.8087C5.9667 20.7882 5.14041 19.5733 4.5726 18.2334C4.00479 16.8934 3.70658 15.4547 3.69501 13.9995C3.73093 11.0728 4.90949 8.27621 6.97908 6.20662C9.04867 4.13702 11.8453 2.95846 14.7719 2.92255C17.6986 2.95846 20.4952 4.13702 22.5648 6.20662C24.6344 8.27621 25.8129 11.0728 25.8489 13.9995C25.8373 15.4547 25.5391 16.8934 24.9713 18.2334C24.4035 19.5733 23.5772 20.7882 22.5396 21.8087V21.8087Z" fill="#846E60" fill-opacity="0.9"/>
<path d="M14.7719 5.6919C14.0399 5.67485 13.312 5.80645 12.6324 6.07875C11.9527 6.35104 11.3353 6.75838 10.8176 7.27611C10.2999 7.79384 9.89255 8.41121 9.62025 9.09087C9.34795 9.77054 9.21635 10.4984 9.2334 11.2304C9.21635 11.9623 9.34795 12.6902 9.62025 13.3698C9.89255 14.0495 10.2999 14.6669 10.8176 15.1846C11.3353 15.7023 11.9527 16.1097 12.6324 16.382C13.312 16.6543 14.0399 16.7859 14.7719 16.7688C15.5038 16.7859 16.2317 16.6543 16.9113 16.382C17.591 16.1097 18.2084 15.7023 18.7261 15.1846C19.2438 14.6669 19.6512 14.0495 19.9235 13.3698C20.1958 12.6902 20.3274 11.9623 20.3103 11.2304C20.3274 10.4984 20.1958 9.77054 19.9235 9.09087C19.6512 8.41121 19.2438 7.79384 18.7261 7.27611C18.2084 6.75838 17.591 6.35104 16.9113 6.07875C16.2317 5.80645 15.5038 5.67485 14.7719 5.6919ZM14.7719 13.9996C14.4035 14.0174 14.0355 13.958 13.6914 13.8251C13.3474 13.6922 13.0349 13.4889 12.7741 13.2281C12.5134 12.9673 12.31 12.6549 12.1771 12.3108C12.0443 11.9668 11.9848 11.5987 12.0026 11.2304C11.9848 10.862 12.0443 10.494 12.1771 10.1499C12.31 9.80587 12.5134 9.49342 12.7741 9.23263C13.0349 8.97185 13.3474 8.76849 13.6914 8.63562C14.0355 8.50276 14.4035 8.44332 14.7719 8.46113C15.1402 8.44332 15.5083 8.50276 15.8523 8.63562C16.1964 8.76849 16.5088 8.97185 16.7696 9.23263C17.0304 9.49342 17.2337 9.80587 17.3666 10.1499C17.4995 10.494 17.5589 10.862 17.5411 11.2304C17.5589 11.5987 17.4995 11.9668 17.3666 12.3108C17.2337 12.6549 17.0304 12.9673 16.7696 13.2281C16.5088 13.4889 16.1964 13.6922 15.8523 13.8251C15.5083 13.958 15.1402 14.0174 14.7719 13.9996Z" fill="#846E60" fill-opacity="0.9"/>
</svg>
