<svg width="23" height="23" viewBox="0 0 23 23" fill="none" xmlns="http://www.w3.org/2000/svg">
<path d="M11.5 0.25C5.28663 0.25 0.25 5.28663 0.25 11.5C0.25 16.2666 3.2155 20.3369 7.4005 21.976C7.30263 21.0861 7.21262 19.7204 7.43987 18.7495C7.64462 17.872 8.75838 13.1571 8.75838 13.1571C8.75838 13.1571 8.422 12.4833 8.422 11.4876C8.422 9.92275 9.32875 8.75612 10.4571 8.75612C11.4167 8.75612 11.8802 9.47725 11.8802 10.3401C11.8802 11.3054 11.266 12.7488 10.9488 14.0853C10.6833 15.2058 11.5101 16.1181 12.6149 16.1181C14.614 16.1181 16.1508 14.0099 16.1508 10.9668C16.1508 8.2735 14.2157 6.39025 11.4516 6.39025C8.251 6.39025 6.37225 8.791 6.37225 11.2728C6.37225 12.2391 6.74463 13.2764 7.20925 13.84C7.3015 13.9514 7.31388 14.0492 7.28688 14.1629C7.20138 14.5184 7.01238 15.2823 6.97525 15.4386C6.92688 15.6445 6.81213 15.6884 6.5995 15.5883C5.19438 14.9335 4.31575 12.8793 4.31575 11.23C4.31575 7.68175 6.89425 4.4215 11.7498 4.4215C15.6524 4.4215 18.6854 7.2025 18.6854 10.9195C18.6854 14.7974 16.2408 17.917 12.8477 17.917C11.7081 17.917 10.636 17.3241 10.2692 16.6255C10.2692 16.6255 9.7045 18.7731 9.56837 19.3008C9.31413 20.2773 8.629 21.5035 8.17 22.2505C9.22188 22.5734 10.3401 22.75 11.5 22.75C17.7122 22.75 22.75 17.7122 22.75 11.5C22.75 5.28775 17.7134 0.25 11.5 0.25Z" fill="white"/>
</svg>
