<?xml version="1.0" standalone="no"?>
<!DOCTYPE svg PUBLIC "-//W3C//DTD SVG 20010904//EN"
 "http://www.w3.org/TR/2001/REC-SVG-20010904/DTD/svg10.dtd">
<svg version="1.0" xmlns="http://www.w3.org/2000/svg"
 width="5120.000000pt" height="5120.000000pt" viewBox="0 0 5120.000000 5120.000000"
 preserveAspectRatio="xMidYMid meet">

<g transform="translate(0.000000,5120.000000) scale(0.100000,-0.100000)"
fill="#000000" stroke="none">
<path d="M24920 51189 c-4100 -111 -8035 -1172 -11605 -3127 -3193 -1748
-5998 -4179 -8189 -7096 -2812 -3743 -4531 -8145 -4996 -12791 -240 -2405
-142 -4842 291 -7210 550 -3009 1639 -5894 3219 -8525 2341 -3899 5693 -7122
9675 -9302 2669 -1462 5569 -2433 8565 -2867 1639 -238 3276 -318 4925 -241
3902 182 7665 1238 11080 3108 3215 1760 6035 4211 8235 7157 2784 3728 4489
8112 4950 12730 89 895 124 1622 124 2575 0 643 -8 945 -40 1495 -248 4329
-1584 8496 -3900 12161 -2760 4370 -6808 7831 -11529 9861 -3414 1468 -7093
2173 -10805 2072z m1955 -8914 c170 -44 304 -164 367 -331 l23 -59 3 -857 3
-857 57 -16 c490 -136 1061 -373 1457 -604 l70 -40 605 603 c556 555 610 606
670 634 156 72 306 69 463 -9 55 -27 162 -131 925 -892 475 -474 879 -886 898
-915 53 -79 76 -153 82 -258 3 -67 0 -107 -13 -150 -40 -141 -37 -137 -674
-777 l-595 -597 19 -33 c225 -380 459 -930 595 -1399 l43 -148 821 0 c893 0
897 -1 1013 -57 76 -37 182 -138 221 -210 65 -123 62 -56 62 -1405 0 -1067 -2
-1231 -15 -1283 -47 -179 -191 -323 -370 -370 -51 -13 -177 -15 -895 -15
l-836 0 -39 -132 c-132 -461 -332 -938 -577 -1380 l-43 -78 601 -602 c445
-448 607 -616 627 -654 79 -151 76 -341 -8 -489 -48 -86 -1765 -1801 -1840
-1838 -114 -57 -258 -73 -371 -43 -134 35 -138 39 -776 674 l-596 595 -89 -50
c-425 -240 -939 -454 -1390 -579 l-103 -28 0 -825 c0 -883 -1 -905 -50 -1002
-59 -117 -169 -217 -287 -262 l-58 -22 -1275 0 -1275 0 -58 22 c-118 45 -228
145 -287 262 -49 97 -50 119 -50 1002 l0 825 -102 29 c-460 127 -1037 370
-1436 603 l-44 25 -596 -595 c-513 -510 -606 -599 -661 -627 -156 -82 -327
-83 -486 -4 -75 37 -1792 1752 -1840 1838 -84 148 -87 338 -8 489 20 38 182
206 627 654 l601 602 -43 78 c-83 150 -243 474 -303 615 -110 255 -226 583
-290 815 l-22 82 -836 0 c-922 0 -893 -2 -1015 63 -78 41 -162 125 -203 203
-66 124 -63 53 -63 1402 0 1349 -3 1282 62 1405 39 72 145 173 221 210 116 56
119 57 1013 57 l821 0 28 98 c125 446 336 959 564 1366 34 60 61 112 61 115 0
3 -267 273 -593 601 -635 637 -632 633 -672 774 -13 43 -16 83 -13 150 6 105
29 179 82 258 19 29 423 441 898 915 763 761 870 865 925 892 157 78 307 81
463 9 60 -28 114 -79 670 -633 l605 -603 188 103 c385 211 890 415 1339 540
l57 16 3 857 3 857 23 59 c62 164 195 286 362 330 85 23 2468 23 2555 1z
m-6295 -18146 c87 -14 136 -37 346 -167 1234 -759 2595 -1215 4019 -1346 581
-54 1194 -54 1775 0 1365 126 2699 561 3880 1264 195 116 258 140 368 140 162
0 1126 -219 1824 -414 2215 -619 4014 -1482 5343 -2561 255 -207 401 -340 655
-594 475 -476 806 -901 1105 -1421 90 -156 497 -960 595 -1175 416 -913 760
-1848 1045 -2840 163 -566 160 -554 210 -1050 74 -737 98 -1055 99 -1315 1
-251 -4 -295 -60 -487 -82 -284 -286 -674 -419 -799 -57 -54 -85 -71 -218
-129 -1272 -561 -3058 -1070 -5082 -1449 -5210 -975 -12058 -1149 -17915 -455
-3103 367 -5742 961 -7670 1726 -293 117 -525 218 -583 255 -94 60 -189 192
-311 433 -103 201 -170 388 -211 582 -45 208 -26 585 85 1688 38 383 40 399
90 587 321 1213 782 2475 1279 3503 150 309 464 914 546 1050 164 273 336 522
529 765 1476 1855 4093 3249 7536 4015 406 90 983 202 1050 204 14 1 54 -4 90
-10z"/>
<path d="M24950 40496 c0 -472 -4 -794 -10 -827 -26 -143 -144 -297 -272 -357
-35 -17 -127 -44 -208 -62 -672 -146 -1299 -407 -1849 -768 -136 -89 -198
-113 -310 -120 -99 -6 -172 8 -261 51 -59 28 -117 83 -630 594 l-565 563 -460
-460 -460 -460 557 -558 c306 -306 568 -577 583 -601 65 -106 89 -253 61 -374
-19 -80 -35 -114 -119 -244 -146 -226 -279 -468 -385 -703 -179 -396 -268
-671 -395 -1222 -44 -190 -183 -334 -368 -383 -45 -12 -191 -15 -841 -15
l-788 0 0 -650 0 -649 803 -3 802 -3 60 -23 c121 -46 229 -138 285 -244 22
-40 43 -112 71 -236 145 -648 378 -1221 713 -1750 39 -61 86 -136 104 -165 43
-68 63 -135 69 -227 7 -95 -8 -167 -53 -261 -34 -71 -62 -101 -595 -634 l-559
-560 460 -460 460 -460 562 562 c618 616 607 607 762 640 151 32 259 1 463
-130 568 -364 1163 -608 1846 -756 164 -36 234 -70 318 -154 66 -66 123 -171
139 -256 6 -33 10 -355 10 -827 l0 -774 650 0 650 0 0 775 c0 533 3 790 11
827 26 121 92 224 196 305 66 51 129 76 281 108 659 142 1290 403 1846 765
159 104 211 123 341 124 108 1 170 -14 255 -61 28 -16 259 -239 608 -587 l562
-561 460 460 460 460 -559 560 c-537 538 -560 563 -594 635 -63 133 -72 265
-28 394 12 32 59 118 105 190 371 582 626 1201 760 1846 33 159 75 248 155
327 32 33 86 74 120 91 114 61 117 62 969 62 l772 0 0 650 0 650 -783 0 c-853
0 -834 -1 -955 58 -31 15 -85 55 -119 88 -86 84 -122 164 -167 370 -144 651
-407 1282 -751 1804 -78 119 -101 164 -120 237 -29 109 -16 226 37 343 27 60
69 105 596 633 l567 567 -460 460 -460 460 -560 -559 c-522 -520 -565 -560
-632 -594 -93 -46 -168 -61 -268 -54 -105 7 -169 32 -312 124 -584 374 -1209
632 -1862 768 -72 15 -152 39 -189 57 -82 39 -186 141 -224 220 -59 121 -58
102 -58 955 l0 783 -650 0 -650 0 0 -774z m1000 -2767 c747 -65 1466 -357
2067 -838 133 -106 375 -341 496 -480 850 -984 1144 -2335 782 -3586 -232
-799 -719 -1502 -1391 -2008 -485 -364 -1052 -608 -1659 -711 -239 -41 -357
-50 -645 -50 -363 0 -597 27 -926 108 -1435 354 -2548 1513 -2843 2961 -177
872 -53 1757 358 2550 189 364 382 625 691 936 320 321 600 526 990 723 634
322 1355 459 2080 395z"/>
<path d="M25397 36719 c-683 -46 -1333 -349 -1817 -846 -136 -139 -194 -208
-288 -340 -268 -382 -434 -805 -498 -1273 -24 -174 -24 -549 0 -720 89 -640
361 -1194 806 -1640 528 -530 1252 -830 2000 -830 748 0 1472 300 2000 830
445 446 717 1000 806 1640 24 171 24 535 0 715 -61 464 -228 895 -498 1278
-94 132 -152 201 -288 340 -491 505 -1129 798 -1837 847 -164 11 -214 11 -386
-1z"/>
<path d="M20300 23073 c-2955 -570 -5310 -1595 -6838 -2976 -297 -268 -648
-650 -870 -947 -230 -306 -380 -555 -599 -994 -80 -160 -149 -295 -153 -301
-4 -5 -55 -109 -113 -230 -460 -967 -859 -2053 -1156 -3153 l-70 -257 -40
-410 c-66 -668 -84 -916 -85 -1135 l-1 -205 33 -85 c18 -47 52 -120 75 -164
40 -76 44 -80 102 -103 33 -14 138 -56 232 -94 2795 -1124 7209 -1857 12303
-2044 898 -33 1324 -39 2480 -39 1155 0 1580 6 2480 39 5090 186 9508 921
12303 2044 94 38 199 80 232 94 58 23 62 27 102 103 23 44 57 117 75 164 l33
85 -1 205 c-1 219 -19 467 -85 1135 l-40 410 -70 260 c-296 1092 -693 2176
-1155 3148 -58 122 -110 227 -114 232 -5 6 -70 133 -145 284 -153 307 -248
476 -370 660 -1226 1857 -3877 3313 -7491 4115 -137 31 -259 56 -270 56 -11 0
-105 -47 -209 -106 -1384 -769 -2860 -1196 -4475 -1295 -239 -15 -893 -15
-1130 0 -1335 82 -2511 369 -3718 908 -275 123 -733 362 -1019 534 -72 43
-138 78 -145 78 -7 -1 -47 -8 -88 -16z"/>
</g>
</svg>
