<svg width="216" height="60" viewBox="0 0 216 60" fill="none" xmlns="http://www.w3.org/2000/svg">
<path d="M109.95 34.9107H109.665C108.782 37.0766 107.642 38.6441 104.621 38.6441H98.5222V30.0944H103.965C104.735 30.1229 105.333 30.7499 105.333 31.5194V31.9183H105.618V27.4155H105.333V27.843C105.333 28.6125 104.706 29.2395 103.937 29.2395H98.5222V20.4333H101.771C102.683 20.4903 103.367 21.2313 103.367 22.1432V22.6277L103.652 22.6562V20.3478V19.8918V19.0369C103.139 19.2649 101.486 19.5499 100.261 19.5499H94.5039V19.8348H94.8744C95.8148 19.8348 96.6698 20.5758 96.6698 21.4878V37.4471C96.6698 38.4161 95.8433 39.2425 94.8459 39.2425H94.5039V39.5275H108.297L109.95 34.9107ZM114.978 25.9336C114.066 25.0786 113.838 24.0527 113.838 23.2832C113.838 21.5733 115.235 20.0058 117.343 20.0058C119.11 20.0058 120.535 21.1173 120.535 22.9412H120.82V19.4644H119.68C118.911 19.2934 117.999 19.1509 117.229 19.1509C113.981 19.1509 112.242 21.5733 112.242 23.9672C112.242 25.0786 112.613 26.4466 113.781 27.501L119.224 32.5738C119.937 33.2293 120.336 34.1127 120.336 35.2242C120.336 37.5041 118.597 38.929 116.517 39.043C113.981 39.1855 112.128 37.3331 112.413 34.3692H112.185C111.729 35.6517 111.644 37.4756 111.843 38.3591C112.955 39.5275 115.263 39.9265 116.659 39.9265C119.937 39.9265 122.017 37.7321 122.017 34.5972C122.017 33.4288 121.704 32.1748 120.564 31.1204L114.978 25.9336ZM127.648 19.5214C126.423 19.5214 124.741 19.2364 124.228 19.0084V22.5992H124.513V22.0863C124.513 21.1743 125.226 20.4333 126.138 20.3763H131.524V37.4756C131.496 38.4446 130.698 39.2425 129.7 39.2425H129.358L129.33 39.5275H135.571V39.2425H135.229C134.231 39.2425 133.433 38.4446 133.405 37.4471V20.3763H138.791C139.703 20.4333 140.416 21.1743 140.416 22.0863V22.5992H140.701V19.0084C140.159 19.2364 138.506 19.5214 137.281 19.5214H127.648ZM149.198 39.214H148.827C147.83 39.214 147.032 38.4161 147.004 37.4471V21.6303C147.032 20.6328 147.859 19.8348 148.827 19.8348H149.198V19.5499H142.985V19.8348H143.327C144.325 19.8348 145.151 20.6328 145.151 21.6303V37.4471C145.151 38.4161 144.325 39.214 143.327 39.214H142.985V39.499H149.198V39.214ZM165.781 34.9107C164.898 37.0766 163.758 38.6441 160.737 38.6441H156.633V21.6303C156.662 20.6613 157.46 19.8633 158.457 19.8633H158.827V19.5784H152.615V19.8633H152.957C153.954 19.8633 154.781 20.6613 154.781 21.6303V37.4471C154.781 38.4161 153.954 39.2425 152.957 39.2425H152.615V39.5275H164.413L166.066 34.9107H165.781ZM174.413 39.214H174.042C173.045 39.214 172.247 38.4161 172.218 37.4471V21.6303C172.247 20.6328 173.073 19.8348 174.042 19.8348H174.413V19.5499H168.2V19.8348H168.542C169.539 19.8348 170.366 20.6328 170.366 21.6303V37.4471C170.366 38.4161 169.539 39.214 168.542 39.214H168.2V39.499H174.413V39.214ZM181.747 25.9336C180.835 25.1641 180.522 24.2237 180.522 23.3402C180.522 21.4593 181.918 20.0058 183.97 20.0058C185.709 20.0058 187.247 21.0318 187.276 22.9412H187.532L187.475 19.4644H186.364C185.538 19.2934 184.569 19.1509 183.856 19.1509C180.636 19.1509 178.897 21.5733 178.897 23.9102C178.897 24.9361 179.239 26.4466 180.579 27.501L185.737 31.5479C190.211 35.1102 188.131 41.152 182.802 41.152C177.871 41.152 175.791 36.0222 178.926 31.9468L178.669 31.7473C174.765 35.9082 177.016 42.1779 183.315 42.1779C190.24 42.1779 192.719 34.5687 187.048 30.0944L181.747 25.9336ZM206.08 34.9107C205.197 37.0766 204.057 38.6441 201.036 38.6441H196.932V30.0944H201.777C202.546 30.1229 203.145 30.7499 203.145 31.5194V31.9183H203.43V27.4155H203.145V27.843C203.145 28.6125 202.518 29.2395 201.748 29.2395H196.932V20.4333H202.746C203.658 20.4903 204.342 21.2313 204.342 22.1432V22.6277L204.627 22.6562V20.3478V19.8918V19.0369C204.114 19.2649 202.461 19.5499 201.235 19.5499H192.914V19.8348H193.284C194.225 19.8348 195.08 20.5758 195.08 21.4878V37.4471C195.08 38.4161 194.253 39.2425 193.256 39.2425H192.914V39.5275H204.712L206.365 34.9107H206.08Z" fill="#846E60"/>
<path d="M96.4792 45.0613L95.4645 43.6897V46.6675H95.0821V43.0982H95.5002L96.7035 44.7248L97.9324 43.0982H98.3607V46.6675H97.9783V43.6693L96.9228 45.0613H96.4792ZM105.502 44.8828C105.502 44.6789 105.466 44.4885 105.395 44.3117C105.324 44.1316 105.227 43.9752 105.104 43.8426C104.982 43.7101 104.837 43.6047 104.671 43.5265C104.504 43.4483 104.326 43.4092 104.135 43.4092C103.945 43.4092 103.767 43.4483 103.6 43.5265C103.433 43.6047 103.289 43.7101 103.167 43.8426C103.044 43.9752 102.947 44.1316 102.876 44.3117C102.805 44.4885 102.769 44.6789 102.769 44.8828C102.769 45.0868 102.805 45.2789 102.876 45.459C102.947 45.6358 103.046 45.7905 103.172 45.923C103.298 46.0556 103.444 46.161 103.61 46.2392C103.777 46.3173 103.954 46.3564 104.141 46.3564C104.331 46.3564 104.508 46.3173 104.671 46.2392C104.837 46.161 104.982 46.0556 105.104 45.923C105.227 45.7905 105.324 45.6358 105.395 45.459C105.466 45.2789 105.502 45.0868 105.502 44.8828ZM102.381 44.8879C102.381 44.633 102.427 44.3933 102.519 44.169C102.611 43.9446 102.737 43.7509 102.896 43.5877C103.056 43.4211 103.243 43.2902 103.457 43.1951C103.671 43.0965 103.899 43.0472 104.141 43.0472C104.382 43.0472 104.608 43.0948 104.819 43.19C105.033 43.2851 105.218 43.416 105.374 43.5826C105.534 43.7492 105.66 43.9446 105.752 44.169C105.844 44.3899 105.889 44.6279 105.889 44.8828C105.889 45.1378 105.844 45.3774 105.752 45.6018C105.66 45.8227 105.534 46.0165 105.374 46.1831C105.218 46.3496 105.033 46.4805 104.819 46.5757C104.608 46.6709 104.382 46.7185 104.141 46.7185C103.899 46.7185 103.671 46.6709 103.457 46.5757C103.243 46.4805 103.056 46.3513 102.896 46.1882C102.737 46.0216 102.611 45.8278 102.519 45.6069C102.427 45.3825 102.381 45.1429 102.381 44.8879ZM110.291 43.45V46.3106H111.005C111.236 46.3106 111.445 46.2749 111.632 46.2035C111.819 46.1287 111.977 46.0284 112.106 45.9026C112.235 45.7735 112.334 45.6222 112.402 45.4488C112.473 45.2721 112.509 45.0834 112.509 44.8828C112.509 44.6823 112.473 44.4953 112.402 44.3219C112.334 44.1452 112.235 43.9922 112.106 43.863C111.977 43.7339 111.819 43.6336 111.632 43.5622C111.445 43.4874 111.236 43.45 111.005 43.45H110.291ZM109.908 46.6675V43.0931H111.005C111.287 43.0931 111.543 43.1407 111.775 43.2359C112.009 43.3276 112.208 43.4551 112.371 43.6183C112.538 43.7815 112.665 43.9718 112.754 44.1894C112.845 44.4069 112.891 44.6398 112.891 44.8879C112.891 45.1361 112.845 45.3689 112.754 45.5865C112.665 45.8007 112.538 45.9893 112.371 46.1525C112.208 46.3123 112.011 46.438 111.78 46.5298C111.548 46.6216 111.29 46.6675 111.005 46.6675H109.908ZM118.284 43.5775L117.626 45.2398H118.942L118.284 43.5775ZM118.498 43.0982L119.911 46.6675H119.508L119.085 45.5967H117.484L117.06 46.6675H116.658L118.07 43.0982H118.498ZM128.527 43.0931H130.933V43.45H128.909V44.5259H130.684V44.8828H128.909V46.6675H128.527V43.0931ZM134.929 46.6675V43.0982H137.331V43.4551H135.311V44.5259H137.086V44.8828H135.311V46.3106H137.331V46.6675H134.929ZM142.749 45.0613L141.734 43.6897V46.6675H141.352V43.0982H141.77L142.973 44.7248L144.202 43.0982H144.63V46.6675H144.248V43.6693L143.192 45.0613H142.749ZM149.293 43.0982V46.6675H148.911V43.0982H149.293ZM153.962 43.0982L156.139 46.0862V43.0982H156.521V46.6675H156.098L153.916 43.6744V46.6675H153.533V43.0982H153.962ZM161.127 43.0982V46.6675H160.744V43.0982H161.127ZM165.795 43.0982L167.972 46.0862V43.0982H168.355V46.6675H167.932L165.749 43.6744V46.6675H165.367V43.0982H165.795ZM173.897 43.5775L173.24 45.2398H174.555L173.897 43.5775ZM174.112 43.0982L175.524 46.6675H175.121L174.698 45.5967H173.097L172.674 46.6675H172.271L173.683 43.0982H174.112Z" fill="#F595A8"/>
<path d="M62.9094 39.9844C62.3126 39.9844 62.1989 40.9157 62.8045 40.9157C63.3991 40.9179 63.515 39.9844 62.9094 39.9844Z" fill="#FFB0BB"/>
<path d="M63.196 38.6551C63.0036 38.4955 62.6844 38.524 62.4986 38.6748C62.4942 38.6792 62.4876 38.6835 62.4833 38.6879C62.3215 38.8191 62.2297 39.0355 62.2625 39.2454C62.2646 39.2563 62.2668 39.2673 62.2668 39.276C62.3149 39.5711 62.5685 39.7832 62.8658 39.7766C63.1697 39.7701 63.3993 39.5471 63.4496 39.2498C63.4889 39.0093 63.3774 38.806 63.196 38.6551Z" fill="#FFB0BB"/>
<path d="M64.0921 41.283C63.8473 41.2874 63.6942 41.4951 63.7095 41.729L63.7117 41.7509C63.7248 41.9454 63.9238 42.0832 64.1031 42.0788C64.2889 42.0744 64.4725 41.928 64.4856 41.7334C64.4856 41.7268 64.4856 41.7181 64.4878 41.7115C64.5009 41.4798 64.3326 41.2787 64.0921 41.283Z" fill="#FFB0BB"/>
<path d="M64.4442 42.929C64.442 42.929 64.442 42.9268 64.4442 42.929C64.3677 42.6929 64.0397 42.5792 63.8255 42.682C63.7009 42.7432 63.6178 42.8372 63.5763 42.9487C63.5741 42.9487 63.5719 42.9465 63.5719 42.9465V42.9487C63.5544 43.0034 63.5479 43.0558 63.5479 43.1083C63.5479 43.1149 63.5479 43.1214 63.5479 43.128C63.5479 43.152 63.55 43.1739 63.5544 43.1979C63.5588 43.2329 63.5675 43.2657 63.5785 43.3007C63.6091 43.3969 63.6834 43.48 63.7643 43.5368C63.8211 43.5783 63.8911 43.6002 63.961 43.6089C63.9632 43.6089 63.9654 43.6089 63.9654 43.6089C63.9895 43.6111 64.0157 43.6111 64.0397 43.6089H64.0419C64.1512 43.6002 64.2562 43.5521 64.3261 43.4668C64.3786 43.4122 64.4245 43.351 64.4486 43.2788C64.4464 43.2788 64.4442 43.2766 64.442 43.2766C64.4792 43.1717 64.4835 43.0493 64.4442 42.929Z" fill="#FFB0BB"/>
<path d="M64.3068 44.1753C64.2412 44.1732 64.1756 44.1754 64.11 44.1841C63.6903 44.2344 63.7056 44.864 64.121 44.9143C64.1865 44.923 64.2521 44.9208 64.3177 44.9187C64.5035 44.9099 64.6391 44.7088 64.6369 44.5383C64.6347 44.3634 64.4948 44.1841 64.3068 44.1753Z" fill="#FFB0BB"/>
<path d="M63.4229 47.9354C63.2918 47.7868 63.0841 47.7387 62.9114 47.8217C62.7124 47.837 62.5244 48.001 62.5113 48.2043C62.496 48.4208 62.6512 48.6744 62.8917 48.6787C63.06 48.6809 63.2305 48.6503 63.3573 48.5279C63.5126 48.3748 63.5847 48.1191 63.4229 47.9354Z" fill="#FFB0BB"/>
<path d="M64.4944 46.6849C64.2976 46.6718 64.1424 46.7768 64.0572 46.9517C64.0025 47.0653 64.0091 47.1899 64.0047 47.3124C63.9981 47.5091 64.1031 47.6862 64.302 47.7321C64.49 47.7758 64.6933 47.6775 64.7633 47.4916C64.783 47.4392 64.8048 47.3867 64.8245 47.332C64.8595 47.2293 64.8682 47.144 64.8617 47.0347C64.8507 46.862 64.6671 46.6959 64.4944 46.6849Z" fill="#FFB0BB"/>
<path d="M64.4858 48.095C63.9087 48.095 63.7972 48.9957 64.3831 48.9957C64.9602 48.9957 65.0717 48.095 64.4858 48.095Z" fill="#FFB0BB"/>
<path d="M68.7207 40.968C68.2564 40.968 68.164 41.6931 68.6366 41.6931C69.0982 41.6931 69.1932 40.968 68.7207 40.968Z" fill="#FFB0BB"/>
<path d="M68.0822 39.6672C67.5881 39.6672 67.4919 40.439 67.9926 40.439C68.4866 40.439 68.5828 39.6672 68.0822 39.6672Z" fill="#FFB0BB"/>
<path d="M66.6937 36.9958C66.1341 36.9958 66.0248 37.8703 66.5932 37.8703C67.1528 37.8703 67.2621 36.9958 66.6937 36.9958Z" fill="#FFB0BB"/>
<path d="M66.3803 35.8865C65.8206 35.8865 65.7113 36.761 66.2797 36.761C66.8394 36.761 66.9487 35.8865 66.3803 35.8865Z" fill="#FFB0BB"/>
<path d="M72.5412 44.7632C72.0126 44.7632 71.9083 45.5702 72.4464 45.5702C72.975 45.5702 73.0793 44.7632 72.5412 44.7632Z" fill="#FFB0BB"/>
<path d="M73.6106 44.3807C73.0575 44.3895 72.9657 45.2705 73.5276 45.2618C74.0785 45.2508 74.1703 44.3698 73.6106 44.3807Z" fill="#FFB0BB"/>
<path d="M74.3051 43.4182C73.6004 43.4182 73.4618 44.2252 74.1781 44.2252C74.8857 44.2252 75.0214 43.4182 74.3051 43.4182Z" fill="#FFB0BB"/>
<path d="M75.6873 43.2766C75.191 43.2766 75.0926 44.0527 75.5976 44.0527C76.0961 44.0549 76.1923 43.2766 75.6873 43.2766Z" fill="#FFB0BB"/>
<path d="M76.7985 42.2012C76.1995 42.2012 76.0836 43.1369 76.6914 43.1369C77.2904 43.1369 77.4063 42.2012 76.7985 42.2012Z" fill="#FFB0BB"/>
<path d="M30.4692 56.8596C30.3336 56.8596 30.2177 56.8771 30.1084 56.9646C30.0144 57.0389 29.9357 57.1701 29.927 57.2925C29.9095 57.533 30.0844 57.8303 30.3577 57.8303C30.491 57.8303 30.6091 57.8128 30.7184 57.7253C30.8124 57.651 30.8911 57.5198 30.8998 57.3974C30.9173 57.1569 30.7424 56.8596 30.4692 56.8596Z" fill="#FFB0BB"/>
<path d="M30.1344 58.4468C29.8961 58.4468 29.6491 58.5867 29.6294 58.8512C29.6141 59.0764 29.7759 59.3519 30.0317 59.3519C30.27 59.3519 30.517 59.2119 30.5367 58.9474C30.552 58.7222 30.3902 58.4468 30.1344 58.4468Z" fill="#FFB0BB"/>
<path d="M28.7426 57.1371C28.104 57.1516 27.7483 57.9028 28.1403 58.4072C28.1475 58.4144 28.1548 58.4253 28.162 58.4326C28.4741 58.8354 29.0765 58.7773 29.3704 58.3999L29.3922 58.3745C29.7841 57.8665 29.3559 57.1262 28.7426 57.1371Z" fill="#FFB0BB"/>
<path d="M34.568 54.988C33.9625 54.988 33.8466 55.9325 34.4609 55.9325C35.0665 55.9325 35.1824 54.988 34.568 54.988Z" fill="#FFB0BB"/>
<path d="M36.3498 53.6479C35.7596 53.6479 35.6459 54.5705 36.2449 54.5705C36.8374 54.5727 36.951 53.6479 36.3498 53.6479Z" fill="#FFB0BB"/>
<path d="M34.3755 52.8471C34.3703 52.8341 34.3677 52.8212 34.3625 52.8082C34.2744 52.5255 33.9528 52.3284 33.6728 52.2999C33.4005 52.2714 33.1515 52.3725 32.9648 52.567C32.5733 52.9767 32.6796 53.7599 33.2682 53.9466C33.2812 53.9518 33.2942 53.9544 33.3045 53.9596C33.6287 54.0607 33.9632 54.001 34.2044 53.7469C34.4481 53.4928 34.4792 53.1738 34.3755 52.8471Z" fill="#FFB0BB"/>
<path d="M28.2563 0.648193C27.6048 0.648193 27.4758 1.66914 28.1382 1.66914C28.7919 1.66914 28.9209 0.648193 28.2563 0.648193Z" fill="#FFB0BB"/>
<path d="M22.1617 17.0903C21.9343 17.0903 21.7004 17.2237 21.6807 17.4751C21.6654 17.6893 21.8206 17.9517 22.0633 17.9517C22.2907 17.9517 22.5246 17.8183 22.5443 17.5669C22.5574 17.3527 22.4022 17.0903 22.1617 17.0903Z" fill="#FFB0BB"/>
<path d="M21.3199 18.5684C20.7842 18.5684 20.6793 19.4079 21.2237 19.4079C21.7593 19.4079 21.8642 18.5684 21.3199 18.5684Z" fill="#FFB0BB"/>
<path d="M34.0213 11.7256C33.8311 11.7256 33.6344 11.8393 33.6191 12.047C33.606 12.2262 33.7349 12.4448 33.9383 12.4448C34.1285 12.4448 34.3252 12.3312 34.3405 12.1235C34.3536 11.9442 34.2246 11.7256 34.0213 11.7256Z" fill="#FFB0BB"/>
<path d="M34.4393 10.1626C34.4305 10.1604 34.4218 10.1604 34.4152 10.1582C34.1463 10.1101 33.9102 10.3659 33.9146 10.6195C33.919 10.8818 34.1595 11.1048 34.4284 11.0567C34.4371 11.0546 34.4458 11.0546 34.4524 11.0524C34.6732 11.013 34.8372 10.825 34.835 10.5998C34.8306 10.3659 34.6623 10.2019 34.4393 10.1626Z" fill="#FFB0BB"/>
<path d="M34.4675 8.80713C34.3363 8.80713 34.2205 8.82462 34.1134 8.90988C34.0215 8.98421 33.9428 9.1132 33.9363 9.23344C33.9188 9.46954 34.0915 9.76249 34.3604 9.76249C34.4916 9.76249 34.6074 9.745 34.7146 9.65974C34.8064 9.58541 34.8851 9.45643 34.8916 9.33837C34.9069 9.09789 34.7364 8.80713 34.4675 8.80713Z" fill="#FFB0BB"/>
<path d="M34.4608 7.51074C33.9208 7.51074 33.8159 8.35461 34.3646 8.35461C34.9046 8.35461 35.0095 7.51074 34.4608 7.51074Z" fill="#FFB0BB"/>
<path d="M33.96 11.7322C33.3129 11.7322 33.1883 12.7444 33.8463 12.7444C34.4934 12.7444 34.618 11.7322 33.96 11.7322Z" fill="#FFB0BB"/>
<path d="M34.5966 6.60776C34.5922 6.59901 34.59 6.59027 34.5857 6.58152C34.4829 6.33011 34.1528 6.19238 33.9058 6.31262C33.6828 6.42193 33.4838 6.74549 33.6325 6.99471L33.6478 7.01876C33.7221 7.14337 33.7943 7.24175 33.9364 7.29641C34.0522 7.34013 34.2118 7.34232 34.3255 7.28766C34.5791 7.16086 34.7037 6.87447 34.5966 6.60776Z" fill="#FFB0BB"/>
<path d="M33.6215 2.33162C33.5516 2.08239 33.2783 1.86596 33.0072 1.93154C32.8258 1.97527 32.7099 2.04304 32.5918 2.18514C32.4519 2.35129 32.465 2.61801 32.5678 2.7929C32.6705 2.96342 32.911 3.11646 33.1187 3.05743C33.1821 3.03994 33.2477 3.02682 33.3067 3.00059C33.5625 2.88472 33.6959 2.60052 33.6215 2.33162Z" fill="#FFB0BB"/>
<path d="M31.9032 1.21436C31.7502 1.21436 31.6168 1.23403 31.4922 1.3346C31.3851 1.41986 31.2955 1.5707 31.2845 1.70843C31.2649 1.98389 31.466 2.32275 31.7764 2.32275C31.9294 2.32275 32.0628 2.30308 32.1874 2.20251C32.2945 2.11725 32.3842 1.96641 32.3951 1.82868C32.4148 1.5554 32.2158 1.21436 31.9032 1.21436Z" fill="#FFB0BB"/>
<path d="M30.3376 1.21875C30.1015 1.21875 29.8566 1.35867 29.8369 1.61882C29.8216 1.84181 29.9834 2.11509 30.2348 2.11509C30.4709 2.11509 30.7158 1.97517 30.7355 1.71502C30.7508 1.49202 30.5912 1.21875 30.3376 1.21875Z" fill="#FFB0BB"/>
<path d="M29.7976 1.10499C29.7626 1.04378 29.7276 0.98038 29.6883 0.923539C29.4981 0.65901 29.0958 0.674313 28.886 0.895118C28.6673 1.12467 28.6892 1.50507 28.9559 1.69526C28.9734 1.71057 28.9953 1.72368 29.0149 1.73462C29.2095 1.84611 29.4609 1.8789 29.6467 1.71713C29.802 1.57721 29.9135 1.30612 29.7976 1.10499Z" fill="#FFB0BB"/>
<path d="M17.1681 23.8371C16.3307 26.6682 15.9241 29.6218 15.9569 32.5731C15.9897 35.5376 16.4663 38.5021 17.3845 41.3223C18.2852 44.0878 19.6166 46.7134 21.3568 49.0461C23.2106 51.5296 25.5258 53.6721 28.1885 55.2636C30.8294 56.842 33.7742 57.8477 36.8064 58.3418C39.8583 58.8402 42.9802 58.8293 46.0474 58.486C49.3288 58.1188 52.5184 57.3252 55.5441 55.9872C58.502 54.6799 61.2544 52.9091 63.681 50.7732C65.9394 48.7859 67.9266 46.4817 69.5181 43.926C71.1075 41.3747 72.2967 38.5655 72.9067 35.6185C73.5254 32.6278 73.5232 29.5234 72.8608 26.5414C72.2399 23.7453 71.2015 21.0016 69.9357 18.4372C68.7486 16.0324 67.3035 13.75 65.5852 11.6885C63.9303 9.70341 62.0196 7.92385 59.8749 6.4744C57.774 5.05557 55.4545 3.96247 53.0103 3.29131C50.4809 2.5961 47.8379 2.35781 45.2232 2.54363C42.5102 2.73602 39.808 3.31754 37.2262 4.1636C34.6071 5.02277 32.0887 6.19238 29.7517 7.65495C27.4125 9.11969 25.2569 10.8861 23.3899 12.9193C21.4945 14.9831 19.8986 17.3245 18.694 19.8561C18.0819 21.1416 17.5747 22.4729 17.1681 23.8371C17.1506 23.8962 17.3976 23.8655 17.4195 23.7956C18.2305 21.0803 19.4526 18.4963 21.0463 16.1527C22.6007 13.8659 24.4983 11.8153 26.632 10.0576C28.7482 8.31518 31.0962 6.85699 33.584 5.70486C36.0784 4.54837 38.715 3.69576 41.4149 3.1667C44.0842 2.6442 46.8038 2.43432 49.5125 2.75351C52.0484 3.05302 54.5254 3.79195 56.8143 4.92002C59.0507 6.02186 61.1014 7.48442 62.9181 9.18965C64.8266 10.9823 66.4772 13.0395 67.8719 15.2541C69.3214 17.5562 70.4975 20.0266 71.4135 22.5866C72.4148 25.3849 73.1231 28.262 73.1187 31.2505C73.1144 34.2368 72.4716 37.1991 71.337 39.9559C70.2068 42.7018 68.6043 45.2443 66.6827 47.5048C64.7282 49.8069 62.4393 51.8247 59.9165 53.4819C57.0395 55.3707 53.8498 56.7874 50.5094 57.6181C47.4334 58.3811 44.1935 58.6915 41.0279 58.6063C37.9826 58.5232 34.9373 58.0117 32.0821 56.9317C29.1352 55.8167 26.4462 54.0984 24.1857 51.9034C22.1088 49.8878 20.408 47.5026 19.129 44.9076C17.8523 42.3192 16.9953 39.5296 16.5581 36.6766C16.1143 33.7908 16.099 30.8395 16.5144 27.9515C16.7155 26.5458 17.0216 25.1554 17.4238 23.7956C17.437 23.7344 17.1877 23.7672 17.1681 23.8371Z" fill="#817268"/>
<path d="M25.9216 8.76775C23.6174 10.5823 21.628 12.775 20.0299 15.2323C18.3968 17.7377 17.1747 20.5098 16.4249 23.4043C15.6707 26.3185 15.4018 29.3573 15.6554 32.3589C15.9111 35.3934 16.7025 38.3819 18.0164 41.1299C19.2472 43.7074 20.9262 46.0532 22.9025 48.1104C24.8897 50.1786 27.1655 51.9581 29.59 53.4863C32.3927 55.2527 35.379 56.6956 38.5774 57.5941C41.7167 58.4752 44.9938 58.8621 48.2512 58.7244C50.8833 58.6129 53.5024 58.1647 56.0121 57.3624C58.5021 56.5644 60.8851 55.4101 63.0035 53.871C65.1372 52.321 66.9801 50.3819 68.3749 48.1388C69.8658 45.7362 70.7425 43.0363 71.3765 40.2948C72.0039 37.5839 72.3428 34.8053 72.3471 32.0223C72.3515 29.3201 72.0389 26.6136 71.359 23.9968C70.6944 21.4367 69.6756 18.9663 68.294 16.7102C66.897 14.4322 65.1372 12.3837 63.0909 10.6654C60.8457 8.78087 58.266 7.32049 55.5814 6.16181C52.7984 4.95941 49.8646 4.10461 46.8651 3.663C43.9335 3.23013 40.9362 3.19952 38.0024 3.63676C35.0882 4.07181 32.2418 4.97908 29.6381 6.36075C28.322 7.0494 27.0825 7.85829 25.9216 8.76775ZM22.9834 11.6929C23.942 10.6451 24.9849 9.67306 26.0992 8.79381C26.107 8.7904 26.1136 8.78678 26.1184 8.78305C28.5079 6.91386 31.2253 5.48846 34.1263 4.59869C36.9815 3.72421 39.9765 3.35912 42.9584 3.44C45.9404 3.52308 48.9048 4.04121 51.7512 4.92224C54.6151 5.80765 57.3937 7.0494 59.9384 8.63876C62.2405 10.0773 64.3152 11.8743 66.04 13.9709C67.6972 15.9844 69.022 18.2624 69.9926 20.6803C70.9633 23.1004 71.5776 25.6583 71.8749 28.2467C72.1854 30.9488 72.1504 33.6859 71.8181 36.3837C71.4814 39.1208 70.8649 41.8623 69.9205 44.4573C68.9914 47.0064 67.5529 49.35 65.6881 51.3198C63.8932 53.2152 61.7355 54.7455 59.3941 55.8933C57.0199 57.0563 54.4643 57.8302 51.8562 58.2522C48.9988 58.7134 46.0759 58.7506 43.2055 58.3833C39.6792 57.9308 36.2316 56.8661 33.0682 55.2462C30.5388 53.9497 28.1209 52.3932 25.926 50.5874C23.742 48.7925 21.7744 46.7244 20.1829 44.383C18.5608 41.9978 17.3518 39.3438 16.6326 36.5499C15.8827 33.64 15.6532 30.6034 15.9308 27.6105C16.2063 24.6482 16.9824 21.7362 18.1935 19.021C19.3871 16.3451 21.0049 13.8572 22.9834 11.6929Z" fill="#817268"/>
<path d="M25.9216 8.76775C23.6174 10.5823 21.628 12.775 20.0299 15.2323C18.3968 17.7377 17.1747 20.5098 16.4249 23.4043C15.6707 26.3185 15.4018 29.3573 15.6554 32.3589C15.9111 35.3934 16.7025 38.3819 18.0164 41.1299C19.2472 43.7074 20.9262 46.0532 22.9025 48.1104C24.8897 50.1786 27.1655 51.9581 29.59 53.4863C32.3927 55.2527 35.379 56.6956 38.5774 57.5941C41.7167 58.4752 44.9938 58.8621 48.2512 58.7244C50.8833 58.6129 53.5024 58.1647 56.0121 57.3624C58.5021 56.5644 60.8851 55.4101 63.0035 53.871C65.1372 52.321 66.9801 50.3819 68.3749 48.1388C69.8658 45.7362 70.7425 43.0363 71.3765 40.2948C72.0039 37.5839 72.3428 34.8053 72.3471 32.0223C72.3515 29.3201 72.0389 26.6136 71.359 23.9968C70.6944 21.4367 69.6756 18.9663 68.294 16.7102C66.897 14.4322 65.1372 12.3837 63.0909 10.6654C60.8457 8.78087 58.266 7.32049 55.5814 6.16181C52.7984 4.95941 49.8646 4.10461 46.8651 3.663C43.9335 3.23013 40.9362 3.19952 38.0024 3.63676C35.0882 4.07181 32.2418 4.97908 29.6381 6.36075C28.322 7.0494 27.0825 7.85829 25.9216 8.76775ZM22.9834 11.6929C23.942 10.6451 24.9849 9.67306 26.0992 8.79381C26.107 8.7904 26.1136 8.78678 26.1184 8.78305C28.5079 6.91386 31.2253 5.48846 34.1263 4.59869C36.9815 3.72421 39.9765 3.35912 42.9584 3.44C45.9404 3.52308 48.9048 4.04121 51.7512 4.92224C54.6151 5.80765 57.3937 7.0494 59.9384 8.63876C62.2405 10.0773 64.3152 11.8743 66.04 13.9709C67.6972 15.9844 69.022 18.2624 69.9926 20.6803C70.9633 23.1004 71.5776 25.6583 71.8749 28.2467C72.1854 30.9488 72.1504 33.6859 71.8181 36.3837C71.4814 39.1208 70.8649 41.8623 69.9205 44.4573C68.9914 47.0064 67.5529 49.35 65.6881 51.3198C63.8932 53.2152 61.7355 54.7455 59.3941 55.8933C57.0199 57.0563 54.4643 57.8302 51.8562 58.2522C48.9988 58.7134 46.0759 58.7506 43.2055 58.3833C39.6792 57.9308 36.2316 56.8661 33.0682 55.2462C30.5388 53.9497 28.1209 52.3932 25.926 50.5874C23.742 48.7925 21.7744 46.7244 20.1829 44.383C18.5608 41.9978 17.3518 39.3438 16.6326 36.5499C15.8827 33.64 15.6532 30.6034 15.9308 27.6105C16.2063 24.6482 16.9824 21.7362 18.1935 19.021C19.3871 16.3451 21.0049 13.8572 22.9834 11.6929Z" stroke="#817268"/>
<path d="M21.7878 13.1533C24.5861 11.1376 27.8741 9.83249 31.2998 9.41493C32.2639 9.29687 33.2324 9.25315 34.203 9.27501C34.2861 9.2772 34.4763 9.15477 34.308 9.15259C30.797 9.0717 27.2904 9.90682 24.1794 11.529C23.2787 11.999 22.4152 12.5368 21.591 13.1293C21.4795 13.208 21.7331 13.1927 21.7878 13.1533Z" fill="#817268"/>
<path d="M25.2394 9.52207C26.9381 7.66818 28.534 5.72247 30.025 3.69806C30.0446 3.67183 29.8195 3.67838 29.7736 3.74178C28.2891 5.75745 26.6998 7.69223 25.0099 9.53956C24.9574 9.5964 25.1979 9.57017 25.2394 9.52207Z" fill="#817268"/>
<path d="M72.9296 34.0292C72.6826 36.6395 72.7241 39.2717 73.0542 41.8733C73.063 41.9498 73.3187 41.8951 73.3078 41.8055C72.9799 39.2149 72.9362 36.5958 73.181 33.9964C73.1898 33.9002 72.9362 33.9483 72.9296 34.0292Z" fill="#817268"/>
<path d="M73.045 41.8668C72.2602 42.6713 72.0131 43.9262 72.3826 44.9799C72.4219 45.0936 72.6755 45.0236 72.6362 44.9121C72.2842 43.9043 72.505 42.7128 73.2571 41.9411C73.3664 41.8296 73.1237 41.7859 73.045 41.8668Z" fill="#817268"/>
<path d="M72.9879 41.9279C72.6709 42.8461 72.9267 43.8015 73.3683 44.63C73.4186 44.7219 73.6612 44.6344 73.6 44.5207C73.1846 43.7424 72.9289 42.8133 73.2262 41.9498C73.2743 41.8164 73.0207 41.8273 72.9879 41.9279Z" fill="#817268"/>
<path d="M73.2592 41.8821C74.3719 41.259 75.723 41.5607 76.58 42.468C76.6434 42.5357 76.886 42.4417 76.8139 42.3674C75.8454 41.3399 74.3304 41.1103 73.0996 41.799C73.0537 41.8252 73.0384 41.8689 73.0799 41.9039C73.1236 41.9411 73.2176 41.9039 73.2592 41.8821Z" fill="#817268"/>
<path d="M73.1367 41.9038C74.2057 41.7617 75.0692 42.6493 75.4824 43.5391C75.5152 43.609 75.7601 43.526 75.736 43.4713C75.5065 42.975 75.1764 42.5138 74.7282 42.1924C74.2779 41.871 73.7291 41.7224 73.1782 41.7945C73.1454 41.7989 73.0317 41.8251 73.0317 41.8688C73.0317 41.9191 73.1039 41.9082 73.1367 41.9038Z" fill="#817268"/>
<path d="M73.1956 42.0023C73.5913 42.5598 73.8777 43.1872 74.0461 43.8497C74.0679 43.9393 74.3237 43.8715 74.2997 43.7819C74.127 43.1085 73.8318 42.4702 73.4296 41.9018C73.3815 41.834 73.1366 41.9193 73.1956 42.0023Z" fill="#817268"/>
<path d="M31.9452 9.08037C32.1879 8.11626 32.9924 7.27239 33.9958 7.11717C34.0505 7.10843 34.1314 7.08001 34.1358 7.01442C34.1401 6.95321 34.0702 6.92479 34.0177 6.93134C32.8853 7.10624 31.9649 7.99602 31.6872 9.10004C31.6588 9.22029 31.9168 9.19186 31.9452 9.08037Z" fill="#817268"/>
<path d="M31.927 9.06506C32.4627 8.40265 33.3043 8.18621 34.1241 8.19933C34.181 8.19933 34.2641 8.18403 34.2903 8.12281C34.3122 8.07034 34.2706 8.02443 34.216 8.02443C33.2912 8.01132 32.3227 8.24961 31.7172 8.99729C31.6188 9.1219 31.8593 9.15032 31.927 9.06506Z" fill="#817268"/>
<path d="M31.6519 9.18087C31.6737 10.556 32.546 11.8152 33.873 12.2262C33.9583 12.2525 34.1703 12.1279 34.0261 12.0819C32.7406 11.6841 31.9273 10.4314 31.9055 9.1131C31.9033 9.02784 31.6497 9.07812 31.6519 9.18087Z" fill="#817268"/>
<path d="M31.6474 9.15692C31.8288 9.64225 32.1808 10.0489 32.6268 10.309C33.1208 10.5976 33.698 10.6982 34.2642 10.6719C34.3057 10.6698 34.4129 10.6545 34.4325 10.6085C34.4522 10.5626 34.415 10.5539 34.3691 10.5561C33.3307 10.6042 32.2792 10.1035 31.8988 9.08915C31.8747 9.01919 31.6255 9.09571 31.6474 9.15692Z" fill="#817268"/>
<path d="M29.7307 3.94716C28.8125 3.3875 28.2988 2.28566 28.3928 1.22317C28.4037 1.09419 28.1457 1.12916 28.137 1.24285C28.0386 2.35343 28.5764 3.50774 29.5383 4.09145C29.6302 4.15048 29.8531 4.02149 29.7307 3.94716Z" fill="#817268"/>
<path d="M29.6999 3.94493C29.1905 3.17102 29.2146 2.20691 29.4288 1.33899C29.4572 1.22312 29.1993 1.25592 29.173 1.36085C28.9522 2.25938 28.9413 3.25191 29.4682 4.05205C29.525 4.14169 29.7677 4.04987 29.6999 3.94493Z" fill="#817268"/>
<path d="M29.6014 4.14839C30.9634 4.50911 32.3866 3.86637 33.0621 2.6421C33.1212 2.53279 32.8676 2.55465 32.826 2.63336C32.2161 3.73738 30.994 4.33421 29.7567 4.00628C29.667 3.98224 29.455 4.10903 29.6014 4.14839Z" fill="#817268"/>
<path d="M29.6316 4.12651C30.1672 4.06311 30.6635 3.78765 31.0242 3.38976C31.4155 2.95908 31.6407 2.4016 31.7478 1.83319C31.7609 1.76105 31.5095 1.80477 31.4964 1.87473C31.3193 2.81916 30.7291 3.89258 29.6753 4.0172C29.6425 4.02157 29.5289 4.0478 29.5289 4.09153C29.5267 4.14181 29.601 4.13088 29.6316 4.12651Z" fill="#817268"/>
<path d="M72.0218 33.9046C71.2085 37.2866 68.2069 39.2542 65.4195 40.9463C65.2731 41.0337 65.4982 41.0578 65.5748 41.0119C68.3971 39.2957 71.4512 37.2954 72.2754 33.8696C72.295 33.7843 72.0414 33.8237 72.0218 33.9046Z" fill="#817268"/>
<path d="M62.9336 39.2344C63.4561 39.3153 63.9458 39.523 64.3721 39.8356C64.5841 39.9931 64.7787 40.1767 64.9492 40.3778C65.1329 40.5964 65.2946 40.8347 65.3384 41.1211C65.3515 41.2129 65.6073 41.1539 65.592 41.0534C65.5111 40.509 65.0236 40.0433 64.6038 39.7307C64.1578 39.3984 63.6375 39.1732 63.0866 39.0902C63.0298 39.0814 62.9489 39.0902 62.9073 39.1383C62.8767 39.1754 62.8745 39.2257 62.9336 39.2344Z" fill="#817268"/>
<path d="M65.5001 40.9856C64.8487 40.3276 63.878 40.3691 63.032 40.4981C63.0057 40.5025 62.8833 40.5287 62.8833 40.5637C62.8833 40.6052 62.9576 40.5877 62.9839 40.5833C63.7774 40.4609 64.6563 40.4565 65.2619 41.0687C65.3034 41.1124 65.5329 41.0184 65.5001 40.9856Z" fill="#817268"/>
<path d="M65.3253 41.0578C64.9755 41.2765 64.5973 41.4492 64.1994 41.565C64.1557 41.5782 64.0792 41.6153 64.0923 41.6722C64.1054 41.729 64.1994 41.7246 64.2388 41.7115C64.6782 41.5803 65.098 41.3923 65.4871 41.1497C65.5286 41.1234 65.5549 41.0688 65.5046 41.036C65.4521 41.0054 65.3712 41.0294 65.3253 41.0578Z" fill="#817268"/>
<path d="M65.299 41.2087C65.3493 41.635 65.0607 42.0394 64.7962 42.3433C64.5338 42.645 64.2146 42.8942 63.8561 43.0713C63.8102 43.0932 63.7599 43.1478 63.7949 43.2003C63.8299 43.2506 63.9195 43.2418 63.9676 43.2178C64.3742 43.0167 64.735 42.7368 65.0301 42.3914C65.323 42.046 65.6094 41.6109 65.5526 41.1387C65.5395 41.025 65.2859 41.0863 65.299 41.2087Z" fill="#817268"/>
<path d="M65.3991 41.0994C65.9828 42.2908 65.5914 43.878 64.33 44.4508C64.1704 44.5229 64.3147 44.6104 64.4306 44.5579C65.7642 43.9545 66.2866 42.3324 65.6527 41.0316C65.6111 40.942 65.3619 41.0229 65.3991 41.0994Z" fill="#817268"/>
<path d="M66.3678 36.445C67.5374 36.4319 68.6174 37.2255 69.0831 38.277C69.1333 38.3907 69.3848 38.3164 69.3367 38.2093C68.8273 37.055 67.6642 36.2439 66.3897 36.257C66.2454 36.2592 66.1973 36.4472 66.3678 36.445Z" fill="#817268"/>
<path d="M66.7438 37.5381C67.5658 37.361 68.5059 37.7348 69.0218 38.3907C69.2863 38.7273 69.4263 39.1471 69.3935 39.5756C69.3476 40.1833 69.0021 40.7124 68.6545 41.1934C68.5802 41.2961 68.8382 41.2896 68.8928 41.2109C69.411 40.496 69.8941 39.6127 69.5159 38.7252C69.2339 38.0606 68.5868 37.6058 67.9047 37.4222C67.5112 37.3172 67.1024 37.2998 66.7045 37.385C66.5471 37.42 66.5886 37.573 66.7438 37.5381Z" fill="#817268"/>
<path d="M69.0113 38.3842C68.9916 38.9963 68.7162 39.6041 68.2243 39.9779C68.1827 40.0085 68.1587 40.0632 68.209 40.0982C68.2571 40.1331 68.3467 40.1135 68.3904 40.0807C68.9238 39.674 69.2474 39.0313 69.2671 38.3601C69.2693 38.2377 69.0135 38.2792 69.0113 38.3842Z" fill="#817268"/>
<path d="M29.1201 58.0563C30.7029 58.288 32.3141 58.1328 33.827 57.619C33.9975 57.56 33.8357 57.5403 33.7417 57.5709C32.3229 58.0541 30.8101 58.1809 29.3278 57.9623C29.2732 57.9557 29.0611 58.0475 29.1201 58.0563Z" fill="#817268"/>
<path d="M32.4469 57.8915C31.8742 57.7691 31.3145 57.5963 30.7745 57.3734C30.7242 57.3537 30.6412 57.3799 30.5974 57.404C30.569 57.4193 30.5166 57.4542 30.5668 57.4761C31.109 57.6991 31.6665 57.8718 32.2393 57.9942C32.2961 58.0074 32.3661 57.9899 32.4163 57.9636C32.4382 57.9505 32.506 57.9024 32.4469 57.8915Z" fill="#817268"/>
<path d="M31.2559 58.075C31.0766 58.1363 30.9061 58.2368 30.7356 58.3199C30.5629 58.4052 30.3902 58.4882 30.2196 58.5735C30.1956 58.5844 30.1344 58.6216 30.189 58.6369C30.2393 58.6522 30.3202 58.626 30.3661 58.6041C30.5323 58.5232 30.6984 58.4401 30.8646 58.3592C30.9476 58.3177 31.0307 58.2784 31.1138 58.2368C31.1903 58.1997 31.2646 58.1559 31.3455 58.1297C31.3674 58.1231 31.4505 58.0925 31.422 58.0597C31.3914 58.0291 31.2821 58.0663 31.2559 58.075Z" fill="#817268"/>
<path d="M33.7113 53.4361C35.4406 55.3884 37.5852 56.9449 39.9988 57.9397C40.0665 57.9681 40.2546 57.8631 40.2392 57.8566C37.8345 56.8641 35.6898 55.314 33.9649 53.3683C33.9147 53.3115 33.7004 53.423 33.7113 53.4361Z" fill="#817268"/>
<path d="M38.0414 56.7045C37.4249 55.924 36.8784 55.0933 36.4018 54.221C36.3646 54.1554 36.1241 54.245 36.1482 54.2888C36.6291 55.1676 37.1822 56.0071 37.8031 56.7941C37.8425 56.8444 38.0829 56.7592 38.0414 56.7045Z" fill="#817268"/>
<path d="M36.5379 55.7579C36.2624 55.6442 35.9563 55.5874 35.6678 55.5087C35.3595 55.4256 35.0513 55.3425 34.743 55.2572C34.6884 55.2419 34.614 55.266 34.5659 55.29C34.5441 55.301 34.4807 55.3403 34.5353 55.3534C34.8326 55.4343 35.1278 55.5152 35.4251 55.5961C35.5716 55.6355 35.7159 55.6748 35.8623 55.7142C36.0088 55.7535 36.1597 55.7863 36.2974 55.8431C36.3477 55.8628 36.4111 55.8453 36.4613 55.8278C36.4701 55.8257 36.5772 55.7732 36.5379 55.7579Z" fill="#817268"/>
<path d="M21.966 17.8004C20.5122 18.4497 19.3172 19.4604 18.305 20.689C18.2788 20.7218 18.399 20.7087 18.4056 20.7065C18.4537 20.6977 18.5214 20.6803 18.5542 20.6409C19.5358 19.4472 20.7798 18.4809 22.192 17.8513C22.3451 17.7835 22.0206 17.7741 21.966 17.8004Z" fill="#817268"/>
<path d="M19.6288 19.6811C20.1513 19.4865 20.6891 19.3379 21.2378 19.2417C21.2728 19.2351 21.3777 19.2154 21.3865 19.1695C21.393 19.1236 21.3078 19.1367 21.2837 19.1411C20.6891 19.246 20.1054 19.4056 19.5392 19.6155C19.5151 19.6243 19.4342 19.6549 19.4648 19.692C19.4911 19.727 19.5982 19.692 19.6288 19.6811Z" fill="#817268"/>
<path d="M20.5237 18.9203C20.5806 18.8525 20.6265 18.7738 20.6724 18.6995C20.7249 18.6164 20.7795 18.5311 20.832 18.4481C20.9369 18.2841 21.0419 18.1179 21.1468 17.954C21.1709 17.9146 21.055 17.9299 21.0462 17.9299C21.0003 17.9387 20.926 17.954 20.8976 17.9977C20.7926 18.1617 20.6877 18.3278 20.5828 18.4918C20.5303 18.5727 20.48 18.6536 20.4276 18.7344C20.3773 18.8132 20.3314 18.894 20.2723 18.964C20.2439 18.999 20.3663 18.988 20.3729 18.988C20.4254 18.9793 20.4888 18.9618 20.5237 18.9203Z" fill="#817268"/>
<path d="M21.3838 19.1401C21.3313 19.0854 21.2788 19.033 21.2264 18.9783C21.2176 18.9674 21.2089 18.9586 21.1958 18.9543C21.1826 18.9455 21.1695 18.9411 21.1542 18.9411C21.1367 18.9389 21.1214 18.9389 21.1039 18.9433C21.0865 18.9455 21.069 18.9499 21.0537 18.9586C21.0274 18.9717 20.999 18.9914 20.9881 19.0198C20.9793 19.0439 20.9771 19.0701 20.9946 19.092C21.0471 19.1576 21.1061 19.2188 21.1695 19.2712C21.1805 19.28 21.1936 19.2866 21.2089 19.2887C21.2242 19.2931 21.2395 19.2953 21.257 19.2931C21.2854 19.2909 21.3138 19.2822 21.3379 19.2669C21.3575 19.2538 21.3794 19.2363 21.3881 19.2144C21.3969 19.1925 21.4013 19.1619 21.3816 19.1423C21.3313 19.0876 21.281 19.033 21.2307 18.9783C21.222 18.9674 21.2132 18.9586 21.2001 18.9543C21.187 18.9455 21.1739 18.9411 21.1586 18.9411C21.1411 18.9389 21.1258 18.9389 21.1083 18.9433C21.0908 18.9455 21.0733 18.9499 21.058 18.9586C21.0318 18.9717 21.0034 18.9914 20.9924 19.0198C20.9837 19.0417 20.9793 19.0723 20.999 19.092C21.0449 19.1423 21.0886 19.1925 21.1345 19.2428C21.1433 19.2538 21.152 19.2625 21.1652 19.2669C21.1783 19.2756 21.1914 19.28 21.2067 19.28C21.2242 19.2822 21.2395 19.2822 21.257 19.2778C21.2745 19.2756 21.292 19.2712 21.3073 19.2625C21.3335 19.2494 21.3619 19.2297 21.3728 19.2013C21.3816 19.1772 21.3838 19.1488 21.3663 19.1291C21.3488 19.1073 21.3291 19.0832 21.3116 19.0614C21.2941 19.0395 21.2679 19.0264 21.2395 19.022C21.222 19.0198 21.2067 19.0198 21.1892 19.0242C21.1717 19.0264 21.1542 19.0308 21.1389 19.0395C21.1127 19.0526 21.0843 19.0723 21.0733 19.1007C21.0646 19.1248 21.0624 19.1532 21.0799 19.1729C21.0974 19.1947 21.1171 19.2188 21.1345 19.2406C21.2111 19.2035 21.2898 19.1641 21.3663 19.127C21.3204 19.0767 21.2766 19.0264 21.2307 18.9761C21.1542 19.0133 21.0755 19.0526 20.999 19.0898C21.0493 19.1444 21.0996 19.1991 21.1499 19.2538C21.2198 19.21 21.292 19.1663 21.3619 19.1226C21.3422 19.1051 21.3226 19.0898 21.3051 19.0701C21.3116 19.0767 21.3182 19.0832 21.3226 19.0876C21.2876 19.0526 21.2548 19.0155 21.2242 18.9783C21.1477 19.0155 21.069 19.0548 20.9924 19.092C21.0449 19.1466 21.0974 19.1991 21.1499 19.2538C21.1586 19.2647 21.1673 19.2734 21.1805 19.2778C21.1936 19.2866 21.2067 19.2909 21.222 19.2909C21.2395 19.2931 21.2548 19.2931 21.2723 19.2887C21.2898 19.2866 21.3073 19.2822 21.3226 19.2734C21.3488 19.2603 21.3772 19.2406 21.3881 19.2122C21.3903 19.2035 21.3925 19.1947 21.3947 19.1882C21.3969 19.1707 21.3947 19.1532 21.3838 19.1401Z" fill="#817268"/>
<path d="M21.9359 17.8695C21.9381 17.8892 21.9556 17.9001 21.9709 17.9089C21.9818 17.9133 21.9928 17.9154 22.0037 17.9176C22.0256 17.9198 22.0518 17.9198 22.0737 17.9154C22.0999 17.9111 22.1261 17.9045 22.1502 17.8958C22.172 17.887 22.1939 17.8761 22.2114 17.8608C22.2332 17.8433 22.2485 17.8236 22.2485 17.7952C22.2507 17.7777 22.2486 17.7624 22.242 17.7471C22.2354 17.7318 22.2267 17.7165 22.2158 17.7012C22.1983 17.675 22.1764 17.6487 22.1502 17.6291C22.1349 17.6181 22.1152 17.6072 22.0977 17.6028C22.0496 17.5897 22.0015 17.5941 21.9512 17.605C21.9119 17.6137 21.8703 17.6312 21.8375 17.6575C21.8179 17.6728 21.8004 17.6924 21.7916 17.7143C21.7807 17.7515 21.8004 17.7843 21.8288 17.8105C21.855 17.8346 21.8835 17.8542 21.9141 17.8695C21.9316 17.8783 21.949 17.8892 21.9687 17.8936C22.0321 17.9133 22.1043 17.9001 22.1633 17.8717C22.1873 17.8608 22.2114 17.8477 22.2267 17.828C22.2332 17.8192 22.2398 17.8105 22.242 17.7996C22.2442 17.7908 22.2442 17.7799 22.2398 17.7712C22.2332 17.7558 22.2223 17.7493 22.207 17.7427C22.183 17.734 22.1502 17.7362 22.1261 17.7405C22.0933 17.7449 22.0584 17.7558 22.0299 17.7712C22.0212 17.7755 22.0146 17.7821 22.0059 17.7865C21.995 17.7952 21.9862 17.8039 21.9797 17.8171C21.9797 17.8214 21.9797 17.8258 21.9797 17.8324C21.984 17.8433 21.9928 17.8499 22.0037 17.8542C22.0059 17.8542 22.0059 17.8542 22.0081 17.8564C22.0037 17.8542 21.9971 17.8499 21.9928 17.8477C21.995 17.8499 21.995 17.8499 21.9971 17.852C21.995 17.8477 21.9928 17.8433 21.9884 17.8389C21.9906 17.8433 21.9928 17.8477 21.9928 17.852C21.9928 17.8477 21.9928 17.8433 21.9928 17.8367C21.9928 17.8411 21.9906 17.8455 21.9884 17.8499C21.9906 17.8455 21.995 17.8389 21.9971 17.8346C21.995 17.8367 21.995 17.8367 21.9928 17.8389C21.9993 17.8346 22.0037 17.828 22.0103 17.8236L22.0081 17.8258C22.0168 17.8214 22.0234 17.8149 22.0321 17.8105C22.0321 17.8105 22.0299 17.8105 22.0299 17.8127C22.0387 17.8083 22.0496 17.8039 22.0584 17.7996C22.078 17.7952 22.0977 17.7886 22.1174 17.7843C22.1283 17.7843 22.1392 17.7821 22.148 17.7821C22.1458 17.7821 22.1436 17.7821 22.1414 17.7821C22.1502 17.7821 22.1589 17.7821 22.1698 17.7821C22.1677 17.7821 22.1633 17.7821 22.1611 17.7799C22.1677 17.7821 22.1764 17.7843 22.183 17.7843C22.1655 17.7799 22.148 17.7712 22.1305 17.7624C22.1349 17.7646 22.1414 17.769 22.1458 17.7712C22.1108 17.7515 22.0715 17.7252 22.0474 17.6925C22.0496 17.6968 22.0518 17.7012 22.0562 17.7056C22.0496 17.6946 22.0452 17.6837 22.0452 17.6706C22.0452 17.675 22.0452 17.6793 22.0452 17.6859C22.0452 17.6771 22.0496 17.6706 22.054 17.664C22.0518 17.6684 22.0474 17.675 22.0452 17.6793C22.0474 17.675 22.0518 17.6706 22.0562 17.6662C22.0496 17.6706 22.0452 17.6771 22.0387 17.6815C22.0409 17.6793 22.0452 17.6771 22.0474 17.675C22.0387 17.6793 22.0321 17.6859 22.0234 17.6903C22.0256 17.6881 22.0277 17.6881 22.0299 17.6859C22.0212 17.6903 22.0103 17.6946 22.0015 17.699C22.0168 17.6925 21.9643 17.7099 21.9775 17.7078C21.9884 17.7056 21.9359 17.7143 21.9534 17.7143C21.9425 17.7143 21.9316 17.7165 21.9228 17.7165C21.925 17.7165 21.9294 17.7165 21.9316 17.7165C21.9228 17.7165 21.9141 17.7165 21.9031 17.7165C21.9075 17.7165 21.9119 17.7165 21.9163 17.7187C21.9097 17.7165 21.9009 17.7143 21.8944 17.7143C21.9031 17.7165 21.9119 17.7209 21.9206 17.7252C21.9163 17.7231 21.9097 17.7187 21.9053 17.7165C21.9359 17.734 21.9622 17.7624 21.9797 17.7908C21.9775 17.7865 21.9753 17.7821 21.9709 17.7777C21.9862 17.8018 22.0015 17.8302 21.9993 17.8586C21.9993 17.8542 21.9993 17.8499 21.9993 17.8433C21.9993 17.8499 21.9971 17.8564 21.9928 17.863C21.995 17.8586 21.9993 17.852 22.0015 17.8477C21.9993 17.8499 21.9993 17.852 21.9971 17.8542C22.0037 17.8499 22.0081 17.8433 22.0146 17.8389C22.0124 17.8411 22.0124 17.8411 22.0103 17.8433C22.019 17.8389 22.0256 17.8324 22.0343 17.828C22.0321 17.828 22.0321 17.8302 22.0299 17.8302C22.0387 17.8258 22.0496 17.8214 22.0584 17.8171C22.0474 17.8214 22.0562 17.8192 22.0868 17.8083C22.1174 17.8018 22.1261 17.7996 22.1152 17.8018C22.1261 17.8018 22.1371 17.7996 22.1458 17.7996C22.1436 17.7996 22.1414 17.7996 22.1392 17.7996C22.148 17.7996 22.1567 17.7996 22.1677 17.7996C22.1655 17.7996 22.1633 17.7996 22.1611 17.7996C22.1677 17.8018 22.1764 17.8039 22.183 17.8039C22.1808 17.8039 22.1786 17.8018 22.1764 17.8018C22.1808 17.8039 22.1873 17.8083 22.1917 17.8105C22.1873 17.8083 22.1852 17.8061 22.183 17.8039C22.1852 17.8083 22.1873 17.8127 22.1917 17.8171C22.1895 17.8127 22.1895 17.8105 22.1873 17.8061C22.1852 17.7886 22.1524 17.7821 22.1414 17.7799C22.1108 17.7755 22.0758 17.7799 22.0474 17.7886C22.0168 17.7974 21.9862 17.8083 21.9622 17.828C21.949 17.8367 21.9337 17.8499 21.9359 17.8695Z" fill="#817268"/>
<path d="M71.3134 39.1644C71.0642 41.2304 70.9745 43.3116 71.0445 45.3907C71.0467 45.4803 71.3003 45.4279 71.2981 45.3229C71.2303 43.257 71.3199 41.1889 71.5692 39.136C71.5801 39.0289 71.3243 39.0726 71.3134 39.1644Z" fill="#817268"/>
<path d="M71.0422 45.3274C70.6749 46.4752 70.3207 47.6273 69.9797 48.7838C69.9644 48.8384 70.2114 48.8057 70.2289 48.7401C70.57 47.5836 70.9241 46.4315 71.2914 45.2837C71.3089 45.2312 71.064 45.2618 71.0422 45.3274Z" fill="#817268"/>
<path d="M69.9796 48.7794C69.6888 50.0146 69.4265 51.2563 69.1926 52.5046C69.1773 52.5833 69.4309 52.5396 69.444 52.4653C69.6779 51.217 69.9402 49.9774 70.231 48.74C70.2485 48.6657 69.9971 48.705 69.9796 48.7794Z" fill="#817268"/>
<path d="M69.4285 51.2715C69.3695 51.3743 69.3061 51.4726 69.2339 51.5645C69.2208 51.582 69.223 51.6082 69.2361 51.6235C69.2514 51.6432 69.2842 51.6497 69.3061 51.6519C69.3388 51.6541 69.376 51.6475 69.4066 51.6322C69.4154 51.6279 69.4263 51.6213 69.435 51.6169C69.4503 51.606 69.4635 51.5951 69.4744 51.5776C69.5465 51.4836 69.6121 51.3874 69.669 51.2846C69.6799 51.265 69.6821 51.2431 69.6668 51.2256C69.6515 51.2059 69.6187 51.1994 69.5968 51.1972C69.564 51.195 69.5269 51.2016 69.4963 51.2169C69.47 51.23 69.4416 51.2475 69.4285 51.2715Z" fill="#817268"/>
<path d="M69.4332 51.2714C69.4485 51.3305 69.466 51.3895 69.4813 51.4485C69.4857 51.466 69.5141 51.4704 69.5272 51.4726C69.5578 51.4769 69.5928 51.4704 69.6212 51.4616C69.6497 51.4529 69.6825 51.442 69.7065 51.4245C69.7196 51.4157 69.7393 51.4004 69.7349 51.3807C69.7196 51.3217 69.7021 51.2627 69.6868 51.2037C69.6825 51.1862 69.654 51.1818 69.6409 51.1796C69.6103 51.1752 69.5753 51.1818 69.5469 51.1905C69.5185 51.1993 69.4857 51.2102 69.4617 51.2277C69.4485 51.2386 69.4289 51.2539 69.4332 51.2714Z" fill="#817268"/>
<path d="M69.6718 50.0845C69.6696 50.0888 69.6675 50.0954 69.6653 50.0998C69.6675 50.0932 69.6718 50.0866 69.674 50.0801C69.6543 50.126 69.6281 50.1697 69.5975 50.2069C69.6019 50.2003 69.6084 50.1938 69.6128 50.1872C69.6084 50.1916 69.6041 50.1959 69.5997 50.2025C69.5866 50.2178 69.5691 50.2375 69.5756 50.2615C69.5822 50.2834 69.6062 50.2965 69.6259 50.3009C69.6565 50.3074 69.6915 50.3053 69.7199 50.2965C69.7309 50.2921 69.7418 50.2878 69.7527 50.2856C69.7724 50.2768 69.7877 50.2659 69.803 50.2528C69.8292 50.2244 69.8533 50.1938 69.873 50.161C69.8926 50.1282 69.9079 50.0932 69.9232 50.0582C69.932 50.0385 69.9123 50.0167 69.897 50.0079C69.8861 50.0014 69.873 49.9992 69.8598 49.997C69.8445 49.9948 69.8292 49.9948 69.8139 49.997C69.7811 50.0014 69.7462 50.0101 69.7177 50.0298C69.7112 50.0364 69.7024 50.0407 69.6959 50.0473C69.685 50.056 69.6762 50.0691 69.6718 50.0845Z" fill="#817268"/>
<path d="M69.9902 48.7398C69.9508 48.7901 69.9115 48.8382 69.8721 48.8885C69.8655 48.8951 69.8612 48.9016 69.8612 48.9104C69.859 48.9169 69.8612 48.9235 69.8677 48.9279C69.8765 48.9344 69.8852 48.9366 69.894 48.9388C69.9071 48.941 69.9202 48.9432 69.9333 48.941C69.9661 48.9388 70.0011 48.9322 70.0317 48.9191C70.0404 48.9147 70.0514 48.9104 70.0601 48.906C70.0754 48.8994 70.0885 48.8885 70.1017 48.8776C70.141 48.8273 70.1804 48.7792 70.2197 48.7289C70.2263 48.7224 70.2306 48.7158 70.2306 48.707C70.2328 48.7005 70.2306 48.6939 70.2241 48.6896C70.2153 48.683 70.2066 48.6808 70.1978 48.6786C70.1847 48.6764 70.1716 48.6743 70.1585 48.6764C70.1257 48.6786 70.0907 48.6852 70.0601 48.6983C70.0514 48.7027 70.0404 48.7071 70.0317 48.7114C70.0164 48.718 70.0033 48.7289 69.9902 48.7398Z" fill="#817268"/>
<path d="M70.369 47.5332C70.3734 47.6075 70.4018 47.6775 70.4434 47.7387C70.4521 47.7452 70.4608 47.7496 70.4718 47.7518C70.4849 47.7562 70.498 47.7584 70.5111 47.7584C70.5439 47.7584 70.5811 47.7518 70.6095 47.7387C70.6335 47.7278 70.6642 47.7146 70.6773 47.6906C70.6795 47.684 70.6838 47.6797 70.686 47.6731C70.6882 47.6622 70.686 47.6512 70.6773 47.6425C70.6729 47.6359 70.6685 47.6272 70.662 47.6206C70.6642 47.625 70.6685 47.6294 70.6707 47.6359C70.6401 47.5857 70.6226 47.5266 70.6182 47.4676C70.6161 47.4479 70.5833 47.4392 70.5701 47.437C70.5417 47.4304 70.5046 47.4348 70.4761 47.4436C70.4455 47.4523 70.4149 47.4632 70.3909 47.4851C70.3843 47.4917 70.38 47.496 70.3734 47.5026C70.369 47.5091 70.3668 47.5201 70.369 47.5332Z" fill="#817268"/>
<path d="M71.0313 42.553C71.0226 42.5618 71.016 42.5727 71.0116 42.5815C71.0094 42.5836 71.0094 42.5858 71.0073 42.5902C71.0029 42.6011 71.0007 42.6099 70.9963 42.6208C70.9963 42.623 70.9941 42.6274 70.9941 42.6296C70.9941 42.6405 70.9941 42.6514 70.9963 42.6602C70.9963 42.6623 70.9963 42.6667 70.9985 42.6689C71.0029 42.6842 71.0138 42.6995 71.0269 42.7061C71.0357 42.7104 71.051 42.717 71.0532 42.7192C71.0619 42.7236 71.0838 42.7257 71.0838 42.7257C71.1056 42.7301 71.1362 42.7257 71.1559 42.7192C71.1822 42.7126 71.1996 42.7039 71.2215 42.6886C71.2302 42.682 71.2477 42.6645 71.2456 42.6667L71.2477 42.6645C71.2499 42.6602 71.2543 42.6558 71.2565 42.6536C71.2587 42.6514 71.263 42.6449 71.2652 42.6427C71.2652 42.6427 71.2652 42.6405 71.2674 42.6405C71.2696 42.6317 71.274 42.623 71.2762 42.6142C71.2762 42.6121 71.2762 42.6121 71.2762 42.6099C71.2762 42.5836 71.2762 42.5836 71.263 42.5596C71.263 42.5596 71.263 42.5574 71.2609 42.5574C71.2543 42.5508 71.2477 42.5443 71.2412 42.5399C71.2237 42.529 71.204 42.5224 71.1843 42.5202C71.1712 42.5181 71.1581 42.5181 71.1472 42.5202C71.1231 42.5224 71.0969 42.529 71.075 42.5399C71.051 42.553 71.0379 42.5618 71.0204 42.5793C71.0138 42.588 71.0051 42.5968 71.0029 42.6077C70.9941 42.6295 70.992 42.6361 70.9963 42.6602C70.9985 42.6733 71.0051 42.682 71.016 42.6886C71.0247 42.6973 71.0357 42.7061 71.0488 42.7083C71.0641 42.7126 71.0794 42.7148 71.0947 42.7148C71.1122 42.717 71.1297 42.7148 71.145 42.7083C71.1559 42.7039 71.1668 42.6995 71.1778 42.6973C71.1975 42.6886 71.2128 42.6755 71.2281 42.6602C71.2324 42.6536 71.239 42.6449 71.2434 42.6383C71.2521 42.623 71.2521 42.6077 71.2499 42.5924C71.2499 42.5924 71.2499 42.5924 71.2499 42.5902C71.2499 42.5989 71.2499 42.6055 71.2521 42.6142C71.2521 42.6121 71.2521 42.6121 71.2521 42.6099C71.2499 42.6186 71.2477 42.6252 71.2456 42.6339C71.2456 42.6317 71.2455 42.6317 71.2477 42.6296C71.2434 42.6361 71.2368 42.6449 71.2324 42.6514L71.2346 42.6492C71.2281 42.6558 71.2193 42.6623 71.2128 42.6689L71.2149 42.6667C71.2062 42.6733 71.1953 42.6776 71.1865 42.6842C71.1865 42.6842 71.1887 42.6842 71.1887 42.682C71.1778 42.6864 71.1668 42.6908 71.1559 42.693H71.1581C71.1472 42.6951 71.1341 42.6973 71.1231 42.6995H71.1253C71.1144 42.6995 71.1034 42.6995 71.0925 42.6995H71.0947C71.086 42.6973 71.075 42.6951 71.0663 42.693H71.0685C71.0597 42.6886 71.0532 42.6842 71.0444 42.682L71.0466 42.6842C71.04 42.6776 71.0335 42.6733 71.0291 42.6667C71.0313 42.6667 71.0313 42.6689 71.0313 42.6711C71.0269 42.6645 71.0247 42.658 71.0204 42.6492C71.0204 42.6514 71.0204 42.6514 71.0226 42.6536C71.0226 42.6449 71.0226 42.6383 71.0204 42.6296C71.0204 42.6317 71.0204 42.6339 71.0204 42.6339C71.0226 42.6252 71.0247 42.6186 71.0269 42.6099C71.0269 42.6121 71.0247 42.6121 71.0247 42.6142C71.0291 42.6077 71.0357 42.5989 71.04 42.5924C71.04 42.5946 71.0379 42.5946 71.0379 42.5968C71.0444 42.5902 71.0532 42.5836 71.0597 42.5771L71.0575 42.5793C71.0663 42.5727 71.0772 42.5683 71.086 42.5618C71.086 42.5618 71.0838 42.5618 71.0838 42.564C71.0947 42.5596 71.1056 42.5552 71.1166 42.553H71.1144C71.1253 42.5508 71.1384 42.5487 71.1494 42.5465H71.1472C71.1581 42.5465 71.169 42.5465 71.18 42.5465H71.1778C71.1865 42.5487 71.1975 42.5508 71.2062 42.553H71.204C71.2128 42.5574 71.2193 42.5618 71.2281 42.564C71.2281 42.564 71.2281 42.564 71.2259 42.564C71.2346 42.5771 71.2455 42.588 71.2543 42.6011C71.2543 42.5968 71.2521 42.5946 71.2521 42.5902C71.2521 42.5989 71.2521 42.6055 71.2543 42.6142C71.2543 42.6077 71.2543 42.6011 71.2565 42.5946C71.2543 42.6033 71.2521 42.6099 71.2499 42.6186C71.2521 42.6142 71.2543 42.6099 71.2565 42.6055C71.2521 42.6121 71.2455 42.6208 71.2412 42.6274C71.2434 42.6252 71.2434 42.623 71.2456 42.623C71.2543 42.6142 71.2609 42.6011 71.2652 42.588C71.2696 42.5771 71.2718 42.5661 71.2674 42.553C71.2652 42.5399 71.2587 42.5312 71.2477 42.5246C71.239 42.5159 71.2281 42.5071 71.2149 42.5049C71.2062 42.5028 71.1953 42.5006 71.1865 42.4984C71.1647 42.4962 71.1406 42.4984 71.1188 42.5049C71.1078 42.5093 71.0969 42.5137 71.086 42.5159C71.0619 42.5268 71.0444 42.5377 71.0313 42.553Z" fill="#817268"/>
<path d="M71.1121 41.7506C71.1099 41.755 71.1077 41.7594 71.1055 41.7637C71.099 41.7747 71.0968 41.7856 71.099 41.7965C71.099 41.8075 71.1012 41.8184 71.1099 41.8271C71.1186 41.8359 71.1274 41.8424 71.1405 41.8468C71.1536 41.8534 71.1667 41.8555 71.182 41.8577C71.193 41.8577 71.2039 41.8577 71.2148 41.8577C71.2389 41.8555 71.2607 41.849 71.2826 41.8402C71.2913 41.8359 71.3023 41.8293 71.311 41.8249C71.3263 41.814 71.3394 41.8009 71.3482 41.7856C71.3504 41.7812 71.3526 41.7768 71.3526 41.7725C71.3591 41.7615 71.3613 41.7506 71.3591 41.7397C71.3591 41.7288 71.3569 41.7178 71.3482 41.7091C71.3394 41.7003 71.3307 41.6938 71.3176 41.6894C71.3045 41.6828 71.2913 41.6807 71.276 41.6785C71.2651 41.6785 71.2542 41.6785 71.2433 41.6785C71.2192 41.6807 71.1973 41.6872 71.1755 41.696C71.1667 41.7003 71.1558 41.7069 71.1471 41.7113C71.1339 41.72 71.1208 41.7331 71.1121 41.7506Z" fill="#817268"/>
<path d="M70.6351 47.166C70.5826 47.166 70.5323 47.1769 70.4842 47.1944C70.4602 47.2032 70.4405 47.2119 70.4187 47.2229C70.4077 47.2294 70.399 47.236 70.3881 47.2425C70.3749 47.2513 70.364 47.2644 70.3553 47.2753C70.3487 47.2841 70.3443 47.295 70.34 47.3037C70.3356 47.3103 70.3356 47.3147 70.3421 47.319C70.3465 47.3256 70.3531 47.3278 70.3618 47.3278C70.3684 47.3278 70.3771 47.33 70.3837 47.33C70.4034 47.33 70.423 47.3278 70.4427 47.3234C70.4668 47.319 70.4908 47.3125 70.5149 47.3037C70.5258 47.2994 70.5367 47.295 70.5476 47.2906C70.5651 47.2819 70.5783 47.2753 70.5936 47.2622C70.5957 47.26 70.5979 47.26 70.5979 47.2578C70.6045 47.2513 70.611 47.2447 70.6154 47.236C70.6176 47.2294 70.6198 47.2207 70.6198 47.2119C70.6176 47.2054 70.611 47.201 70.6045 47.201C70.5957 47.1966 70.5848 47.1966 70.5761 47.1966C70.5608 47.1966 70.5476 47.1966 70.5323 47.201C70.5149 47.2032 70.4996 47.2054 70.4821 47.2119C70.4711 47.2163 70.4602 47.2185 70.4493 47.2229C70.4296 47.2294 70.4121 47.2382 70.3968 47.2469C70.3902 47.2513 70.3859 47.2557 70.3793 47.26C70.3706 47.2666 70.3662 47.2731 70.3662 47.2819C70.3662 47.2841 70.3662 47.2863 70.3662 47.2884C70.3662 47.2841 70.3684 47.2819 70.3684 47.2775C70.3662 47.2841 70.364 47.2884 70.3618 47.2928C70.3662 47.2884 70.3684 47.2841 70.3728 47.2819C70.3706 47.2841 70.3684 47.2863 70.3662 47.2884C70.3728 47.2841 70.3771 47.2797 70.3837 47.2753L70.3815 47.2775C70.3902 47.2731 70.3968 47.2688 70.4055 47.2644C70.4055 47.2644 70.4034 47.2644 70.4034 47.2666C70.4121 47.2622 70.423 47.2578 70.4318 47.2557H70.4296C70.4405 47.2513 70.4515 47.2491 70.4624 47.2447C70.4624 47.2447 70.4624 47.2447 70.4602 47.2447C70.4711 47.2425 70.4821 47.2403 70.4952 47.236H70.493C70.5258 47.2425 70.5608 47.2491 70.5936 47.2557C70.5979 47.2425 70.6045 47.2316 70.6132 47.2207C70.6089 47.225 70.6067 47.2294 70.6023 47.2316C70.6067 47.225 70.6132 47.2207 70.6198 47.2163C70.6132 47.2207 70.6089 47.225 70.6023 47.2294C70.6067 47.2272 70.6089 47.225 70.6132 47.2229C70.6045 47.2272 70.5979 47.2316 70.5892 47.236C70.5914 47.2338 70.5936 47.2338 70.5979 47.2316C70.5892 47.236 70.5783 47.2403 70.5695 47.2425C70.5717 47.2425 70.5739 47.2403 70.5761 47.2403C70.5651 47.2447 70.5542 47.2469 70.5433 47.2513C70.5455 47.2513 70.5476 47.2513 70.5498 47.2491C70.5389 47.2513 70.528 47.2535 70.5149 47.2578C70.517 47.2578 70.5192 47.2578 70.5214 47.2557C70.5105 47.2578 70.4996 47.2578 70.4908 47.26C70.493 47.26 70.4974 47.26 70.4996 47.26C70.4908 47.26 70.4821 47.26 70.4733 47.2622C70.4755 47.2622 70.4755 47.2622 70.4777 47.2622C70.5083 47.2622 70.5411 47.2557 70.5695 47.2491C70.587 47.2447 70.6023 47.2403 70.6176 47.2338C70.6307 47.2294 70.6438 47.2229 70.657 47.2163C70.6635 47.2119 70.6679 47.2076 70.6744 47.2032C70.6832 47.1966 70.6876 47.1901 70.6876 47.1813C70.6854 47.1791 70.6832 47.1748 70.681 47.1726C70.6613 47.1682 70.6482 47.166 70.6351 47.166Z" fill="#817268"/>
<path d="M70.6548 46.6718C70.6592 46.7003 70.6613 46.7265 70.6657 46.7549C70.6679 46.7637 70.6745 46.768 70.681 46.7702C70.6898 46.7746 70.7007 46.779 70.7116 46.779C70.7269 46.7811 70.74 46.779 70.7553 46.7768C70.7728 46.7746 70.7881 46.7724 70.8056 46.768C70.8166 46.7637 70.8275 46.7615 70.8384 46.7571C70.8581 46.7505 70.8756 46.7418 70.8909 46.7309C70.8975 46.7265 70.9018 46.7221 70.9084 46.7156C70.9171 46.709 70.9215 46.6981 70.9193 46.6871C70.9149 46.6587 70.9128 46.6325 70.9084 46.6041C70.9062 46.5953 70.8996 46.5909 70.8931 46.5888C70.8843 46.5844 70.8734 46.58 70.8625 46.5822C70.8472 46.58 70.8341 46.5822 70.8187 46.5844C70.8013 46.5866 70.786 46.5888 70.7685 46.5931C70.7575 46.5975 70.7466 46.5997 70.7357 46.6041C70.716 46.6106 70.6985 46.6194 70.6832 46.6303C70.6766 46.6347 70.6723 46.639 70.6657 46.6456C70.6592 46.6522 70.6548 46.6609 70.6548 46.6718Z" fill="#817268"/>
<path d="M71.0051 44.479C71.0007 44.5009 70.992 44.5227 70.981 44.5446C70.9832 44.538 70.9876 44.5337 70.9898 44.5271C70.9767 44.5533 70.9592 44.5796 70.9373 44.6014C70.9439 44.5949 70.9482 44.5905 70.9548 44.5839C70.9482 44.5905 70.9417 44.5971 70.9351 44.6036C70.922 44.6145 70.9045 44.6364 70.9089 44.6561C70.9133 44.6758 70.9395 44.6867 70.957 44.6889C70.9876 44.6932 71.0204 44.6911 71.051 44.6823C71.0816 44.6736 71.1122 44.6626 71.1362 44.6408C71.1931 44.5905 71.2368 44.5227 71.2565 44.4484C71.2609 44.4287 71.2477 44.4134 71.2303 44.4047C71.2193 44.4003 71.2062 44.3959 71.1931 44.3959C71.1778 44.3937 71.1625 44.3937 71.1472 44.3959C71.1144 44.4003 71.0794 44.409 71.051 44.4287C71.0357 44.4396 71.0116 44.455 71.0051 44.479Z" fill="#817268"/>
<path d="M71.0068 44.5382C71.0571 44.6497 71.1227 44.7524 71.2101 44.8399C71.2188 44.8508 71.2276 44.8595 71.2407 44.8639C71.2538 44.8705 71.2669 44.8748 71.2822 44.877C71.3129 44.8814 71.3544 44.8748 71.3828 44.8595C71.409 44.8464 71.4375 44.8267 71.4484 44.7983C71.4571 44.7765 71.4615 44.7458 71.444 44.7284C71.3719 44.6562 71.3129 44.5731 71.2691 44.4835C71.2735 44.4901 71.2757 44.4988 71.2801 44.5054C71.2735 44.4944 71.2691 44.4813 71.2648 44.4704C71.2626 44.4573 71.256 44.4463 71.2451 44.4398C71.2363 44.4288 71.2254 44.4223 71.2123 44.4179C71.1839 44.407 71.1445 44.407 71.1161 44.4157C71.0855 44.4245 71.0527 44.4398 71.033 44.466C71.0133 44.4857 70.9959 44.5141 71.0068 44.5382Z" fill="#817268"/>
<path d="M69.5887 50.231C69.5362 50.2791 69.4859 50.3272 69.44 50.3818C69.3941 50.4365 69.3307 50.5065 69.3504 50.583C69.3679 50.6486 69.4356 50.6726 69.4968 50.6726C69.5471 50.6726 69.6018 50.6486 69.6411 50.6158C69.6958 50.5677 69.7329 50.5021 69.7701 50.4387C69.8051 50.3775 69.8379 50.3141 69.8663 50.2507C69.8772 50.2266 69.875 50.2004 69.8597 50.1785C69.8444 50.1567 69.8138 50.1436 69.7876 50.1414C69.7286 50.1348 69.6499 50.161 69.6236 50.2201C69.5887 50.3031 69.5449 50.384 69.4968 50.4605C69.5012 50.4518 69.5078 50.4452 69.5121 50.4365C69.4947 50.4627 69.4793 50.4912 69.4575 50.513C69.464 50.5065 69.4728 50.4999 69.4793 50.4912C69.4728 50.4955 69.4684 50.5021 69.4597 50.5065C69.4684 50.4999 69.4772 50.4955 69.4881 50.489C69.4837 50.4912 69.4772 50.4955 69.4728 50.4977C69.4837 50.4933 69.4946 50.489 69.5056 50.4846C69.5012 50.4868 69.4968 50.4868 69.4947 50.4868C69.5056 50.4846 69.5187 50.4824 69.5296 50.4802C69.5274 50.4802 69.5253 50.4802 69.5231 50.4802C69.534 50.4802 69.5449 50.4802 69.5559 50.4802C69.5537 50.4802 69.5515 50.4802 69.5493 50.478C69.558 50.4802 69.569 50.4824 69.5777 50.4846C69.5755 50.4846 69.5755 50.4846 69.5734 50.4824C69.5821 50.4868 69.5908 50.4912 69.5974 50.4955C69.593 50.4933 69.5908 50.4912 69.5887 50.489C69.5952 50.4955 69.6018 50.4999 69.6061 50.5065C69.6018 50.5021 69.5996 50.4999 69.5974 50.4955C69.6018 50.5021 69.604 50.5108 69.6083 50.5174C69.6061 50.513 69.6061 50.5086 69.604 50.5043C69.604 50.513 69.6061 50.5218 69.6061 50.5283C69.6061 50.5218 69.6061 50.5152 69.6083 50.5086C69.6061 50.5174 69.604 50.5261 69.6018 50.5327C69.6061 50.5218 69.6105 50.5108 69.6171 50.4999C69.6127 50.5086 69.6061 50.5152 69.6018 50.5239C69.6433 50.4605 69.7001 50.4015 69.7548 50.3491C69.7482 50.3556 69.7395 50.3622 69.7329 50.3709C69.7417 50.3622 69.7504 50.3534 69.7592 50.3469C69.7789 50.3294 69.8007 50.3075 69.8029 50.2769C69.8051 50.2529 69.792 50.2244 69.7723 50.2113C69.7461 50.1938 69.7155 50.1873 69.6848 50.1895C69.6521 50.1982 69.6149 50.2091 69.5887 50.231Z" fill="#817268"/>
<path d="M71.1711 41.1057C71.263 41.3484 71.4182 41.5692 71.6237 41.731C71.6608 41.7594 71.7155 41.7594 71.7592 41.7463C71.7964 41.7353 71.862 41.7113 71.8685 41.6654C71.8926 41.5233 71.7723 41.4096 71.6871 41.3134C71.5887 41.2019 71.4881 41.0948 71.3832 40.9898C71.3439 40.9505 71.2608 40.9658 71.2149 40.9855C71.1843 40.9986 71.1056 41.0467 71.1471 41.0882C71.2455 41.1866 71.3417 41.2893 71.4335 41.3943C71.4772 41.4424 71.5209 41.4905 71.5603 41.5429C71.5931 41.5867 71.6237 41.6391 71.6127 41.696C71.6936 41.6741 71.7767 41.6523 71.8576 41.6304C71.6608 41.4752 71.5122 41.2697 71.4226 41.0358C71.4029 40.9855 71.3198 40.992 71.2783 41.0051C71.2498 41.0161 71.1515 41.0554 71.1711 41.1057Z" fill="#817268"/>
<path d="M71.1554 40.9943C71.1095 41.0512 71.057 41.1058 71.0002 41.1539C71.0067 41.1474 71.0155 41.1408 71.022 41.1343C71.0067 41.1474 70.9892 41.1605 70.9739 41.1736C70.9542 41.1889 70.9324 41.2086 70.928 41.2348C70.9258 41.2567 70.9368 41.2785 70.9564 41.2895C70.9827 41.3026 71.0133 41.307 71.0417 41.3048C71.0745 41.3004 71.1095 41.2917 71.1379 41.2698C71.221 41.2064 71.2975 41.1343 71.3652 41.0534C71.3805 41.0359 71.3937 41.014 71.3871 40.99C71.3805 40.9681 71.3565 40.9506 71.3346 40.9462C71.304 40.9375 71.2691 40.9397 71.2384 40.9484C71.21 40.955 71.175 40.9681 71.1554 40.9943Z" fill="#817268"/>
<path d="M69.7758 52.9352C69.6796 52.4849 69.6271 52.0258 69.6184 51.5645C69.6162 51.4989 69.3626 51.5448 69.3648 51.6322C69.3735 52.0935 69.426 52.5504 69.5222 53.003C69.5375 53.0773 69.7933 53.0139 69.7758 52.9352Z" fill="#817268"/>
<path d="M15.8718 28.1614C16.1363 26.0977 16.2412 24.0186 16.1888 21.9396C16.1866 21.8521 15.933 21.9024 15.9352 22.0073C15.9898 24.0711 15.8827 26.1392 15.6182 28.1899C15.605 28.297 15.8608 28.2533 15.8718 28.1614Z" fill="#817268"/>
<path d="M16.191 22.0009C16.5671 20.8553 16.93 19.7076 17.2797 18.5554C17.2951 18.503 17.0502 18.5336 17.0305 18.5992C16.6807 19.7513 16.3156 20.9012 15.9418 22.0446C15.9243 22.0971 16.1692 22.0686 16.191 22.0009Z" fill="#817268"/>
<path d="M17.2823 18.5598C17.5818 17.3268 17.8551 16.0872 18.0977 14.8433C18.113 14.7667 17.8616 14.8083 17.8463 14.8826C17.6036 16.1266 17.3304 17.3661 17.0309 18.5991C17.0112 18.6713 17.2648 18.6341 17.2823 18.5598Z" fill="#817268"/>
<path d="M17.8523 16.072C17.9113 15.9692 17.9769 15.873 18.049 15.779C18.0621 15.7615 18.0599 15.7353 18.0468 15.72C18.0315 15.7003 17.9987 15.6938 17.9769 15.6916C17.9441 15.6894 17.9069 15.6959 17.8763 15.7112C17.8676 15.7156 17.8566 15.7222 17.8479 15.7266C17.8326 15.7375 17.8195 15.7484 17.8085 15.7659C17.7364 15.8577 17.6686 15.9561 17.6118 16.0589C17.6008 16.0785 17.5987 16.1004 17.614 16.1179C17.6293 16.1376 17.6621 16.1441 17.6839 16.1463C17.7167 16.1485 17.7539 16.1419 17.7845 16.1266C17.8107 16.1135 17.8369 16.0982 17.8523 16.072Z" fill="#817268"/>
<path d="M17.846 16.0719C17.8307 16.0129 17.8154 15.9539 17.8001 15.8948C17.7957 15.8773 17.7673 15.873 17.7542 15.8708C17.7236 15.8664 17.6886 15.873 17.6602 15.8817C17.6318 15.8905 17.599 15.9014 17.5749 15.9189C17.5618 15.9276 17.5421 15.9429 17.5465 15.9626C17.5618 16.0216 17.5771 16.0807 17.5924 16.1397C17.5968 16.1572 17.6252 16.1615 17.6383 16.1637C17.6689 16.1681 17.7039 16.1615 17.7323 16.1528C17.7608 16.1441 17.7936 16.1331 17.8176 16.1156C17.8307 16.1069 17.8526 16.0916 17.846 16.0719Z" fill="#817268"/>
<path d="M17.5994 17.2569C17.6015 17.2525 17.6037 17.2481 17.6037 17.2438C17.6015 17.2503 17.5972 17.2569 17.595 17.2634C17.6147 17.2175 17.6409 17.176 17.6715 17.1388C17.6671 17.1454 17.6606 17.1519 17.6562 17.1585C17.6606 17.1519 17.6671 17.1454 17.6715 17.141C17.6846 17.1257 17.7021 17.106 17.6955 17.082C17.689 17.0601 17.6649 17.047 17.6453 17.0426C17.6147 17.0361 17.5797 17.0383 17.5513 17.047C17.5403 17.0514 17.5294 17.0557 17.5185 17.0579C17.4988 17.0667 17.4835 17.0776 17.4682 17.0907C17.4419 17.1191 17.4179 17.1498 17.396 17.1825C17.3764 17.2153 17.3611 17.2503 17.3458 17.2853C17.337 17.305 17.3589 17.3268 17.372 17.3356C17.3829 17.3421 17.396 17.3443 17.4092 17.3465C17.4245 17.3487 17.4398 17.3487 17.4551 17.3465C17.4879 17.3421 17.5228 17.3334 17.5513 17.3137C17.5578 17.3072 17.5666 17.3028 17.5731 17.2962C17.5884 17.2853 17.595 17.2722 17.5994 17.2569Z" fill="#817268"/>
<path d="M17.2688 18.5993C17.3082 18.5512 17.3475 18.5009 17.3869 18.4528C17.3978 18.4397 17.4044 18.4266 17.389 18.4134C17.3803 18.4069 17.3716 18.4047 17.3628 18.4025C17.3497 18.4003 17.3366 18.3981 17.3235 18.4003C17.2907 18.4025 17.2557 18.4091 17.2251 18.4222C17.2163 18.4266 17.2054 18.4309 17.1967 18.4353C17.1814 18.4419 17.1682 18.4528 17.1551 18.4637C17.1158 18.5118 17.0764 18.5621 17.0371 18.6102C17.0261 18.6233 17.0196 18.6364 17.0349 18.6495C17.0436 18.6561 17.0524 18.6583 17.0611 18.6605C17.0742 18.6627 17.0874 18.6648 17.1005 18.6627C17.1333 18.6605 17.1682 18.6539 17.1989 18.6408C17.2076 18.6364 17.2185 18.6321 17.2273 18.6277C17.2448 18.6211 17.2579 18.6102 17.2688 18.5993Z" fill="#817268"/>
<path d="M16.8817 19.8016C16.8774 19.7273 16.8511 19.6573 16.8074 19.5961C16.7987 19.5895 16.7899 19.5852 16.779 19.583C16.7659 19.5786 16.7528 19.5764 16.7396 19.5764C16.7069 19.5764 16.6697 19.583 16.6413 19.5961C16.6172 19.607 16.5866 19.6201 16.5735 19.6442C16.5713 19.6507 16.5669 19.6551 16.5648 19.6617C16.5626 19.6726 16.5648 19.6835 16.5735 19.6923C16.5779 19.6988 16.5822 19.7054 16.5866 19.712C16.5844 19.7076 16.5801 19.7032 16.5779 19.6967C16.6085 19.7491 16.626 19.8082 16.6303 19.8694C16.6325 19.889 16.6653 19.8978 16.6784 19.9C16.7069 19.9065 16.744 19.9022 16.7724 19.8934C16.803 19.8847 16.8337 19.8737 16.8577 19.8519C16.8643 19.8453 16.8686 19.8409 16.8752 19.8344C16.8817 19.8256 16.8839 19.8147 16.8817 19.8016Z" fill="#817268"/>
<path d="M16.1819 24.7751C16.1906 24.7663 16.1972 24.7554 16.2015 24.7466C16.2037 24.7444 16.2037 24.7423 16.2059 24.7379C16.2103 24.727 16.2125 24.7182 16.2168 24.7073C16.2168 24.7051 16.219 24.7007 16.219 24.6985C16.219 24.6876 16.219 24.6767 16.2168 24.6679C16.2168 24.657 16.2103 24.6461 16.2037 24.6373C16.1928 24.622 16.1753 24.6155 16.16 24.6089C16.1513 24.6045 16.1228 24.6002 16.1294 24.6023C16.1075 24.598 16.0791 24.6023 16.0573 24.6089C16.031 24.6155 16.0135 24.6242 15.9917 24.6395C15.9829 24.6461 15.9654 24.6636 15.9676 24.6614L15.9654 24.6636C15.9589 24.6723 15.9545 24.6789 15.9479 24.6876C15.9479 24.6876 15.9479 24.6898 15.9458 24.6898C15.937 24.716 15.937 24.716 15.9392 24.7423V24.7444C15.9414 24.7532 15.9458 24.7598 15.9501 24.7685L15.9523 24.7707C15.9545 24.7751 15.9676 24.7838 15.9698 24.7882C15.9698 24.7882 15.9698 24.7882 15.972 24.7904C15.9895 24.8013 16.0092 24.8078 16.0288 24.81C16.042 24.8122 16.0551 24.8122 16.066 24.81C16.09 24.8078 16.1163 24.8013 16.1381 24.7904C16.1622 24.7772 16.1753 24.7707 16.1928 24.751C16.1994 24.7423 16.2081 24.7335 16.2103 24.7226C16.219 24.7007 16.2212 24.6942 16.2168 24.6701C16.2147 24.657 16.2081 24.6483 16.1972 24.6417C16.1884 24.633 16.1775 24.6242 16.1644 24.622C16.1491 24.6177 16.1338 24.6155 16.1185 24.6155C16.101 24.6133 16.0835 24.6155 16.0682 24.622C16.0573 24.6264 16.0463 24.6308 16.0354 24.633C16.0157 24.6417 16.0004 24.6548 15.9851 24.6701C15.9807 24.6767 15.9742 24.6854 15.9698 24.692C15.9611 24.7073 15.9611 24.7226 15.9633 24.7379C15.9633 24.7379 15.9633 24.7379 15.9633 24.7401C15.9633 24.7313 15.9633 24.7248 15.9611 24.716C15.9611 24.7182 15.9611 24.7182 15.9611 24.7204C15.9633 24.7117 15.9654 24.7051 15.9676 24.6964C15.9676 24.6985 15.9676 24.6985 15.9654 24.7007C15.9698 24.6942 15.9764 24.6854 15.9807 24.6789L15.9786 24.681C15.9851 24.6745 15.9939 24.6679 16.0004 24.6614L15.9982 24.6636C16.007 24.657 16.0179 24.6526 16.0266 24.6461C16.0266 24.6461 16.0245 24.6461 16.0245 24.6483C16.0354 24.6439 16.0463 24.6395 16.0573 24.6373H16.0551C16.066 24.6351 16.0791 24.633 16.09 24.6308H16.0879C16.0988 24.6308 16.1097 24.6308 16.1207 24.6308H16.1185C16.1272 24.633 16.1381 24.6351 16.1469 24.6373H16.1447C16.1534 24.6417 16.16 24.6461 16.1688 24.6483L16.1666 24.6461C16.1731 24.6526 16.1797 24.657 16.1841 24.6636L16.1819 24.6614C16.1862 24.6679 16.1884 24.6745 16.1928 24.6832C16.1928 24.681 16.1906 24.681 16.1906 24.6789C16.1906 24.6876 16.1906 24.6942 16.1928 24.7029C16.1928 24.7007 16.1928 24.6985 16.1928 24.6985C16.1906 24.7073 16.1884 24.7138 16.1862 24.7226C16.1862 24.7204 16.1884 24.7204 16.1884 24.7182C16.1841 24.7248 16.1775 24.7335 16.1731 24.7401C16.1731 24.7379 16.1753 24.7379 16.1753 24.7357C16.1688 24.7423 16.16 24.7488 16.1534 24.7554L16.1556 24.7532C16.1469 24.7598 16.136 24.7641 16.1272 24.7707H16.1294C16.1185 24.7751 16.1075 24.7794 16.0966 24.7816H16.0988C16.0879 24.7838 16.0747 24.786 16.0638 24.7882H16.066C16.0551 24.7882 16.0441 24.7882 16.0332 24.7882H16.0354C16.0266 24.786 16.0157 24.7838 16.007 24.7816H16.0092C16.0004 24.7772 15.9939 24.7729 15.9851 24.7707C15.9851 24.7707 15.9851 24.7707 15.9873 24.7707C15.9786 24.7576 15.9676 24.7466 15.9589 24.7335C15.9589 24.7379 15.9611 24.7401 15.9611 24.7444C15.9611 24.7357 15.9611 24.7291 15.9589 24.7204C15.9589 24.727 15.9589 24.7335 15.9567 24.7401C15.9589 24.7313 15.9611 24.7248 15.9633 24.716C15.9611 24.7204 15.9589 24.7248 15.9567 24.7291C15.9611 24.7226 15.9676 24.7138 15.972 24.7073C15.9698 24.7095 15.9698 24.7117 15.9676 24.7138C15.9589 24.7226 15.9523 24.7357 15.9479 24.7488C15.9436 24.7598 15.9414 24.7707 15.9458 24.7838C15.9479 24.7969 15.9545 24.8057 15.9654 24.8122C15.9742 24.821 15.9851 24.8297 15.9982 24.8319C16.007 24.8341 16.0179 24.8363 16.0266 24.8385C16.0485 24.8406 16.0726 24.8385 16.0944 24.8319C16.1054 24.8275 16.1163 24.8232 16.1272 24.821C16.1513 24.8035 16.1688 24.7904 16.1819 24.7751Z" fill="#817268"/>
<path d="M16.0948 25.5776C16.097 25.5732 16.0991 25.5688 16.1013 25.5645C16.1079 25.5535 16.1101 25.5426 16.1079 25.5317C16.1079 25.5207 16.1057 25.5098 16.097 25.5011C16.0882 25.4923 16.0795 25.4858 16.0663 25.4814C16.0532 25.4748 16.0401 25.4726 16.0248 25.4705C16.0139 25.4705 16.003 25.4705 15.992 25.4705C15.968 25.4726 15.9461 25.4792 15.9242 25.4879C15.9155 25.4923 15.9046 25.4989 15.8958 25.5033C15.8805 25.5142 15.8674 25.5273 15.8587 25.5426C15.8565 25.547 15.8543 25.5513 15.8521 25.5557C15.8455 25.5667 15.8434 25.5776 15.8455 25.5885C15.8455 25.5994 15.8477 25.6104 15.8565 25.6191C15.8652 25.6279 15.874 25.6344 15.8871 25.6388C15.9002 25.6454 15.9133 25.6475 15.9286 25.6497C15.9396 25.6497 15.9505 25.6497 15.9614 25.6497C15.9855 25.6475 16.0073 25.641 16.0292 25.6322C16.0379 25.6279 16.0489 25.6213 16.0576 25.6169C16.0729 25.6082 16.086 25.5951 16.0948 25.5776Z" fill="#817268"/>
<path d="M16.6133 20.1666C16.6658 20.1666 16.716 20.1557 16.7641 20.1382C16.7794 20.1339 16.7926 20.1273 16.8057 20.1207C16.8166 20.1164 16.8254 20.1098 16.8363 20.1054C16.845 20.1011 16.8516 20.0945 16.8603 20.0901C16.8734 20.0814 16.8822 20.0705 16.8931 20.0573C16.8997 20.0486 16.9041 20.0377 16.9084 20.0289C16.9128 20.0224 16.9128 20.018 16.9062 20.0136C16.9019 20.0071 16.8953 20.0049 16.8866 20.0049C16.88 20.0049 16.8713 20.0027 16.8647 20.0027C16.845 20.0027 16.8254 20.0049 16.8057 20.0092C16.7838 20.0136 16.7532 20.0202 16.7335 20.0289C16.7226 20.0333 16.7117 20.0377 16.7007 20.042C16.6832 20.0508 16.6701 20.0573 16.6548 20.0705C16.6526 20.0726 16.6505 20.0726 16.6505 20.0748C16.6439 20.0814 16.6373 20.0879 16.633 20.0967C16.6308 20.1033 16.6286 20.112 16.6286 20.1207C16.6308 20.1273 16.6373 20.1317 16.6439 20.1317C16.6526 20.136 16.6636 20.136 16.6723 20.136C16.6876 20.136 16.7007 20.136 16.716 20.1317C16.7335 20.1295 16.7488 20.1273 16.7663 20.1207C16.7773 20.1164 16.7882 20.1142 16.7991 20.1098C16.8188 20.1032 16.8363 20.0945 16.8516 20.0858C16.8581 20.0814 16.8625 20.077 16.8691 20.0726C16.8778 20.0661 16.8822 20.0595 16.8822 20.0508C16.8822 20.0486 16.8822 20.0464 16.8822 20.0442C16.8822 20.0486 16.88 20.0508 16.88 20.0552C16.8822 20.0486 16.8844 20.0442 16.8888 20.0399C16.8844 20.0442 16.8822 20.0486 16.8778 20.0508C16.88 20.0486 16.8822 20.0464 16.8844 20.0442C16.8778 20.0486 16.8734 20.053 16.8669 20.0573L16.8691 20.0552C16.8603 20.0595 16.8538 20.0639 16.845 20.0683H16.8472C16.8385 20.0726 16.8275 20.077 16.8188 20.0792H16.821C16.81 20.0836 16.7991 20.0858 16.7882 20.0901H16.7904C16.7794 20.0923 16.7685 20.0945 16.7554 20.0989H16.7576C16.7248 20.0923 16.6898 20.0858 16.657 20.0792C16.6526 20.0923 16.6461 20.1033 16.6373 20.1142C16.6417 20.1054 16.6461 20.1011 16.6483 20.0967C16.6439 20.1033 16.6373 20.1076 16.6308 20.112C16.6373 20.1076 16.6417 20.1033 16.6483 20.0989C16.6461 20.1033 16.6417 20.1054 16.6395 20.1076C16.6483 20.1033 16.6548 20.0989 16.6636 20.0945C16.6614 20.0967 16.6592 20.0967 16.6548 20.0989C16.6636 20.0945 16.6745 20.0901 16.6832 20.0879C16.6811 20.0879 16.6789 20.0901 16.6767 20.0901C16.6876 20.0858 16.6986 20.0836 16.7095 20.0792C16.7073 20.0792 16.7051 20.0814 16.7029 20.0814C16.7139 20.0792 16.7248 20.077 16.7379 20.0726C16.7357 20.0726 16.7335 20.0726 16.7313 20.0748C16.7423 20.0726 16.7532 20.0726 16.762 20.0705C16.7598 20.0705 16.7576 20.0705 16.7554 20.0705C16.7641 20.0705 16.7729 20.0705 16.7816 20.0683C16.7794 20.0683 16.7794 20.0683 16.7773 20.0683C16.7466 20.0683 16.7139 20.0748 16.6854 20.0814C16.6679 20.0858 16.6526 20.0901 16.6373 20.0967C16.6242 20.1011 16.6111 20.1076 16.598 20.1142C16.5914 20.1186 16.5871 20.1229 16.5805 20.1273C16.5718 20.1339 16.5674 20.1404 16.5674 20.1492C16.5696 20.1513 16.5718 20.1557 16.5739 20.1579C16.5871 20.1666 16.6002 20.1688 16.6133 20.1666Z" fill="#817268"/>
<path d="M16.5891 20.6608C16.5869 20.6323 16.5825 20.6061 16.5803 20.5777C16.5781 20.5689 16.5716 20.5646 16.565 20.5624C16.5563 20.558 16.5453 20.5536 16.5344 20.5536C16.5191 20.5515 16.506 20.5536 16.4907 20.5558C16.4732 20.558 16.4579 20.5602 16.4404 20.5646C16.4295 20.5689 16.4185 20.5711 16.4076 20.5755C16.3879 20.5821 16.3705 20.5908 16.3551 20.6017C16.3486 20.6061 16.3442 20.6105 16.3377 20.617C16.3289 20.6236 16.3245 20.6345 16.3267 20.6455C16.3289 20.6739 16.3333 20.7001 16.3355 20.7285C16.3377 20.7373 16.3442 20.7417 16.3508 20.7438C16.3595 20.7482 16.3705 20.7526 16.3814 20.7504C16.3967 20.7526 16.4098 20.7504 16.4251 20.7482C16.4426 20.746 16.4579 20.7438 16.4754 20.7395C16.4863 20.7351 16.4973 20.7329 16.5082 20.7285C16.5279 20.722 16.5453 20.7132 16.5606 20.7023C16.5672 20.6979 16.5716 20.6936 16.5781 20.687C16.5869 20.6804 16.5891 20.6717 16.5891 20.6608Z" fill="#817268"/>
<path d="M16.2217 22.849C16.2261 22.8272 16.2348 22.8075 16.2436 22.7878C16.2414 22.7944 16.237 22.7988 16.2348 22.8053C16.248 22.7791 16.2655 22.7529 16.2851 22.731C16.2786 22.7376 16.2742 22.7419 16.2676 22.7485C16.2742 22.7419 16.2808 22.7354 16.2895 22.7288C16.3026 22.7179 16.3201 22.696 16.3157 22.6763C16.3114 22.6567 16.2851 22.6457 16.2676 22.6435C16.237 22.6392 16.2042 22.6414 16.1736 22.6501C16.143 22.6588 16.1124 22.672 16.0884 22.6916C16.0293 22.7419 15.9856 22.8097 15.9681 22.884C15.9638 22.9037 15.9769 22.919 15.9944 22.9277C16.0053 22.9321 16.0184 22.9365 16.0315 22.9365C16.0468 22.9387 16.0621 22.9387 16.0774 22.9365C16.1102 22.9321 16.1452 22.9234 16.1736 22.9037C16.1933 22.8906 16.2152 22.8731 16.2217 22.849Z" fill="#817268"/>
<path d="M16.2215 22.7901C16.1734 22.6786 16.1078 22.5737 16.0204 22.4862C15.9985 22.4644 15.9788 22.4535 15.9482 22.4491C15.9176 22.4447 15.8761 22.4513 15.8477 22.4666C15.8214 22.4797 15.793 22.4994 15.7821 22.5278C15.7733 22.5496 15.7689 22.5803 15.7864 22.5977C15.8564 22.6677 15.9132 22.7508 15.957 22.8404C15.9526 22.8339 15.9504 22.8251 15.946 22.8186C15.9526 22.8317 15.9591 22.8448 15.9635 22.8579C15.9744 22.8841 15.9898 22.8994 16.0182 22.9104C16.0466 22.9213 16.0859 22.9213 16.1144 22.9126C16.145 22.9038 16.1778 22.8885 16.1974 22.8623C16.2149 22.8426 16.2302 22.8142 16.2215 22.7901Z" fill="#817268"/>
<path d="M17.6841 17.1124C17.7366 17.0665 17.7847 17.0184 17.8306 16.966C17.8765 16.9113 17.9443 16.8414 17.9246 16.7648C17.9093 16.7058 17.8503 16.6752 17.7935 16.673C17.7366 16.6708 17.6798 16.6905 17.636 16.7277C17.5792 16.7736 17.542 16.8435 17.5049 16.9048C17.4677 16.966 17.4371 17.0272 17.4087 17.0928C17.3978 17.1168 17.3999 17.143 17.4152 17.1649C17.4305 17.1868 17.4612 17.1999 17.4874 17.2021C17.5464 17.2086 17.6251 17.1824 17.6514 17.1234C17.6863 17.0469 17.7257 16.9703 17.7716 16.9004C17.7672 16.9091 17.7607 16.9157 17.7563 16.9244C17.776 16.8938 17.7956 16.8588 17.8219 16.8326C17.8153 16.8392 17.8066 16.8457 17.8 16.8545C17.8066 16.8501 17.8131 16.8435 17.8197 16.8392C17.8109 16.8457 17.8022 16.8501 17.7913 16.8567C17.7956 16.8545 17.8022 16.8501 17.8066 16.8479C17.7956 16.8523 17.7847 16.8567 17.7738 16.861C17.776 16.861 17.7782 16.8588 17.7825 16.8588C17.7716 16.861 17.7585 16.8632 17.7475 16.8654C17.7519 16.8654 17.7541 16.8654 17.7585 16.8654C17.7475 16.8654 17.7366 16.8654 17.7257 16.8654C17.7279 16.8654 17.7279 16.8654 17.7301 16.8654C17.7213 16.8632 17.7104 16.861 17.7016 16.8588C17.7038 16.8588 17.706 16.861 17.7082 16.861C17.6994 16.8567 17.6907 16.8523 17.6841 16.8479C17.6885 16.8501 17.6907 16.8523 17.6929 16.8545C17.6863 16.8479 17.6798 16.8435 17.6754 16.837C17.6798 16.8414 17.682 16.8435 17.6841 16.8479C17.6798 16.8414 17.6776 16.8326 17.6732 16.826C17.6754 16.8304 17.6754 16.8348 17.6776 16.8392C17.6776 16.8304 17.6754 16.8217 17.6754 16.8151C17.6754 16.8217 17.6754 16.8282 17.6732 16.8348C17.6754 16.826 17.6776 16.8173 17.6798 16.8107C17.6754 16.8217 17.671 16.8326 17.6645 16.8435C17.6688 16.8348 17.6754 16.8282 17.6798 16.8195C17.6404 16.8807 17.5858 16.9354 17.5333 16.9856C17.5399 16.9791 17.5486 16.9725 17.5552 16.9638C17.5442 16.9747 17.5333 16.9856 17.5202 16.9966C17.5005 17.0141 17.4786 17.0359 17.4765 17.0665C17.4743 17.0906 17.4874 17.119 17.5071 17.1321C17.553 17.1605 17.6382 17.1518 17.6841 17.1124Z" fill="#817268"/>
<path d="M16.0292 26.2203C15.9374 25.9754 15.7843 25.7546 15.581 25.5907C15.5439 25.5622 15.4892 25.5622 15.4455 25.5754C15.4083 25.5863 15.3449 25.6103 15.3362 25.6563C15.3121 25.7984 15.4302 25.912 15.5154 26.0104C15.6116 26.1219 15.7122 26.2312 15.8149 26.3362C15.8543 26.3777 15.9374 26.3602 15.9833 26.3405C16.0139 26.3274 16.0904 26.2793 16.0511 26.2378C15.9527 26.1372 15.8587 26.0345 15.7669 25.9295C15.7253 25.8814 15.6794 25.8333 15.6422 25.7809C15.6094 25.7371 15.581 25.6825 15.5898 25.6256C15.5089 25.6475 15.4258 25.6694 15.3449 25.6912C15.5395 25.8486 15.6881 26.0541 15.7756 26.2881C15.7953 26.3405 15.8783 26.3318 15.9199 26.3187C15.9527 26.3099 16.0489 26.2728 16.0292 26.2203Z" fill="#817268"/>
<path d="M16.0448 26.3339C16.0907 26.2793 16.1409 26.2268 16.1956 26.1809C16.189 26.1875 16.1803 26.194 16.1737 26.2006C16.1912 26.1853 16.2087 26.1722 16.2284 26.1569C16.2481 26.1416 16.2699 26.1219 16.2743 26.0956C16.2765 26.0738 16.2656 26.0519 16.2459 26.041C16.2196 26.0279 16.189 26.0235 16.1606 26.0257C16.1278 26.0301 16.0929 26.0388 16.0644 26.0607C15.9814 26.1241 15.9027 26.194 15.8371 26.2749C15.8218 26.2924 15.8086 26.3143 15.8152 26.3383C15.8218 26.3602 15.8458 26.3777 15.8677 26.382C15.8983 26.3908 15.9333 26.3886 15.9639 26.3798C15.9923 26.3711 16.0251 26.358 16.0448 26.3339Z" fill="#817268"/>
<path d="M17.5175 14.4082C17.6093 14.8586 17.6596 15.3177 17.6639 15.779C17.6639 15.8424 17.9175 15.7986 17.9175 15.7112C17.9132 15.2499 17.8629 14.7908 17.7711 14.3404C17.7558 14.2661 17.5 14.3295 17.5175 14.4082Z" fill="#817268"/>
<path d="M29.848 3.98665C30.2787 3.35266 30.5323 2.61373 30.5825 1.84637C30.5913 1.7152 30.3333 1.75018 30.3268 1.86605C30.2787 2.59405 30.0469 3.30675 29.6381 3.91014C29.5463 4.04349 29.7824 4.08285 29.848 3.98665Z" fill="#817268"/>
<path d="M34.1855 53.1278C34.2598 53.3748 34.133 53.6372 33.9012 53.7137C33.6695 53.7902 33.4203 53.6525 33.346 53.4055C33.2716 53.1584 33.3984 52.8961 33.6302 52.8196C33.8597 52.7409 34.1089 52.8808 34.1855 53.1278Z" fill="#817268" stroke="#817268" stroke-width="0.0894865" stroke-miterlimit="10"/>
<path d="M29.4525 57.826C29.5269 58.073 29.4001 58.3354 29.1683 58.4119C28.9366 58.4884 28.6874 58.3507 28.6131 58.1036C28.5387 57.8566 28.6655 57.5942 28.8973 57.5177C29.129 57.4412 29.3782 57.5789 29.4525 57.826Z" fill="#817268" stroke="#817268" stroke-width="0.0894865" stroke-miterlimit="10"/>
<path d="M36.4634 53.9541C36.5093 54.1027 36.4306 54.2623 36.2907 54.3082C36.1508 54.3542 35.9999 54.2711 35.954 54.1224C35.9081 53.9738 35.9868 53.8142 36.1267 53.7683C36.2688 53.7223 36.4175 53.8054 36.4634 53.9541Z" fill="#817268" stroke="#817268" stroke-width="0.0894865" stroke-miterlimit="10"/>
<path d="M63.2261 48.2329C64.8351 48.0121 66.3654 47.413 67.7012 46.4926C67.7515 46.4577 67.6553 46.4599 67.6443 46.4577C67.5897 46.4533 67.5175 46.4861 67.4738 46.5167C66.2386 47.3671 64.8242 47.9333 63.3376 48.1389C63.2764 48.1498 63.0621 48.2569 63.2261 48.2329Z" fill="#817268"/>
<path d="M66.331 47.1923C65.7604 47.2338 65.1898 47.2229 64.6236 47.1617C64.5668 47.1551 64.4902 47.1748 64.4443 47.2097C64.405 47.2382 64.4094 47.2644 64.4596 47.271C65.0455 47.3344 65.6358 47.3453 66.2217 47.3016C66.2698 47.2972 66.3594 47.2841 66.39 47.2404C66.4228 47.1944 66.366 47.1901 66.331 47.1923Z" fill="#817268"/>
<path d="M65.2095 47.6928C65.133 47.7453 65.0652 47.8087 64.9974 47.8699C64.9231 47.9355 64.8488 48.0033 64.7722 48.0688C64.6258 48.2 64.4771 48.3312 64.3306 48.4624C64.2869 48.4995 64.3678 48.5039 64.3897 48.5017C64.4443 48.4973 64.5165 48.4798 64.5602 48.4427C64.7023 48.3159 64.8466 48.1891 64.9887 48.0623C65.0586 47.9989 65.1286 47.9377 65.2007 47.8743C65.2663 47.8152 65.3297 47.7518 65.4019 47.7016C65.4106 47.695 65.4368 47.6797 65.4325 47.6644C65.4281 47.6491 65.3975 47.6469 65.3887 47.6469C65.3319 47.6425 65.2554 47.66 65.2095 47.6928Z" fill="#817268"/>
<path d="M64.6973 47.1747C64.7191 47.3299 64.6164 47.472 64.4721 47.4961C64.3256 47.5201 64.1901 47.413 64.1704 47.2578C64.1486 47.1026 64.2513 46.9605 64.3956 46.9364C64.5421 46.9146 64.6776 47.0217 64.6973 47.1747Z" fill="#817268" stroke="#817268" stroke-width="0.0894865" stroke-miterlimit="10"/>
<path d="M63.2852 48.2196C63.307 48.3749 63.2043 48.517 63.06 48.541C62.9135 48.5651 62.778 48.4579 62.7583 48.3027C62.7364 48.1475 62.8392 48.0054 62.9835 47.9813C63.13 47.9595 63.2655 48.0666 63.2852 48.2196Z" fill="#817268" stroke="#817268" stroke-width="0.0894865" stroke-miterlimit="10"/>
<path d="M64.6279 48.6462C64.6498 48.8014 64.5471 48.9435 64.4028 48.9675C64.2563 48.9916 64.1208 48.8844 64.1011 48.7292C64.0792 48.574 64.182 48.4319 64.3263 48.4079C64.4727 48.386 64.6083 48.4931 64.6279 48.6462Z" fill="#817268" stroke="#817268" stroke-width="0.0894865" stroke-miterlimit="10"/>
<path d="M63.1104 40.4959C63.1563 40.6446 63.0776 40.8042 62.9377 40.8501C62.7978 40.896 62.6469 40.8129 62.601 40.6642C62.5551 40.5156 62.6338 40.356 62.7737 40.3101C62.9158 40.262 63.0645 40.3472 63.1104 40.4959Z" fill="#817268" stroke="#817268" stroke-width="0.0894865" stroke-miterlimit="10"/>
<path d="M34.2027 12.0711C34.2486 12.2198 34.1699 12.3794 34.03 12.4253C33.89 12.4712 33.7392 12.3881 33.6933 12.2394C33.6474 12.0908 33.7261 11.9312 33.866 11.8853C34.0059 11.8372 34.1568 11.9224 34.2027 12.0711Z" fill="#817268" stroke="#817268" stroke-width="0.0894865" stroke-miterlimit="10"/>
<path d="M34.4302 6.84837C34.4761 6.99703 34.3974 7.15662 34.2575 7.20253C34.1176 7.24844 33.9667 7.16536 33.9208 7.0167C33.8749 6.86804 33.9536 6.70845 34.0935 6.66254C34.2335 6.61663 34.3843 6.69971 34.4302 6.84837Z" fill="#817268" stroke="#817268" stroke-width="0.0894865" stroke-miterlimit="10"/>
<path d="M30.6958 1.60138C30.7417 1.75004 30.663 1.90963 30.5231 1.95554C30.3832 2.00145 30.2324 1.91838 30.1865 1.76971C30.1405 1.62105 30.2192 1.46146 30.3592 1.41555C30.5013 1.36746 30.6521 1.45272 30.6958 1.60138Z" fill="#817268" stroke="#817268" stroke-width="0.0894865" stroke-miterlimit="10"/>
<path d="M33.2735 2.41477C33.3194 2.56343 33.2407 2.72303 33.1008 2.76894C32.9608 2.81485 32.81 2.73177 32.7641 2.58311C32.7182 2.43445 32.7969 2.27486 32.9368 2.22895C33.0767 2.18304 33.2276 2.26611 33.2735 2.41477Z" fill="#817268" stroke="#817268" stroke-width="0.0894865" stroke-miterlimit="10"/>
<path d="M34.6333 9.08912C34.6792 9.23778 34.6005 9.39737 34.4606 9.44328C34.3207 9.48919 34.1699 9.40612 34.124 9.25746C34.078 9.1088 34.1567 8.9492 34.2967 8.90329C34.4366 8.8552 34.5874 8.93827 34.6333 9.08912Z" fill="#817268" stroke="#817268" stroke-width="0.0894865" stroke-miterlimit="10"/>
<path d="M34.5743 10.5299C34.6071 10.6348 34.5525 10.7463 34.4519 10.7791C34.3535 10.8119 34.2464 10.7529 34.2136 10.6479C34.1808 10.543 34.2355 10.4315 34.336 10.3987C34.4344 10.3659 34.5415 10.4249 34.5743 10.5299Z" fill="#817268" stroke="#817268" stroke-width="0.0894865" stroke-miterlimit="10"/>
<path d="M28.4356 1.05048C28.4772 1.18603 28.4072 1.3325 28.2782 1.37404C28.1492 1.41558 28.0115 1.33906 27.97 1.20351C27.9284 1.06797 27.9984 0.921496 28.1274 0.879958C28.2564 0.838421 28.3941 0.914937 28.4356 1.05048Z" fill="#817268" stroke="#817268" stroke-width="0.0894865" stroke-miterlimit="10"/>
<path d="M29.4633 1.29765C29.4917 1.39384 29.4436 1.49659 29.3518 1.5272C29.2599 1.5578 29.1637 1.50315 29.1331 1.40696C29.1047 1.31076 29.1528 1.20801 29.2446 1.17741C29.3365 1.1468 29.4348 1.19927 29.4633 1.29765Z" fill="#817268" stroke="#817268" stroke-width="0.0894865" stroke-miterlimit="10"/>
<path d="M34.5133 8.03965C34.5461 8.14459 34.4914 8.25608 34.3909 8.28888C34.2925 8.32167 34.1854 8.26264 34.1526 8.1577C34.1198 8.05277 34.1744 7.94127 34.275 7.90848C34.3734 7.87569 34.4805 7.93471 34.5133 8.03965Z" fill="#817268" stroke="#817268" stroke-width="0.0894865" stroke-miterlimit="10"/>
<path d="M31.7999 1.796C31.8327 1.90093 31.7781 2.01243 31.6775 2.04522C31.5791 2.07802 31.472 2.01899 31.4392 1.91405C31.4064 1.80911 31.4611 1.69762 31.5616 1.66483C31.6622 1.63203 31.7693 1.69106 31.7999 1.796Z" fill="#817268" stroke="#817268" stroke-width="0.0894865" stroke-miterlimit="10"/>
<path d="M64.1577 43.0449C64.2037 43.1936 64.125 43.3532 63.985 43.3991C63.8451 43.445 63.6943 43.3619 63.6484 43.2132C63.6025 43.0646 63.6812 42.905 63.8211 42.8591C63.9632 42.8132 64.114 42.8962 64.1577 43.0449Z" fill="#817268" stroke="#817268" stroke-width="0.0894865" stroke-miterlimit="10"/>
<path d="M63.2637 39.0793C63.3096 39.228 63.2309 39.3876 63.091 39.4335C62.9511 39.4794 62.8002 39.3963 62.7543 39.2477C62.7084 39.099 62.7871 38.9394 62.927 38.8935C63.0691 38.8476 63.2178 38.9307 63.2637 39.0793Z" fill="#817268" stroke="#817268" stroke-width="0.0894865" stroke-miterlimit="10"/>
<path d="M64.3062 41.613C64.3281 41.6873 64.2909 41.766 64.221 41.7901C64.151 41.8141 64.0767 41.7704 64.0526 41.6961C64.0308 41.6218 64.0679 41.5431 64.1379 41.519C64.21 41.4971 64.2844 41.5387 64.3062 41.613Z" fill="#817268" stroke="#817268" stroke-width="0.0894865" stroke-miterlimit="10"/>
<path d="M64.4791 44.4703C64.5119 44.5797 64.455 44.6955 64.3523 44.7283C64.2495 44.7611 64.1402 44.6999 64.1074 44.5928C64.0746 44.4835 64.1315 44.3676 64.2342 44.3348C64.337 44.2998 64.4463 44.361 64.4791 44.4703Z" fill="#817268" stroke="#817268" stroke-width="0.0894865" stroke-miterlimit="10"/>
<path d="M66.8289 37.4286C66.8617 37.5379 66.8049 37.6538 66.7021 37.6866C66.5994 37.7194 66.4901 37.6581 66.4551 37.551C66.4223 37.4417 66.4791 37.3258 66.5819 37.2931C66.6868 37.2581 66.7961 37.3193 66.8289 37.4286Z" fill="#817268" stroke="#817268" stroke-width="0.0894865" stroke-miterlimit="10"/>
<path d="M66.5555 36.3007C66.5883 36.41 66.5314 36.5258 66.4287 36.5586C66.3259 36.5914 66.2166 36.5302 66.1816 36.4231C66.1489 36.3138 66.2057 36.1979 66.3084 36.1651C66.4134 36.1301 66.5227 36.1914 66.5555 36.3007Z" fill="#817268" stroke="#817268" stroke-width="0.0894865" stroke-miterlimit="10"/>
<path d="M68.4186 39.993C68.4514 40.1024 68.3946 40.2182 68.2918 40.251C68.1891 40.2838 68.0798 40.2226 68.0448 40.1155C68.0098 40.0084 68.0688 39.8903 68.1716 39.8575C68.2743 39.8225 68.3858 39.8837 68.4186 39.993Z" fill="#817268" stroke="#817268" stroke-width="0.0894865" stroke-miterlimit="10"/>
<path d="M72.7456 45.0148C72.7893 45.1591 72.715 45.3144 72.5795 45.3581C72.4439 45.4018 72.2975 45.3209 72.2537 45.1766C72.21 45.0323 72.2843 44.8771 72.4221 44.8334C72.5554 44.7897 72.7019 44.8706 72.7456 45.0148Z" fill="#817268" stroke="#817268" stroke-width="0.0894865" stroke-miterlimit="10"/>
<path d="M76.969 42.4219C77.0128 42.5662 76.9384 42.7192 76.8029 42.7629C76.6673 42.8066 76.5231 42.7258 76.4793 42.5837C76.4356 42.4394 76.5099 42.2863 76.6455 42.2426C76.7788 42.1967 76.9253 42.2776 76.969 42.4219Z" fill="#817268" stroke="#817268" stroke-width="0.0894865" stroke-miterlimit="10"/>
<path d="M74.3826 43.8124C74.4154 43.9217 74.3586 44.0376 74.2558 44.0704C74.1531 44.1031 74.0438 44.0419 74.0088 43.9348C73.976 43.8255 74.0328 43.7096 74.1356 43.6768C74.2383 43.6419 74.3498 43.7031 74.3826 43.8124Z" fill="#817268" stroke="#817268" stroke-width="0.0894865" stroke-miterlimit="10"/>
<path d="M68.858 41.1759C68.8908 41.2852 68.8339 41.4011 68.7312 41.4339C68.6284 41.4667 68.5191 41.4055 68.4863 41.2983C68.4535 41.189 68.5104 41.0732 68.6131 41.0404C68.7159 41.0054 68.8252 41.0666 68.858 41.1759Z" fill="#817268" stroke="#817268" stroke-width="0.0894865" stroke-miterlimit="10"/>
<path d="M73.8228 44.6606C73.8665 44.8049 73.7922 44.9601 73.6566 45.0038C73.5211 45.0476 73.3746 44.9667 73.3309 44.8224C73.2872 44.6781 73.3615 44.5229 73.497 44.4791C73.6326 44.4354 73.7791 44.5163 73.8228 44.6606Z" fill="#817268" stroke="#817268" stroke-width="0.0894865" stroke-miterlimit="10"/>
<path d="M75.8911 43.5346C75.9349 43.6789 75.8605 43.8342 75.725 43.8779C75.5894 43.9216 75.443 43.8407 75.3993 43.6964C75.3555 43.5521 75.4299 43.3969 75.5654 43.3532C75.7009 43.3073 75.8452 43.3882 75.8911 43.5346Z" fill="#817268" stroke="#817268" stroke-width="0.0894865" stroke-miterlimit="10"/>
<path d="M34.7471 55.1915C34.793 55.3401 34.7143 55.4997 34.5744 55.5456C34.4345 55.5915 34.2836 55.5085 34.2377 55.3598C34.1918 55.2111 34.2705 55.0515 34.4104 55.0056C34.5525 54.9575 34.7012 55.0428 34.7471 55.1915Z" fill="#817268" stroke="#817268" stroke-width="0.0894865" stroke-miterlimit="10"/>
<path d="M30.729 57.2115C30.7749 57.3601 30.6962 57.5197 30.5563 57.5656C30.4164 57.6116 30.2656 57.5285 30.2197 57.3798C30.1737 57.2312 30.2524 57.0716 30.3924 57.0257C30.5323 56.9776 30.6831 57.0628 30.729 57.2115Z" fill="#817268" stroke="#817268" stroke-width="0.0894865" stroke-miterlimit="10"/>
<path d="M30.3511 58.7899C30.397 58.9385 30.3183 59.0981 30.1784 59.144C30.0385 59.1899 29.8876 59.1069 29.8417 58.9582C29.7958 58.8095 29.8745 58.6499 30.0144 58.604C30.1543 58.5559 30.3052 58.6412 30.3511 58.7899Z" fill="#817268" stroke="#817268" stroke-width="0.0894865" stroke-miterlimit="10"/>
<path d="M34.0299 45.5794C34.3913 45.724 35.2949 45.8685 36.0178 45.8685C37.1745 45.8685 37.6082 45.7601 38.801 45.1456C39.56 44.7842 40.8612 43.8806 41.6203 43.1577C43.2468 41.7119 47.6203 36.5793 48.307 35.3865C48.9938 34.1937 48.3793 34.3383 47.4396 35.6395C45.56 38.1335 42.4154 41.6757 41.0781 42.7962C39.307 44.2782 37.4636 45.2541 36.4154 45.2541C35.3672 45.2541 34.3552 44.5312 33.7407 43.3022C33.307 42.3986 33.2347 42.0372 33.2347 40.1215C33.2347 34.9528 35.8733 29.9647 38.801 29.4587C39.7407 29.3141 39.9215 28.8804 39.1624 28.7358C37.9335 28.4828 36.813 27.9768 36.6323 27.6153C36.054 26.531 36.5962 24.796 38.3672 22.0128C41.1142 17.7839 44.0781 15.2899 45.4877 15.9766C45.9215 16.1935 45.9576 16.3381 45.9215 17.6754C45.9215 18.8321 45.7769 19.3381 45.1986 20.6393C44.295 22.555 43.1022 24.1815 42.1624 24.7237C41.5841 25.049 41.5118 25.1575 41.801 25.2659C42.8492 25.6635 44.6203 23.9285 45.8853 21.3261C47.1143 18.6875 47.4757 16.4104 46.7167 15.6513C46.0661 15.0007 43.7167 15.1091 42.1986 15.8682C39.054 17.4947 34.3552 23.8562 34.3552 26.531C34.3552 27.3984 35.0419 28.3382 35.8733 28.6635C36.2708 28.8081 36.5962 28.9527 36.5962 29.025C36.5962 29.0973 36.0178 29.531 35.3311 29.9647C33.6684 31.0491 32.2226 33.1455 31.3552 35.7118C30.8491 37.266 30.7769 37.8805 30.7769 39.6155C30.7769 41.3504 30.8491 41.8203 31.319 42.7962C31.8612 43.989 32.9817 45.1095 34.0299 45.5794Z" fill="#F595A8"/>
<path d="M56.9295 15.8464C54.7247 15.991 51.5078 21.2682 48.3271 30.0514C47.0258 33.6659 46.6283 35.437 46.4475 37.9672C46.3029 40.6781 46.556 42.0516 47.4596 42.7745C48.6524 43.7865 50.568 43.2444 52.303 41.3287C53.3873 40.1359 56.6605 35.7284 57.5641 34.138C58.2509 32.9452 57.6868 32.9814 56.8916 34.138C56.5663 34.6079 55.2668 36.4491 54.2186 37.8587C51.2548 41.8347 49.6644 43.1721 48.8692 42.3769C48.1463 41.654 48.5801 37.0636 49.7367 33.0515C50.1704 31.6057 50.1343 31.7502 51.5078 30.4129C54.6524 27.4128 57.3271 22.208 57.8331 18.1597C58.05 16.4609 57.9415 16.0272 57.3632 15.8826C57.2186 15.8464 57.0741 15.8103 56.9295 15.8464ZM57.0379 16.7139C57.0741 16.7139 57.0741 16.7139 57.0741 16.7139C57.3994 16.8946 57.0741 19.2802 56.4958 21.3405C55.7367 23.9791 53.9656 27.0514 51.7247 29.5815C51.2548 30.1237 50.7849 30.5575 50.6765 30.5575C50.4596 30.5575 52.1584 25.6779 53.4596 22.6417C54.7608 19.5332 56.5319 16.6416 57.0379 16.7139Z" fill="#F595A8"/>
<path d="M57.2155 33.719C57.1326 33.8373 57.1614 34.0003 57.2797 34.0832C57.398 34.166 57.5611 34.1372 57.6439 34.0189L57.2155 33.719ZM65.0959 28.8926L65.1228 28.6324L65.0959 28.8926ZM74.5106 35.8864L74.6483 35.664L74.5106 35.8864ZM88.4228 36.9481C88.5635 36.9155 88.6511 36.775 88.6184 36.6343C88.5858 36.4936 88.4453 36.406 88.3046 36.4386L88.4228 36.9481ZM57.6439 34.0189C58.5926 32.6636 59.4838 31.3509 60.6289 30.4192C61.7582 29.5002 63.1359 28.9527 65.069 29.1527L65.1228 28.6324C63.0425 28.4172 61.5285 29.0129 60.2988 30.0135C59.0849 31.0013 58.1497 32.3843 57.2155 33.719L57.6439 34.0189ZM65.069 29.1527C66.9221 29.3444 68.513 30.5947 70.024 32.0721C70.3994 32.4392 70.767 32.8172 71.1311 33.1934C71.4944 33.5687 71.8548 33.9429 72.2122 34.2982C72.9252 35.007 73.6403 35.6552 74.373 36.1087L74.6483 35.664C73.9688 35.2434 73.2884 34.6306 72.5809 33.9273C72.228 33.5764 71.8718 33.2066 71.5069 32.8297C71.1428 32.4535 70.7707 32.0708 70.3896 31.6981C68.8743 30.2165 67.1701 28.8442 65.1228 28.6324L65.069 29.1527ZM74.373 36.1087C75.6278 36.8855 76.8123 37.6532 78.8616 37.9381C80.8982 38.2213 83.7712 38.0268 88.4228 36.9481L88.3046 36.4386C83.676 37.5119 80.8764 37.6902 78.9336 37.4201C77.0035 37.1517 75.9015 36.4398 74.6483 35.664L74.373 36.1087Z" fill="#F595A8"/>
<path d="M43.3075 24.3198C42.7247 24.9475 40.8059 26.2566 37.7932 26.4718C34.0273 26.7408 31.9746 24.6229 30.9339 23.5128C24.8816 17.057 22.0637 16.8617 14.7944 21.7644C9.01108 25.6648 5.60386 23.4232 1.88281 21.2264" stroke="#F595A8" stroke-width="0.770743" stroke-linecap="round" stroke-linejoin="round"/>
<ellipse cx="1.21046" cy="20.6883" rx="1.21046" ry="1.21047" fill="#FFB0BB"/>
<ellipse rx="1.21047" ry="1.21046" transform="matrix(0.0935974 0.99561 -0.99561 0.093599 89.2783 35.86)" fill="#FFB0BB"/>
<ellipse cx="1.74816" cy="21.2264" rx="0.672478" ry="0.672484" fill="#938378"/>
<ellipse rx="0.672484" ry="0.672478" transform="matrix(0.0935974 0.99561 -0.99561 0.093599 88.7928 36.4459)" fill="#938378"/>
</svg>
