<svg width="21" height="21" viewBox="0 0 21 21" fill="none" xmlns="http://www.w3.org/2000/svg">
<path d="M6 0.375C2.89388 0.375 0.375 2.89388 0.375 6V15C0.375 18.1061 2.89388 20.625 6 20.625H15C18.1061 20.625 20.625 18.1061 20.625 15V6C20.625 2.89388 18.1061 0.375 15 0.375H6ZM17.25 2.625C17.871 2.625 18.375 3.129 18.375 3.75C18.375 4.371 17.871 4.875 17.25 4.875C16.629 4.875 16.125 4.371 16.125 3.75C16.125 3.129 16.629 2.625 17.25 2.625ZM10.5 4.875C13.6061 4.875 16.125 7.39388 16.125 10.5C16.125 13.6061 13.6061 16.125 10.5 16.125C7.39388 16.125 4.875 13.6061 4.875 10.5C4.875 7.39388 7.39388 4.875 10.5 4.875ZM10.5 7.125C9.60489 7.125 8.74645 7.48058 8.11351 8.11351C7.48058 8.74645 7.125 9.60489 7.125 10.5C7.125 11.3951 7.48058 12.2536 8.11351 12.8865C8.74645 13.5194 9.60489 13.875 10.5 13.875C11.3951 13.875 12.2536 13.5194 12.8865 12.8865C13.5194 12.2536 13.875 11.3951 13.875 10.5C13.875 9.60489 13.5194 8.74645 12.8865 8.11351C12.2536 7.48058 11.3951 7.125 10.5 7.125Z" fill="white"/>
</svg>
