<svg width="40" height="31" viewBox="0 0 40 31" fill="none" xmlns="http://www.w3.org/2000/svg">
<path d="M5.45977e-09 3.74976C5.45977e-09 2.75519 0.395088 1.80137 1.09835 1.09811C1.80161 0.394844 2.75544 -0.000244141 3.75 -0.000244141H26.25C27.2446 -0.000244141 28.1984 0.394844 28.9017 1.09811C29.6049 1.80137 30 2.75519 30 3.74976V7.49976H32.55C33.1119 7.50026 33.6664 7.627 34.1727 7.87062C34.679 8.11424 35.124 8.46852 35.475 8.90726L39.1775 13.5323C39.7102 14.1977 40.0003 15.0248 40 15.8773V21.2498C40 22.2443 39.6049 23.1981 38.9016 23.9014C38.1984 24.6047 37.2446 24.9998 36.25 24.9998H35C35 26.3258 34.4732 27.5976 33.5355 28.5353C32.5979 29.473 31.3261 29.9998 30 29.9998C28.6739 29.9998 27.4021 29.473 26.4645 28.5353C25.5268 27.5976 25 26.3258 25 24.9998H12.5C12.5014 25.6662 12.3696 26.3262 12.1123 26.941C11.855 27.5558 11.4774 28.1129 11.0016 28.5797C10.5259 29.0464 9.96164 29.4133 9.34205 29.6589C8.72246 29.9044 8.06004 30.0236 7.39373 30.0094C6.72742 29.9953 6.07067 29.848 5.46207 29.5764C4.85348 29.3047 4.30534 28.9142 3.84987 28.4276C3.3944 27.9411 3.04079 27.3684 2.80984 26.7432C2.57888 26.1181 2.47524 25.4531 2.505 24.7873C1.77262 24.5295 1.13831 24.0507 0.689611 23.4171C0.240914 22.7835 -4.18799e-05 22.0262 5.45977e-09 21.2498L5.45977e-09 3.74976ZM3.235 22.3898C3.687 21.6497 4.32378 21.0401 5.08275 20.6207C5.84171 20.2013 6.69675 19.9866 7.56382 19.9977C8.43089 20.0087 9.28015 20.2453 10.0281 20.684C10.7761 21.1226 11.3971 21.7484 11.83 22.4998H25.67C26.1098 21.7404 26.7407 21.1095 27.5 20.6698V3.74976C27.5 3.41824 27.3683 3.10029 27.1339 2.86587C26.8995 2.63145 26.5815 2.49976 26.25 2.49976H3.75C3.41848 2.49976 3.10054 2.63145 2.86612 2.86587C2.6317 3.10029 2.5 3.41824 2.5 3.74976V21.2498C2.4998 21.4904 2.56905 21.7259 2.69943 21.9281C2.8298 22.1303 3.01577 22.2906 3.235 22.3898ZM30 19.9998C30.8777 19.9998 31.7399 20.2308 32.4999 20.6697C33.26 21.1085 33.8912 21.7397 34.33 22.4998H36.25C36.5815 22.4998 36.8995 22.3681 37.1339 22.1336C37.3683 21.8992 37.5 21.5813 37.5 21.2498V15.8748C37.4995 15.5911 37.4025 15.316 37.225 15.0948L33.525 10.4698C33.4081 10.3234 33.2598 10.2051 33.091 10.1238C32.9222 10.0424 32.7374 10 32.55 9.99976H30V19.9998ZM7.5 22.4998C6.83696 22.4998 6.20107 22.7631 5.73223 23.232C5.26339 23.7008 5 24.3367 5 24.9998C5 25.6628 5.26339 26.2987 5.73223 26.7675C6.20107 27.2364 6.83696 27.4998 7.5 27.4998C8.16304 27.4998 8.79893 27.2364 9.26777 26.7675C9.73661 26.2987 10 25.6628 10 24.9998C10 24.3367 9.73661 23.7008 9.26777 23.232C8.79893 22.7631 8.16304 22.4998 7.5 22.4998ZM30 22.4998C29.337 22.4998 28.7011 22.7631 28.2322 23.232C27.7634 23.7008 27.5 24.3367 27.5 24.9998C27.5 25.6628 27.7634 26.2987 28.2322 26.7675C28.7011 27.2364 29.337 27.4998 30 27.4998C30.663 27.4998 31.2989 27.2364 31.7678 26.7675C32.2366 26.2987 32.5 25.6628 32.5 24.9998C32.5 24.3367 32.2366 23.7008 31.7678 23.232C31.2989 22.7631 30.663 22.4998 30 22.4998Z" fill="black"/>
</svg>
