<svg width="50" height="38" viewBox="0 0 50 38" fill="none" xmlns="http://www.w3.org/2000/svg">
<path d="M9.55089 37.6498V35.1426C9.55089 34.1811 8.96572 33.5546 8.00524 33.5546C7.50078 33.5546 6.96101 33.7221 6.58469 34.2608C6.2921 33.8008 5.87845 33.5546 5.24787 33.5546C5.01343 33.5444 4.78012 33.5926 4.56884 33.6947C4.35756 33.7968 4.17489 33.9497 4.03718 34.1398V33.6353H3.24316V37.6467H4.03718V35.3515C4.03718 34.6452 4.45487 34.3072 5.04004 34.3072C5.62521 34.3072 5.95916 34.6836 5.95916 35.3515V37.6498H6.75317V35.3515C6.75317 34.6452 7.17086 34.3072 7.75603 34.3072C8.3412 34.3072 8.67515 34.6836 8.67515 35.3515V37.6498H9.55089ZM22.5881 33.6797H21.1251V32.469H20.3332V33.6797H19.4978V34.3859H20.3332V36.2706C20.3332 37.1897 20.6671 37.7335 21.67 37.7335C22.0499 37.7256 22.4222 37.6252 22.7545 37.4409L22.5033 36.7347C22.2779 36.8756 22.0165 36.9481 21.7507 36.9435C21.333 36.9435 21.1241 36.6923 21.1241 36.2746V34.3536H22.5871V33.6847L22.5881 33.6797ZM30.0258 33.5546C29.8095 33.5498 29.5957 33.6012 29.4052 33.7037C29.2148 33.8063 29.0542 33.9565 28.9392 34.1398V33.6353H28.1452V37.6467H28.9392V35.3938C28.9392 34.7249 29.2731 34.3072 29.8169 34.3072C30.0004 34.3147 30.1825 34.3428 30.3597 34.391L30.611 33.6383C30.4194 33.59 30.2232 33.562 30.0258 33.5546ZM18.7855 33.9723C18.3678 33.6797 17.7826 33.5546 17.1561 33.5546C16.1532 33.5546 15.5267 34.0146 15.5267 34.8087C15.5267 35.4776 15.9867 35.8529 16.8635 35.979L17.2812 36.0204C17.7413 36.1041 18.0338 36.2716 18.0338 36.4804C18.0338 36.773 17.6999 36.9849 17.0723 36.9849C16.5932 36.9947 16.1238 36.8481 15.7355 36.5672L15.3178 37.1937C15.903 37.6114 16.6133 37.6982 17.033 37.6982C18.2033 37.6982 18.8299 37.1554 18.8299 36.4027C18.8299 35.6965 18.3254 35.3585 17.4507 35.2324L17.033 35.191C16.6567 35.1497 16.3268 35.0236 16.3268 34.7733C16.3268 34.4808 16.6607 34.2689 17.1208 34.2689C17.6252 34.2689 18.1236 34.4777 18.3748 34.6028L18.7855 33.9723ZM30.9035 35.644C30.9035 36.8547 31.6976 37.7335 32.993 37.7335C33.5782 37.7335 33.9959 37.6084 34.4135 37.2734L33.9959 36.6469C33.7001 36.8864 33.3322 37.019 32.9516 37.0232C32.2454 37.0232 31.6976 36.4804 31.6976 35.6864C31.6976 34.8924 32.2383 34.3536 32.9516 34.3536C33.3322 34.3579 33.7001 34.4905 33.9959 34.73L34.4135 34.1034C33.9959 33.7695 33.5782 33.6434 32.993 33.6434C31.7389 33.5596 30.9035 34.4374 30.9035 35.6491V35.644ZM25.3041 33.5546C24.1337 33.5546 23.3397 34.39 23.3397 35.644C23.3397 36.8981 24.1751 37.7335 25.3868 37.7335C25.9763 37.746 26.5519 37.5542 27.0162 37.1907L26.5985 36.6055C26.2628 36.8657 25.8528 37.012 25.4282 37.0232C24.8854 37.0232 24.3002 36.6893 24.2175 35.979H27.1847V35.645C27.1847 34.391 26.432 33.5556 25.3041 33.5556V33.5546ZM25.2627 34.3072C25.8479 34.3072 26.2656 34.6836 26.3069 35.3101H24.1347C24.2598 34.7249 24.6392 34.3072 25.2627 34.3072ZM14.4401 35.644V33.6383H13.6461V34.1428C13.3535 33.7665 12.9398 33.5576 12.3506 33.5576C11.2227 33.5576 10.3863 34.4354 10.3863 35.6471C10.3863 36.8588 11.2217 37.7365 12.3506 37.7365C12.9358 37.7365 13.3535 37.5277 13.6461 37.1514V37.6558H14.4401V35.644ZM11.2227 35.644C11.2227 34.8914 11.6827 34.3072 12.4767 34.3072C13.2294 34.3072 13.6874 34.8924 13.6874 35.644C13.6874 36.4381 13.183 36.9809 12.4767 36.9809C11.6827 37.0222 11.2227 36.3957 11.2227 35.644ZM42.1035 33.5546C41.8872 33.5498 41.6734 33.6012 41.4829 33.7037C41.2925 33.8063 41.1319 33.9565 41.0169 34.1398V33.6353H40.2229V37.6467H41.0159V35.3938C41.0159 34.7249 41.3498 34.3072 41.8936 34.3072C42.0771 34.3147 42.2592 34.3428 42.4364 34.391L42.6876 33.6383C42.4961 33.59 42.2999 33.562 42.1025 33.5546H42.1035ZM39.0112 35.644V33.6383H38.2172V34.1428C37.9246 33.7665 37.5109 33.5576 36.9217 33.5576C35.7937 33.5576 34.9574 34.4354 34.9574 35.6471C34.9574 36.8588 35.7927 37.7365 36.9217 37.7365C37.5069 37.7365 37.9246 37.5277 38.2172 37.1514V37.6558H39.0112V35.644ZM35.7937 35.644C35.7937 34.8914 36.2538 34.3072 37.0478 34.3072C37.8005 34.3072 38.2585 34.8924 38.2585 35.644C38.2585 36.4381 37.7541 36.9809 37.0478 36.9809C36.2538 37.0222 35.7937 36.3957 35.7937 35.644ZM47.0764 35.644V32.0503H46.2824V34.1398C45.9898 33.7634 45.5762 33.5546 44.987 33.5546C43.859 33.5546 43.0226 34.4323 43.0226 35.644C43.0226 36.8557 43.858 37.7335 44.987 37.7335C45.5721 37.7335 45.9898 37.5247 46.2824 37.1483V37.6528H47.0764V35.644ZM43.859 35.644C43.859 34.8914 44.3191 34.3072 45.1131 34.3072C45.8657 34.3072 46.3238 34.8924 46.3238 35.644C46.3238 36.4381 45.8193 36.9809 45.1131 36.9809C44.3181 37.0232 43.858 36.3967 43.858 35.644H43.859Z" fill="black"/>
<path d="M32.3663 3.21729H17.8662V26.8682H32.3663V3.21729Z" fill="#FF5F00"/>
<path d="M19.3294 15.0429C19.3299 12.7677 19.8451 10.522 20.8365 8.47413C21.8278 6.42623 23.2697 4.62914 25.054 3.21743C22.8349 1.47273 20.1698 0.3876 17.3631 0.0860754C14.5565 -0.215449 11.7217 0.278802 9.18267 1.51233C6.64367 2.74586 4.50298 4.66889 3.0053 7.0616C1.50761 9.4543 0.713379 12.2201 0.713379 15.0429C0.713379 17.8657 1.50761 20.6315 3.0053 23.0242C4.50298 25.4169 6.64367 27.34 9.18267 28.5735C11.7217 29.807 14.5565 30.3013 17.3631 29.9997C20.1698 29.6982 22.8349 28.6131 25.054 26.8684C23.2697 25.4567 21.8278 23.6596 20.8365 21.6117C19.8451 19.5638 19.3299 17.3181 19.3294 15.0429Z" fill="#EB001B"/>
<path d="M49.4164 15.0431C49.4184 17.8638 48.6265 20.6281 47.1313 23.02C45.6361 25.4118 43.4979 27.3345 40.9612 28.5682C38.4246 29.8019 35.592 30.2967 32.7873 29.9962C29.9826 29.6956 27.3192 28.6117 25.1016 26.8685C26.8863 25.4572 28.3284 23.6602 29.3198 21.6122C30.3113 19.5642 30.8263 17.3184 30.8263 15.0431C30.8263 12.7677 30.3113 10.5219 29.3198 8.47392C28.3284 6.42594 26.8863 4.62893 25.1016 3.21758C27.3192 1.47439 29.9826 0.390532 32.7873 0.0899626C35.592 -0.210607 38.4246 0.284252 40.9612 1.51794C43.4979 2.75163 45.6361 4.67434 47.1313 7.06616C48.6265 9.45797 49.4184 12.2223 49.4164 15.0431Z" fill="#F79E1B"/>
</svg>
