<svg width="18" height="18" viewBox="0 0 18 18" fill="none" xmlns="http://www.w3.org/2000/svg">
<path d="M15.7977 17.7438H15.6874C2.9385 17.0106 1.12835 6.25355 0.87532 2.97062C0.854932 2.71537 0.88511 2.45861 0.964125 2.21504C1.04314 1.97147 1.16944 1.74589 1.33578 1.55121C1.50213 1.35654 1.70526 1.1966 1.93352 1.08057C2.16178 0.964529 2.4107 0.894673 2.66601 0.875001H6.24089C6.50078 0.874749 6.75474 0.952538 6.96991 1.09829C7.18507 1.24405 7.3515 1.45105 7.44766 1.69249L8.43384 4.119C8.52879 4.35487 8.55235 4.61343 8.5016 4.86258C8.45085 5.11173 8.32802 5.34047 8.14836 5.5204L6.76642 6.91532C6.98229 8.14204 7.56975 9.27285 8.44934 10.1548C9.32893 11.0367 10.4582 11.6271 11.6843 11.8462L13.0922 10.4513C13.2749 10.2736 13.5058 10.1536 13.7561 10.1063C14.0065 10.059 14.2652 10.0865 14.5001 10.1853L16.9461 11.165C17.1839 11.2642 17.3868 11.4319 17.5289 11.6468C17.671 11.8617 17.7459 12.1141 17.7441 12.3717V15.7974C17.7441 16.3136 17.539 16.8087 17.174 17.1737C16.809 17.5387 16.3139 17.7438 15.7977 17.7438ZM2.82172 2.1726C2.64965 2.1726 2.48462 2.24096 2.36295 2.36263C2.24128 2.4843 2.17292 2.64933 2.17292 2.8214V2.8733C2.47137 6.7142 4.38533 15.7974 15.7588 16.4462C15.844 16.4515 15.9295 16.4398 16.0102 16.412C16.0909 16.3842 16.1654 16.3407 16.2293 16.284C16.2932 16.2274 16.3453 16.1587 16.3825 16.0818C16.4198 16.005 16.4415 15.9216 16.4465 15.8363V12.3717L14.0005 11.392L12.1385 13.2411L11.8271 13.2022C6.1825 12.495 5.41692 6.85044 5.41692 6.79205L5.37799 6.48063L7.22058 4.61857L6.24738 2.1726H2.82172Z" fill="black"/>
</svg>
