<svg width="58" height="18" viewBox="0 0 58 18" fill="none" xmlns="http://www.w3.org/2000/svg">
<path d="M21.7539 16.8088L24.6454 0.543945H29.1635L26.3623 16.8088H21.7539Z" fill="#3C58BF"/>
<path d="M21.7539 16.8088L25.4587 0.543945H29.1635L26.3623 16.8088H21.7539Z" fill="#293688"/>
<path d="M42.7172 0.724837C41.8136 0.363396 40.3679 0.00195312 38.5607 0.00195312C34.0426 0.00195312 30.7897 2.26096 30.7897 5.51394C30.7897 7.95367 33.0487 9.21872 34.8559 10.032C36.6631 10.8452 37.2052 11.3874 37.2052 12.1102C37.2052 13.1946 35.7595 13.7367 34.4944 13.7367C32.6872 13.7367 31.6933 13.4657 30.1571 12.8331L29.5246 12.562L28.8921 16.2668C29.9764 16.7186 31.9643 17.1704 34.0426 17.1704C38.8317 17.1704 41.9943 14.9114 41.9943 11.4777C41.9943 9.58016 40.8197 8.13439 38.1089 6.95971C36.4824 6.14646 35.4884 5.69466 35.4884 4.88141C35.4884 4.15853 36.3016 3.43565 38.1089 3.43565C39.645 3.43565 40.7293 3.70673 41.5425 4.06817L41.9943 4.24889L42.7172 0.724837Z" fill="#3C58BF"/>
<path d="M42.7172 0.724837C41.8136 0.363396 40.3679 0.00195312 38.5607 0.00195312C34.0426 0.00195312 31.6029 2.26096 31.6029 5.51394C31.6029 7.95367 33.0487 9.21872 34.8559 10.032C36.6631 10.8452 37.2052 11.3874 37.2052 12.1102C37.2052 13.1946 35.7595 13.7367 34.4944 13.7367C32.6872 13.7367 31.6933 13.4657 30.1571 12.8331L29.5246 12.562L28.8921 16.2668C29.9764 16.7186 31.9643 17.1704 34.0426 17.1704C38.8317 17.1704 41.9943 14.9114 41.9943 11.4777C41.9943 9.58016 40.8197 8.13439 38.1089 6.95971C36.4824 6.14646 35.4884 5.69466 35.4884 4.88141C35.4884 4.15853 36.3016 3.43565 38.1089 3.43565C39.645 3.43565 40.7293 3.70673 41.5425 4.06817L41.9943 4.24889L42.7172 0.724837Z" fill="#293688"/>
<path d="M50.4882 0.543945C49.4039 0.543945 48.5906 0.634305 48.1388 1.71863L41.3618 16.8088H46.2413L47.1449 14.098H52.9279L53.4701 16.8088H57.8074L54.0123 0.543945H50.4882ZM48.4099 11.3872C48.681 10.5739 50.2171 6.59809 50.2171 6.59809C50.2171 6.59809 50.5786 5.60413 50.8497 4.9716L51.1207 6.50773C51.1207 6.50773 52.0243 10.5739 52.2051 11.4776H48.4099V11.3872Z" fill="#3C58BF"/>
<path d="M51.5725 0.543945C50.4882 0.543945 49.675 0.634305 49.2232 1.71863L41.3618 16.8088H46.2413L47.1449 14.098H52.9279L53.4701 16.8088H57.8074L54.0123 0.543945H51.5725ZM48.4099 11.3872C48.7714 10.4836 50.2171 6.59809 50.2171 6.59809C50.2171 6.59809 50.5786 5.60413 50.8497 4.9716L51.1207 6.50773C51.1207 6.50773 52.0243 10.5739 52.2051 11.4776H48.4099V11.3872Z" fill="#293688"/>
<path d="M13.4406 11.9298L12.9888 9.58045C12.1756 6.86963 9.55511 3.88774 6.66357 2.44197L10.7298 16.8996H15.6093L22.9284 0.634766H18.049L13.4406 11.9298Z" fill="#3C58BF"/>
<path d="M13.4406 11.9298L12.9888 9.58045C12.1756 6.86963 9.55511 3.88774 6.66357 2.44197L10.7298 16.8996H15.6093L22.9284 0.634766H18.9526L13.4406 11.9298Z" fill="#293688"/>
<path d="M0.880371 0.543945L1.69361 0.724667C7.47668 2.08007 11.4525 5.51377 12.9887 9.57998L11.3622 1.89935C11.0911 0.815026 10.2779 0.543945 9.28389 0.543945H0.880371Z" fill="#FFBC00"/>
<path d="M0.880371 0.543945C6.66344 1.89935 11.4525 5.42341 12.9887 9.48963L11.4525 3.07404C11.1815 1.98971 10.2779 1.35719 9.28389 1.35719L0.880371 0.543945Z" fill="#F7981D"/>
<path d="M0.880371 0.543945C6.66344 1.89935 11.4525 5.42341 12.9887 9.48963L11.9043 5.96557C11.6333 4.88124 11.2718 3.79692 10.0068 3.34512L0.880371 0.543945Z" fill="#ED7C00"/>
<path d="M17.9586 11.3871L14.8863 8.31486L13.4406 11.7486L13.0791 9.48955C12.2659 6.77873 9.64544 3.79684 6.75391 2.35107L10.8201 16.8087H15.6996L17.9586 11.3871Z" fill="#051244"/>
<path d="M26.3623 16.8094L22.4768 12.8335L21.7539 16.8094H26.3623Z" fill="#051244"/>
<path d="M36.7534 11.2061C37.1149 11.5675 37.2956 11.8386 37.2052 12.2C37.2052 13.2843 35.7595 13.8265 34.4944 13.8265C32.6872 13.8265 31.6933 13.5554 30.1571 12.9229L29.5246 12.6518L28.8921 16.3566C29.9764 16.8084 31.9643 17.2602 34.0426 17.2602C36.9342 17.2602 39.2835 16.447 40.6389 15.0012L36.7534 11.2061Z" fill="#051244"/>
<path d="M41.9941 16.8089H46.2411L47.1447 14.0981H52.9277L53.4699 16.8089H57.8072L56.2711 10.2126L50.8495 4.97168L51.1205 6.41745C51.1205 6.41745 52.0241 10.4837 52.2049 11.3873H48.4097C48.7712 10.4837 50.2169 6.59817 50.2169 6.59817C50.2169 6.59817 50.5784 5.6042 50.8495 4.97168" fill="#051244"/>
</svg>
